<svg width="22" height="23" viewBox="0 0 22 23" fill="none" xmlns="http://www.w3.org/2000/svg">
    <g clip-path="url(#clip0)">
        <path d="M11.8584 17.5909L21.6485 7.55317C21.8752 7.32101 22 7.01109 22 6.68064C22 6.35019 21.8752 6.04028 21.6485 5.80812L20.9277 5.06891C20.458 4.58791 19.6947 4.58791 19.2257 5.06891L11.0046 13.4978L2.77431 5.05956C2.54769 4.8274 2.24559 4.69922 1.92347 4.69922C1.60098 4.69922 1.29889 4.8274 1.07209 5.05956L0.351463 5.79877C0.124847 6.03111 3.43896e-06 6.34084 3.42487e-06 6.67129C3.41078e-06 7.00174 0.124847 7.31165 0.351463 7.54381L10.1505 17.5909C10.3778 17.8236 10.6814 17.9514 11.004 17.9506C11.3279 17.9514 11.6313 17.8236 11.8584 17.5909Z" fill="#9E9A9A"/>
    </g>
    <defs>
        <clipPath id="clip0">
            <rect x="22" y="0.046875" width="22.556" height="22" transform="rotate(90 22 0.046875)" fill="white"/>
        </clipPath>
    </defs>
</svg>
