<svg width="366" height="384" viewBox="0 0 366 384" fill="none" xmlns="http://www.w3.org/2000/svg">
    <mask id="mask0" mask-type="alpha" maskUnits="userSpaceOnUse" x="0" y="0" width="366" height="384">
        <path d="M183 383.82C284.068 383.82 366 297.899 366 191.91C366 85.9211 284.068 0 183 0C81.9319 0 0 85.9211 0 191.91C0 297.899 81.9319 383.82 183 383.82Z" fill="black"/>
        <path d="M366 191.567C366 315.966 284.096 383.135 183 383.135C81.9045 383.135 0 315.966 0 191.567C0 85.6742 81.9045 0 183 0C284.096 0 366 86.0169 366 191.567Z" fill="#090909"/>
        <path d="M183 382.449C284.068 382.449 366 296.835 366 191.225C366 85.6142 284.068 0 183 0C81.9319 0 0 85.6142 0 191.225C0 296.835 81.9319 382.449 183 382.449Z" fill="#121212"/>
        <path d="M366 190.882C366 313.567 284.096 381.764 183 381.764C81.9045 381.764 0 313.567 0 190.882C0 85.6742 81.9045 0 183 0C284.096 0 366 85.6742 366 190.882Z" fill="#1B1B1B"/>
        <path d="M183 381.079C284.068 381.079 366 295.771 366 190.539C366 85.3074 284.068 0 183 0C81.9319 0 0 85.3074 0 190.539C0 295.771 81.9319 381.079 183 381.079Z" fill="#232323"/>
        <path d="M366 190.197C366 310.826 284.096 380.393 183 380.393C81.9045 380.393 0 311.169 0 190.197C0 85.3315 81.9045 0 183 0C284.096 0 366 85.3315 366 190.197Z" fill="#2C2C2C"/>
        <path d="M366 189.854C366 309.455 284.096 379.708 183 379.708C81.9045 379.708 0 309.798 0 189.854C0 84.9888 81.9045 0 183 0C284.096 0 366 84.9888 366 189.854Z" fill="#353535"/>
        <path d="M183 379.023C284.068 379.023 366 294.175 366 189.511C366 84.8471 284.068 0 183 0C81.9319 0 0 84.8471 0 189.511C0 294.175 81.9319 379.023 183 379.023Z" fill="#3E3E3E"/>
        <path d="M183 378.337C284.068 378.337 366 293.643 366 189.169C366 84.6937 284.068 0 183 0C81.9319 0 0 84.6937 0 189.169C0 293.643 81.9319 378.337 183 378.337Z" fill="#474747"/>
        <path d="M183 377.652C284.068 377.652 366 293.112 366 188.826C366 84.5402 284.068 0 183 0C81.9319 0 0 84.5402 0 188.826C0 293.112 81.9319 377.652 183 377.652Z" fill="#505050"/>
        <path d="M183 376.966C284.068 376.966 366 292.58 366 188.483C366 84.3868 284.068 0 183 0C81.9319 0 0 84.3868 0 188.483C0 292.58 81.9319 376.966 183 376.966Z" fill="#585858"/>
        <path d="M183 376.281C284.068 376.281 366 292.048 366 188.14C366 84.2334 284.068 0 183 0C81.9319 0 0 84.2334 0 188.14C0 292.048 81.9319 376.281 183 376.281Z" fill="#616161"/>
        <path d="M183 375.596C284.068 375.596 366 291.516 366 187.798C366 84.0799 284.068 0 183 0C81.9319 0 0 84.0799 0 187.798C0 291.516 81.9319 375.596 183 375.596Z" fill="#6A6A6A"/>
        <path d="M183 374.91C284.068 374.91 366 290.984 366 187.455C366 83.9265 284.068 0 183 0C81.9319 0 0 83.9265 0 187.455C0 290.984 81.9319 374.91 183 374.91Z" fill="#737373"/>
        <path d="M366 187.112C366 299.517 284.096 374.225 183 374.225C81.9045 374.225 0 299.517 0 187.112C0 83.9607 81.9045 0 183 0C284.096 0 366 83.9607 366 187.112Z" fill="#7C7C7C"/>
        <path d="M366 186.77C366 298.146 284.096 373.539 183 373.539C81.9045 373.539 0 298.146 0 186.77C0 83.618 81.9045 0 183 0C284.096 0 366 83.618 366 186.77Z" fill="#858585"/>
        <path d="M366 186.427C366 296.775 284.096 372.854 183 372.854C81.9045 372.854 0 296.775 0 186.427C0 83.618 81.9045 0 183 0C284.096 0 366 83.618 366 186.427Z" fill="#8E8E8E"/>
        <path d="M366 186.084C366 295.405 284.096 372.169 183 372.169C81.9045 372.169 0 295.747 0 186.084C0 83.2753 81.9045 0 183 0C284.096 0 366 83.2753 366 186.084Z" fill="#969696"/>
        <path d="M366 185.742C366 294.376 284.096 371.483 183 371.483C81.9045 371.483 0 294.376 0 185.742C0 83.2753 81.9045 0 183 0C284.096 0 366 83.2753 366 185.742Z" fill="#9F9F9F"/>
        <path d="M366 185.399C366 293.006 284.096 370.798 183 370.798C81.9045 370.798 0 293.006 0 185.399C0 82.9326 81.9045 0 183 0C284.096 0 366 82.9326 366 185.399Z" fill="#A8A8A8"/>
        <path d="M183 370.112C284.068 370.112 366 287.26 366 185.056C366 82.8525 284.068 0 183 0C81.9319 0 0 82.8525 0 185.056C0 287.26 81.9319 370.112 183 370.112Z" fill="#B1B1B1"/>
        <path d="M183 369.427C284.068 369.427 366 286.728 366 184.714C366 82.6991 284.068 0 183 0C81.9319 0 0 82.6991 0 184.714C0 286.728 81.9319 369.427 183 369.427Z" fill="#BABABA"/>
        <path d="M366 184.371C366 289.236 284.096 368.742 183 368.742C81.9045 368.742 0 289.236 0 184.371C0 82.5899 81.9045 0 183 0C284.096 0 366 82.5899 366 184.371Z" fill="#C3C3C3"/>
        <path d="M366 184.028C366 287.865 284.096 368.056 183 368.056C81.9045 368.056 0 287.865 0 184.028C0 82.5899 81.9045 0 183 0C284.096 0 366 82.5899 366 184.028Z" fill="#CBCBCB"/>
        <path d="M366 183.685C366 286.494 284.096 367.371 183 367.371C81.9045 367.371 0 286.494 0 183.685C0 82.2472 81.9045 0 183 0C284.096 0 366 82.2472 366 183.685Z" fill="#D4D4D4"/>
        <path d="M366 183.343C366 285.124 284.096 366.685 183 366.685C81.9045 366.685 0 285.466 0 183.343C0 82.2472 81.9045 0 183 0C284.096 0 366 82.2472 366 183.343Z" fill="#DDDDDD"/>
        <path d="M366 183C366 284.096 284.096 366 183 366C81.9045 366 0 284.096 0 183C0 81.9045 81.9045 0 183 0C284.096 0 366 81.9045 366 183Z" fill="#E6E6E6"/>
    </mask>
    <g mask="url(#mask0)">
        <path d="M366 183C366 284.096 284.096 366 183 366C81.9045 366 0 284.096 0 183C0 81.9045 81.9045 0 183 0C284.096 0 366 81.9045 366 183Z" fill="url(#paint0_linear)"/>
        <path d="M364.286 182.999C364.286 283.066 283.067 364.285 183 364.285C82.9322 364.285 1.71313 283.066 1.71313 182.999C1.71313 82.9315 82.9322 1.7124 183 1.7124C283.067 1.7124 364.286 82.9315 364.286 182.999Z" fill="url(#paint1_linear)"/>
        <path d="M351.264 182.998C351.264 275.869 275.87 351.262 183 351.262C90.1288 351.262 14.7356 275.869 14.7356 182.998C14.7356 90.1277 90.1288 14.7344 183 14.7344C275.87 14.7344 351.264 90.1277 351.264 182.998Z" fill="url(#paint2_linear)"/>
        <path d="M183 347.493C273.848 347.493 347.494 273.846 347.494 182.998C347.494 92.1506 273.848 18.5039 183 18.5039C92.152 18.5039 18.5054 92.1506 18.5054 182.998C18.5054 273.846 92.152 347.493 183 347.493Z" fill="url(#paint3_linear)"/>
    </g>
    <mask id="mask1" mask-type="alpha" maskUnits="userSpaceOnUse" x="18" y="18" width="330" height="330">
        <path d="M183 347.493C273.848 347.493 347.494 273.846 347.494 182.998C347.494 92.1506 273.848 18.5039 183 18.5039C92.152 18.5039 18.5054 92.1506 18.5054 182.998C18.5054 273.846 92.152 347.493 183 347.493Z" fill="url(#paint4_radial)"/>
    </mask>
    <g mask="url(#mask1)">
        <path opacity="0.9" d="M347.494 182.998C347.494 273.813 273.814 347.493 183 347.493C92.1852 347.493 18.5054 273.813 18.5054 182.998C18.5054 92.1837 92.1852 18.5039 183 18.5039C273.814 18.5039 347.494 92.1837 347.494 182.998ZM183 31.8691C99.3818 31.8691 31.8705 99.3803 31.8705 182.998C31.8705 266.616 99.3818 334.127 183 334.127C266.618 334.127 334.129 266.616 334.129 182.998C334.129 99.3803 266.275 31.8691 183 31.8691Z" fill="#8E5201"/>
    </g>
    <path opacity="0.15" d="M332.759 162.094C322.478 88.7573 259.764 32.2124 183.686 32.2124H183.343H183C106.922 32.2124 44.2083 88.7573 33.9274 162.094C33.242 166.549 34.9554 169.634 38.0397 171.347C79.1633 188.825 129.197 198.763 183.343 198.763C237.489 198.763 287.523 188.482 328.646 171.347C331.731 169.634 333.444 166.892 332.759 162.094Z" fill="white"/>
    <defs>
        <linearGradient id="paint0_linear" x1="182.964" y1="365.877" x2="182.964" y2="0.138428" gradientUnits="userSpaceOnUse">
            <stop stop-color="#969696"/>
            <stop offset="0.061019" stop-color="#848484"/>
            <stop offset="0.1835" stop-color="#545454"/>
            <stop offset="0.2" stop-color="#4D4D4D"/>
            <stop offset="0.2239" stop-color="#535353"/>
            <stop offset="0.2553" stop-color="#636363"/>
            <stop offset="0.2907" stop-color="#7E7E7E"/>
            <stop offset="0.3292" stop-color="#A4A4A4"/>
            <stop offset="0.3696" stop-color="#D4D4D4"/>
            <stop offset="0.4" stop-color="#FDFDFD"/>
            <stop offset="0.6" stop-color="#C1C1C1"/>
            <stop offset="0.8" stop-color="#FDFDFD"/>
            <stop offset="1" stop-color="#969696"/>
        </linearGradient>
        <linearGradient id="paint1_linear" x1="182.964" y1="1.82412" x2="182.964" y2="364.196" gradientUnits="userSpaceOnUse">
            <stop stop-color="#F0F0F0"/>
            <stop offset="0.0328408" stop-color="#DEDEDE"/>
            <stop offset="0.0990913" stop-color="#AEAEAE"/>
            <stop offset="0.192" stop-color="#616161"/>
            <stop offset="0.2" stop-color="#5A5A5A"/>
            <stop offset="0.2251" stop-color="#606060"/>
            <stop offset="0.258" stop-color="#707070"/>
            <stop offset="0.2951" stop-color="#8B8B8B"/>
            <stop offset="0.3355" stop-color="#B1B1B1"/>
            <stop offset="0.3779" stop-color="#E1E1E1"/>
            <stop offset="0.4" stop-color="#FDFDFD"/>
            <stop offset="0.6" stop-color="#C1C1C1"/>
            <stop offset="0.8" stop-color="#FDFDFD"/>
            <stop offset="1" stop-color="#464646"/>
        </linearGradient>
        <linearGradient id="paint2_linear" x1="182.963" y1="14.6179" x2="182.963" y2="351.401" gradientUnits="userSpaceOnUse">
            <stop stop-color="#F0F0F0"/>
            <stop offset="0.0328408" stop-color="#DEDEDE"/>
            <stop offset="0.0990913" stop-color="#AEAEAE"/>
            <stop offset="0.192" stop-color="#616161"/>
            <stop offset="0.2" stop-color="#5A5A5A"/>
            <stop offset="0.2251" stop-color="#606060"/>
            <stop offset="0.258" stop-color="#707070"/>
            <stop offset="0.2951" stop-color="#8B8B8B"/>
            <stop offset="0.3355" stop-color="#B1B1B1"/>
            <stop offset="0.3779" stop-color="#E1E1E1"/>
            <stop offset="0.4" stop-color="#FDFDFD"/>
            <stop offset="0.6" stop-color="#C1C1C1"/>
            <stop offset="0.8" stop-color="#FDFDFD"/>
            <stop offset="1" stop-color="#464646"/>
        </linearGradient>
        <linearGradient id="paint3_linear" x1="182.964" y1="18.3963" x2="182.964" y2="347.619" gradientUnits="userSpaceOnUse">
            <stop stop-color="#FEDE84"/>
            <stop offset="0.5" stop-color="#FFC80E"/>
            <stop offset="1" stop-color="#FB8400"/>
        </linearGradient>
        <radialGradient id="paint4_radial" cx="0" cy="0" r="1" gradientUnits="userSpaceOnUse" gradientTransform="translate(182.964 183.008) scale(164.61)">
            <stop offset="0.92"/>
            <stop offset="1" stop-color="#E6E6E6"/>
        </radialGradient>
    </defs>
</svg>
