<svg width="273" height="84" viewBox="0 0 273 84" fill="none" xmlns="http://www.w3.org/2000/svg">
    <mask id="mask0" mask-type="alpha" maskUnits="userSpaceOnUse" x="0" y="0" width="273" height="84">
        <path d="M255.027 84H17.9731C8.08259 84 0 78.2949 0 71.3137V17.4906C0 10.5094 8.08259 4.80431 17.9731 4.80431H255.027C264.917 4.80431 273 10.5094 273 17.4906V71.3137C273 78.2949 264.917 84 255.027 84Z" fill="black"/>
        <path d="M255.027 83.8499H17.9731C8.08259 83.8499 0 78.1448 0 71.1635V17.3405C0 10.3592 8.08259 4.65416 17.9731 4.65416H255.027C264.917 4.65416 273 10.3592 273 17.3405V71.1635C273 78.1448 264.917 83.8499 255.027 83.8499Z" fill="#080808"/>
        <path d="M255.027 83.6247H17.9731C8.08259 83.6247 0 77.9196 0 70.9383V17.1153C0 10.1341 8.08259 4.42897 17.9731 4.42897H255.027C264.917 4.42897 273 10.1341 273 17.1153V70.9383C273 77.9946 264.917 83.6247 255.027 83.6247Z" fill="#101010"/>
        <path d="M255.027 83.4745H17.9731C8.08259 83.4745 0 77.7694 0 70.7882V16.9651C0 9.98391 8.08259 4.27882 17.9731 4.27882H255.027C264.917 4.27882 273 9.98391 273 16.9651V70.7882C273 77.7694 264.917 83.4745 255.027 83.4745Z" fill="#181818"/>
        <path d="M255.027 83.2493H17.9731C8.08259 83.2493 0 77.5442 0 70.563V16.74C0 9.75872 8.08259 4.05363 17.9731 4.05363H255.027C264.917 4.05363 273 9.75872 273 16.74V70.563C273 77.6193 264.917 83.2493 255.027 83.2493Z" fill="#1F1F1F"/>
        <path d="M255.027 83.0992H17.9731C8.08259 83.0992 0 77.3941 0 70.4129V16.5898C0 9.60858 8.08259 3.90349 17.9731 3.90349H255.027C264.917 3.90349 273 9.60858 273 16.5898V70.4129C273 77.3941 264.917 83.0992 255.027 83.0992Z" fill="#272727"/>
        <path d="M255.027 82.874H17.9731C8.08259 82.874 0 77.1689 0 70.1877V16.3646C0 9.38339 8.08259 3.6783 17.9731 3.6783H255.027C264.917 3.6783 273 9.38339 273 16.3646V70.1877C273 77.2439 264.917 82.874 255.027 82.874Z" fill="#2F2F2F"/>
        <path d="M255.027 82.7238H17.9731C8.08259 82.7238 0 77.0188 0 70.0375V16.2145C0 9.23324 8.08259 3.52815 17.9731 3.52815H255.027C264.917 3.52815 273 9.23324 273 16.2145V70.0375C273 77.0188 264.917 82.7238 255.027 82.7238Z" fill="#373737"/>
        <path d="M255.027 82.4987H17.9731C8.08259 82.4987 0 76.7935 0 69.8123V15.9893C0 9.00805 8.08259 3.30296 17.9731 3.30296H255.027C264.917 3.30296 273 9.00805 273 15.9893V69.8123C273 76.8686 264.917 82.4987 255.027 82.4987Z" fill="#3F3F3F"/>
        <path d="M255.027 82.3485H17.9731C8.08259 82.3485 0 76.6434 0 69.6622V15.8391C0 8.8579 8.08259 3.15282 17.9731 3.15282H255.027C264.917 3.15282 273 8.8579 273 15.8391V69.6622C273 76.6434 264.917 82.3485 255.027 82.3485Z" fill="#474747"/>
        <path d="M255.027 82.1984H17.9731C8.08259 82.1984 0 76.4933 0 69.5121V15.689C0 8.7078 8.08259 3.00269 17.9731 3.00269H255.027C264.917 3.00269 273 8.7078 273 15.689V69.5121C273 76.4933 264.917 82.1984 255.027 82.1984Z" fill="#4E4E4E"/>
        <path d="M255.027 81.9732H17.9731C8.08259 81.9732 0 76.2681 0 69.2869V15.4638C0 8.48257 8.08259 2.77748 17.9731 2.77748H255.027C264.917 2.77748 273 8.48257 273 15.4638V69.2869C273 76.2681 264.917 81.9732 255.027 81.9732Z" fill="#565656"/>
        <path d="M255.027 81.823H17.9731C8.08259 81.823 0 76.118 0 69.1367V15.3137C0 8.33246 8.08259 2.62735 17.9731 2.62735H255.027C264.917 2.62735 273 8.33246 273 15.3137V69.1367C273 76.118 264.917 81.823 255.027 81.823Z" fill="#5E5E5E"/>
        <path d="M255.027 81.5979H17.9731C8.08259 81.5979 0 75.8928 0 68.9115V15.0885C0 8.10725 8.08259 2.40216 17.9731 2.40216H255.027C264.917 2.40216 273 8.10725 273 15.0885V68.9115C273 75.8928 264.917 81.5979 255.027 81.5979Z" fill="#666666"/>
        <path d="M255.027 81.4477H17.9731C8.08259 81.4477 0 75.7426 0 68.7614V14.9384C0 7.95712 8.08259 2.25201 17.9731 2.25201H255.027C264.917 2.25201 273 7.95712 273 14.9384V68.7614C273 75.7426 264.917 81.4477 255.027 81.4477Z" fill="#6E6E6E"/>
        <path d="M255.027 81.2225H17.9731C8.08259 81.2225 0 75.5174 0 68.5362V14.7131C0 7.73191 8.08259 2.02682 17.9731 2.02682H255.027C264.917 2.02682 273 7.73191 273 14.7131V68.5362C273 75.5174 264.917 81.2225 255.027 81.2225Z" fill="#767676"/>
        <path d="M255.027 81.0724H17.9731C8.08259 81.0724 0 75.3673 0 68.3861V14.563C0 7.58179 8.08259 1.87668 17.9731 1.87668H255.027C264.917 1.87668 273 7.58179 273 14.563V68.3861C273 75.3673 264.917 81.0724 255.027 81.0724Z" fill="#7E7E7E"/>
        <path d="M255.027 80.8472H17.9731C8.08259 80.8472 0 75.1421 0 68.1609V14.3378C0 7.35658 8.08259 1.65149 17.9731 1.65149H255.027C264.917 1.65149 273 7.35658 273 14.3378V68.1609C273 75.1421 264.917 80.8472 255.027 80.8472Z" fill="#858585"/>
        <path d="M255.027 80.697H17.9731C8.08259 80.697 0 74.992 0 68.0107V14.1877C0 7.20645 8.08259 1.50134 17.9731 1.50134H255.027C264.917 1.50134 273 7.20645 273 14.1877V68.0107C273 74.992 264.917 80.697 255.027 80.697Z" fill="#8D8D8D"/>
        <path d="M255.027 80.4718H17.9731C8.08259 80.4718 0 74.7668 0 67.7855V13.9625C0 6.98124 8.08259 1.27615 17.9731 1.27615H255.027C264.917 1.27615 273 6.98124 273 13.9625V67.7855C273 74.7668 264.917 80.4718 255.027 80.4718Z" fill="#959595"/>
        <path d="M255.027 80.3217H17.9731C8.08259 80.3217 0 74.6166 0 67.6354V13.8123C0 6.83112 8.08259 1.12601 17.9731 1.12601H255.027C264.917 1.12601 273 6.83112 273 13.8123V67.6354C273 74.6166 264.917 80.3217 255.027 80.3217Z" fill="#9D9D9D"/>
        <path d="M255.027 80.0965H17.9731C8.08259 80.0965 0 74.3914 0 67.4102V13.5871C0 6.60591 8.08259 0.900818 17.9731 0.900818H255.027C264.917 0.900818 273 6.60591 273 13.5871V67.4102C273 74.4665 264.917 80.0965 255.027 80.0965Z" fill="#A5A5A5"/>
        <path d="M255.027 79.9464H17.9731C8.08259 79.9464 0 74.2413 0 67.26V13.437C0 6.45578 8.08259 0.750671 17.9731 0.750671H255.027C264.917 0.750671 273 6.45578 273 13.437V67.26C273 74.2413 264.917 79.9464 255.027 79.9464Z" fill="#ADADAD"/>
        <path d="M255.027 79.7212H17.9731C8.08259 79.7212 0 74.0161 0 67.0349V13.2118C0 6.23057 8.08259 0.525482 17.9731 0.525482H255.027C264.917 0.525482 273 6.23057 273 13.2118V67.0349C273 74.0912 264.917 79.7212 255.027 79.7212Z" fill="#B4B4B4"/>
        <path d="M255.027 79.571H17.9731C8.08259 79.571 0 73.8659 0 66.8847V13.0617C0 6.08045 8.08259 0.375336 17.9731 0.375336H255.027C264.917 0.375336 273 6.08045 273 13.0617V66.8847C273 73.8659 264.917 79.571 255.027 79.571Z" fill="#BCBCBC"/>
        <path d="M255.027 79.3458H17.9731C8.08259 79.3458 0 73.6408 0 66.6595V12.8365C0 5.85523 8.08259 0.150146 17.9731 0.150146H255.027C264.917 0.150146 273 5.85523 273 12.8365V66.6595C273 73.7158 264.917 79.3458 255.027 79.3458Z" fill="#C4C4C4"/>
        <path d="M255.027 79.1957H17.9731C8.08259 79.1957 0 73.4906 0 66.5094V12.6863C0 5.70511 8.08259 0 17.9731 0H255.027C264.917 0 273 5.70511 273 12.6863V66.5094C273 73.4906 264.917 79.1957 255.027 79.1957Z" fill="#CCCCCC"/>
    </mask>
    <g mask="url(#mask0)">
        <path d="M255.027 84H17.9731C8.08259 84 0 78.2949 0 71.3137V17.4906C0 10.5094 8.08259 4.80431 17.9731 4.80431H255.027C264.917 4.80431 273 10.5094 273 17.4906V71.3137C273 78.2949 264.917 84 255.027 84Z" fill="#4D4D4D"/>
        <path d="M17.9731 79.1957C8.08259 79.1957 0 73.4906 0 66.5094V12.6863C0 5.70511 8.08259 0 17.9731 0H255.027C264.917 0 273 5.70511 273 12.6863V66.5094C273 73.4906 264.917 79.1957 255.027 79.1957H17.9731Z" fill="url(#paint0_linear)"/>
        <path d="M255.027 78.7453C264.598 78.7453 272.362 73.2654 272.362 66.5094V12.6863C272.362 5.93031 264.598 0.450409 255.027 0.450409H17.9731C8.4016 0.450409 0.638062 5.93031 0.638062 12.6863V66.5094C0.638062 73.2654 8.4016 78.7453 17.9731 78.7453H255.027Z" fill="url(#paint1_linear)"/>
        <path d="M21.4826 76.2681C11.9111 76.2681 4.14758 70.7882 4.14758 64.0322V15.0885C4.14758 8.33244 11.9111 2.85255 21.4826 2.85255H251.624C261.195 2.85255 268.959 8.33244 268.959 15.0885V64.0322C268.959 70.7882 261.195 76.2681 251.624 76.2681H21.4826Z" fill="url(#paint2_linear)"/>
        <path d="M251.624 3.37802H21.4827C12.2303 3.37802 4.78577 8.63272 4.78577 15.1636V64.1073C4.78577 70.563 12.2303 75.8928 21.4827 75.8928H251.624C260.77 75.8928 268.321 70.6381 268.321 64.1073V15.1636C268.214 8.63272 260.77 3.37802 251.624 3.37802Z" fill="url(#paint3_linear)"/>
    </g>
    <mask id="mask1" mask-type="alpha" maskUnits="userSpaceOnUse" x="4" y="3" width="265" height="73">
        <path d="M21.4827 75.8177C12.2303 75.8177 4.78577 70.563 4.78577 64.0322V15.0885C4.78577 8.63271 12.2303 3.30296 21.4827 3.30296H251.624C260.77 3.30296 268.321 8.55764 268.321 15.0885V64.0322C268.321 70.4879 260.876 75.8177 251.624 75.8177H21.4827Z" fill="#E6E6E6"/>
        <path d="M21.4828 75.5925C12.4431 75.5925 5.2113 70.4129 5.2113 64.1072V15.1635C5.2113 8.78285 12.5494 3.6783 21.4828 3.6783H251.624C260.557 3.6783 267.895 8.85791 267.895 15.1635V64.1072C267.895 70.4129 260.557 75.5925 251.624 75.5925H21.4828Z" fill="#DBDBDB"/>
        <path d="M21.4827 75.2922C12.6557 75.2922 5.53027 70.2627 5.53027 64.0322V15.0885C5.53027 8.8579 12.6557 3.82841 21.4827 3.82841H251.624C260.451 3.82841 267.576 8.8579 267.576 15.0885V64.0322C267.576 70.2627 260.451 75.2922 251.624 75.2922H21.4827Z" fill="#D0D0D0"/>
        <path d="M21.4826 75.067C12.8683 75.067 5.95557 70.1126 5.95557 64.1072V15.1635C5.95557 9.08311 12.9747 4.20375 21.4826 4.20375H251.624C260.238 4.20375 267.151 9.15818 267.151 15.1635V64.1072C267.151 70.1877 260.132 75.067 251.624 75.067H21.4826Z" fill="#C5C5C5"/>
        <path d="M21.4828 74.7667C13.0812 74.7667 6.27478 69.9625 6.27478 64.0322V15.0885C6.27478 9.15818 13.0812 4.3539 21.4828 4.3539H251.624C260.025 4.3539 266.832 9.15818 266.832 15.0885V64.0322C266.832 69.9625 260.025 74.7667 251.624 74.7667H21.4828Z" fill="#BABABA"/>
        <path d="M21.4827 74.4665C13.2938 74.4665 6.70007 69.8123 6.70007 64.0322V15.0885C6.70007 9.30831 13.4001 4.65416 21.4827 4.65416H251.624C259.813 4.65416 266.406 9.38338 266.406 15.0885V64.0322C266.406 69.8123 259.813 74.4665 251.624 74.4665H21.4827Z" fill="#AFAFAF"/>
        <path d="M21.4827 74.2413C13.5065 74.2413 7.01917 69.6622 7.01917 64.0322V15.0885C7.01917 9.45844 13.5065 4.87935 21.4827 4.87935H251.624C259.6 4.87935 266.087 9.45844 266.087 15.0885V64.0322C266.087 69.6622 259.6 74.2413 251.624 74.2413H21.4827Z" fill="#A4A4A4"/>
        <path d="M21.4828 74.0161C13.7192 74.0161 7.44458 69.5871 7.44458 64.1072V15.1635C7.44458 9.68365 13.7192 5.25468 21.4828 5.25468H251.624C259.387 5.25468 265.662 9.68365 265.662 15.1635V64.1072C265.662 69.5871 259.387 74.0161 251.624 74.0161H21.4828Z" fill="#999999"/>
        <path d="M21.4827 73.7158C13.9318 73.7158 7.76355 69.3619 7.76355 64.0322V15.0885C7.76355 9.75871 13.9318 5.40483 21.4827 5.40483H251.624C259.174 5.40483 265.343 9.75871 265.343 15.0885V64.0322C265.343 69.3619 259.174 73.7158 251.624 73.7158H21.4827Z" fill="#8E8E8E"/>
        <path d="M21.4827 73.4906C14.1446 73.4906 8.18896 69.2869 8.18896 64.1072V15.1635C8.18896 9.98392 14.1446 5.78017 21.4827 5.78017H251.624C258.962 5.78017 264.917 9.98392 264.917 15.1635V64.1072C264.917 69.2869 258.962 73.4906 251.624 73.4906H21.4827Z" fill="#838383"/>
        <path d="M21.4827 73.1903C14.3573 73.1903 8.50806 69.0617 8.50806 64.0322V15.0885C8.50806 10.059 14.3573 5.93031 21.4827 5.93031H251.624C258.749 5.93031 264.598 10.059 264.598 15.0885V64.0322C264.598 69.0617 258.749 73.1903 251.624 73.1903H21.4827Z" fill="#787878"/>
        <path d="M21.4827 72.9651C14.57 72.9651 8.93347 68.9866 8.93347 64.1072V15.1635C8.93347 10.2842 14.57 6.30565 21.4827 6.30565H251.624C258.536 6.30565 264.173 10.2842 264.173 15.1635V64.1072C264.173 68.9866 258.536 72.9651 251.624 72.9651H21.4827Z" fill="#6D6D6D"/>
        <path d="M21.4827 72.6649C14.7826 72.6649 9.25244 68.8365 9.25244 64.0322V15.0885C9.25244 10.3592 14.7826 6.45576 21.4827 6.45576H251.624C258.324 6.45576 263.854 10.3592 263.854 15.0885V64.0322C263.854 68.7614 258.43 72.6649 251.624 72.6649H21.4827Z" fill="#626262"/>
        <path d="M21.4827 72.4397C14.9953 72.4397 9.67786 68.6863 9.67786 64.1072V15.1635C9.67786 10.5845 14.9953 6.8311 21.4827 6.8311H251.624C258.111 6.8311 263.429 10.5845 263.429 15.1635V64.1072C263.429 68.6863 258.111 72.4397 251.624 72.4397H21.4827Z" fill="#575757"/>
        <path d="M21.4827 72.1394C15.1017 72.1394 9.99695 68.5362 9.99695 64.0322V15.0885C9.99695 10.6595 15.1017 6.98125 21.4827 6.98125H251.624C257.898 6.98125 263.11 10.5845 263.11 15.0885V64.0322C263.11 68.4611 258.005 72.1394 251.624 72.1394H21.4827Z" fill="#4D4D4D"/>
        <path d="M21.4827 71.9142C15.3145 71.9142 10.4224 68.3861 10.4224 64.1072V15.1635C10.4224 10.8097 15.4208 7.35658 21.4827 7.35658H251.624C257.686 7.35658 262.684 10.8847 262.684 15.1635V64.1072C262.684 68.3861 257.686 71.9142 251.624 71.9142H21.4827Z" fill="#424242"/>
        <path d="M21.4827 71.6139C15.5271 71.6139 10.7413 68.2359 10.7413 64.0322V15.0885C10.7413 10.8847 15.5271 7.5067 21.4827 7.5067H251.624C257.579 7.5067 262.365 10.8847 262.365 15.0885V64.0322C262.365 68.1609 257.579 71.6139 251.624 71.6139H21.4827Z" fill="#373737"/>
        <path d="M21.4827 71.3887C15.7398 71.3887 11.1667 68.0858 11.1667 64.1072V15.1635C11.1667 11.1099 15.8461 7.88203 21.4827 7.88203H251.624C257.367 7.88203 261.94 11.185 261.94 15.1635V64.1072C261.94 68.1609 257.26 71.3887 251.624 71.3887H21.4827Z" fill="#2C2C2C"/>
        <path d="M21.4827 71.0885C15.9525 71.0885 11.4858 67.9357 11.4858 64.0322V15.0885C11.4858 11.185 15.9525 8.03218 21.4827 8.03218H251.624C257.154 8.03218 261.621 11.185 261.621 15.0885V64.0322C261.621 67.9357 257.154 71.0885 251.624 71.0885H21.4827Z" fill="#212121"/>
        <path d="M21.4827 70.8633C16.1652 70.8633 11.9113 67.8606 11.9113 64.1072V15.1635C11.9113 11.4102 16.2716 8.40752 21.4827 8.40752H251.624C256.941 8.40752 261.195 11.4853 261.195 15.1635V64.1072C261.195 67.8606 256.941 70.8633 251.624 70.8633H21.4827Z" fill="#161616"/>
        <path d="M21.4828 70.563C16.378 70.563 12.2303 67.6354 12.2303 64.0322V15.0885C12.2303 11.4853 16.378 8.55766 21.4828 8.55766H251.624C256.729 8.55766 260.876 11.4853 260.876 15.0885V64.0322C260.876 67.6354 256.729 70.563 251.624 70.563H21.4828Z" fill="#0B0B0B"/>
        <path d="M21.4828 70.3378C16.5907 70.3378 12.6558 67.5603 12.6558 64.1073V15.1636C12.6558 11.7105 16.5907 8.933 21.4828 8.933H251.624C256.516 8.933 260.451 11.7105 260.451 15.1636V64.1073C260.451 67.5603 256.516 70.3378 251.624 70.3378H21.4828Z" fill="black"/>
    </mask>
    <g mask="url(#mask1)">
        <path opacity="0.9" d="M21.4827 75.8177C12.2303 75.8177 4.78577 70.563 4.78577 64.0322V15.0885C4.78577 8.63271 12.2303 3.30296 21.4827 3.30296H251.624C260.77 3.30296 268.321 8.55764 268.321 15.0885V64.0322C268.321 70.4879 260.876 75.8177 251.624 75.8177H21.4827ZM251.624 70.3378C256.516 70.3378 260.451 67.5603 260.451 64.1072V15.1635C260.451 11.7105 256.516 8.93299 251.624 8.93299H21.4827C16.5906 8.93299 12.6557 11.7105 12.6557 15.1635V64.1072C12.6557 67.5603 16.5906 70.3378 21.4827 70.3378H251.624Z" fill="#B07723"/>
    </g>
    <path opacity="0.15" d="M261.302 22.9705C261.302 38.8847 210.36 44.8901 136.447 44.8901C62.6401 44.8901 11.5922 38.9598 11.5922 22.9705C11.5922 18.9169 11.5922 18.1662 11.5922 18.1662C11.5922 11.4102 19.3557 8.48259 28.9272 8.48259H243.967C253.538 8.48259 261.302 11.4853 261.302 18.1662C261.302 18.1662 261.302 18.9169 261.302 22.9705Z" fill="white"/>
    <defs>
        <linearGradient id="paint0_linear" x1="136.519" y1="79.1941" x2="136.519" y2="-0.00307778" gradientUnits="userSpaceOnUse">
            <stop stop-color="#969696"/>
            <stop offset="0.061019" stop-color="#848484"/>
            <stop offset="0.1835" stop-color="#545454"/>
            <stop offset="0.2" stop-color="#4D4D4D"/>
            <stop offset="0.2239" stop-color="#535353"/>
            <stop offset="0.2553" stop-color="#636363"/>
            <stop offset="0.2907" stop-color="#7E7E7E"/>
            <stop offset="0.3292" stop-color="#A4A4A4"/>
            <stop offset="0.3696" stop-color="#D4D4D4"/>
            <stop offset="0.4" stop-color="#FDFDFD"/>
            <stop offset="0.6" stop-color="#C1C1C1"/>
            <stop offset="0.8" stop-color="#FDFDFD"/>
            <stop offset="1" stop-color="#969696"/>
        </linearGradient>
        <linearGradient id="paint1_linear" x1="136.52" y1="0.431642" x2="136.52" y2="78.7594" gradientUnits="userSpaceOnUse">
            <stop stop-color="#F0F0F0"/>
            <stop offset="0.0328408" stop-color="#DEDEDE"/>
            <stop offset="0.0990913" stop-color="#AEAEAE"/>
            <stop offset="0.192" stop-color="#616161"/>
            <stop offset="0.2" stop-color="#5A5A5A"/>
            <stop offset="0.2251" stop-color="#606060"/>
            <stop offset="0.258" stop-color="#707070"/>
            <stop offset="0.2951" stop-color="#8B8B8B"/>
            <stop offset="0.3355" stop-color="#B1B1B1"/>
            <stop offset="0.3779" stop-color="#E1E1E1"/>
            <stop offset="0.4" stop-color="#FDFDFD"/>
            <stop offset="0.6" stop-color="#C1C1C1"/>
            <stop offset="0.8" stop-color="#FDFDFD"/>
            <stop offset="1" stop-color="#464646"/>
        </linearGradient>
        <linearGradient id="paint2_linear" x1="4.13684" y1="39.5951" x2="268.903" y2="39.5951" gradientUnits="userSpaceOnUse">
            <stop stop-color="#F0F0F0"/>
            <stop offset="0.0328408" stop-color="#DEDEDE"/>
            <stop offset="0.0990913" stop-color="#AEAEAE"/>
            <stop offset="0.192" stop-color="#616161"/>
            <stop offset="0.2" stop-color="#5A5A5A"/>
            <stop offset="0.2251" stop-color="#606060"/>
            <stop offset="0.258" stop-color="#707070"/>
            <stop offset="0.2951" stop-color="#8B8B8B"/>
            <stop offset="0.3355" stop-color="#B1B1B1"/>
            <stop offset="0.3779" stop-color="#E1E1E1"/>
            <stop offset="0.4" stop-color="#FDFDFD"/>
            <stop offset="0.6" stop-color="#C1C1C1"/>
            <stop offset="0.8" stop-color="#FDFDFD"/>
            <stop offset="1" stop-color="#464646"/>
        </linearGradient>
        <linearGradient id="paint3_linear" x1="136.52" y1="3.37344" x2="136.52" y2="75.8175" gradientUnits="userSpaceOnUse">
            <stop stop-color="#FEDE84"/>
            <stop offset="0.5" stop-color="#FFC80E"/>
            <stop offset="1" stop-color="#FB8400"/>
        </linearGradient>
    </defs>
</svg>
