<svg width="469" height="108" viewBox="0 0 469 108" fill="none" xmlns="http://www.w3.org/2000/svg">
    <mask id="mask0" mask-type="alpha" maskUnits="userSpaceOnUse" x="0" y="0" width="469" height="108">
        <path d="M438.123 108H30.8769C13.8855 108 0 100.665 0 91.689V22.488C0 13.5121 13.8855 6.17699 30.8769 6.17699H438.123C455.115 6.17699 469 13.5121 469 22.488V91.689C469 100.665 455.115 108 438.123 108Z" fill="black"/>
        <path d="M438.123 107.807H30.8769C13.8855 107.807 0 100.472 0 91.496V22.2949C0 13.319 13.8855 5.98393 30.8769 5.98393H438.123C455.115 5.98393 469 13.319 469 22.2949V91.496C469 100.472 455.115 107.807 438.123 107.807Z" fill="#080808"/>
        <path d="M438.123 107.517H30.8769C13.8855 107.517 0 100.182 0 91.2064V22.0054C0 13.0295 13.8855 5.69441 30.8769 5.69441H438.123C455.115 5.69441 469 13.0295 469 22.0054V91.2064C469 100.279 455.115 107.517 438.123 107.517Z" fill="#101010"/>
        <path d="M438.123 107.324H30.8769C13.8855 107.324 0 99.9893 0 91.0134V21.8123C0 12.8365 13.8855 5.50136 30.8769 5.50136H438.123C455.115 5.50136 469 12.8365 469 21.8123V91.0134C469 99.9893 455.115 107.324 438.123 107.324Z" fill="#181818"/>
        <path d="M438.123 107.035H30.8769C13.8855 107.035 0 99.6997 0 90.7239V21.5228C0 12.547 13.8855 5.21184 30.8769 5.21184H438.123C455.115 5.21184 469 12.547 469 21.5228V90.7239C469 99.7962 455.115 107.035 438.123 107.035Z" fill="#1F1F1F"/>
        <path d="M438.123 106.842H30.8769C13.8855 106.842 0 99.5067 0 90.5308V21.3298C0 12.3539 13.8855 5.01878 30.8769 5.01878H438.123C455.115 5.01878 469 12.3539 469 21.3298V90.5308C469 99.5067 455.115 106.842 438.123 106.842Z" fill="#272727"/>
        <path d="M438.123 106.552H30.8769C13.8855 106.552 0 99.2172 0 90.2413V21.0402C0 12.0644 13.8855 4.72926 30.8769 4.72926H438.123C455.115 4.72926 469 12.0644 469 21.0402V90.2413C469 99.3137 455.115 106.552 438.123 106.552Z" fill="#2F2F2F"/>
        <path d="M438.123 106.359H30.8769C13.8855 106.359 0 99.0241 0 90.0483V20.8472C0 11.8713 13.8855 4.53621 30.8769 4.53621H438.123C455.115 4.53621 469 11.8713 469 20.8472V90.0483C469 99.0241 455.115 106.359 438.123 106.359Z" fill="#373737"/>
        <path d="M438.123 106.07H30.8769C13.8855 106.07 0 98.7346 0 89.7587V20.5577C0 11.5818 13.8855 4.24669 30.8769 4.24669H438.123C455.115 4.24669 469 11.5818 469 20.5577V89.7587C469 98.8311 455.115 106.07 438.123 106.07Z" fill="#3F3F3F"/>
        <path d="M438.123 105.877H30.8769C13.8855 105.877 0 98.5416 0 89.5657V20.3646C0 11.3887 13.8855 4.05363 30.8769 4.05363H438.123C455.115 4.05363 469 11.3887 469 20.3646V89.5657C469 98.5416 455.115 105.877 438.123 105.877Z" fill="#474747"/>
        <path d="M438.123 105.684H30.8769C13.8855 105.684 0 98.3485 0 89.3727V20.1716C0 11.1957 13.8855 3.8606 30.8769 3.8606H438.123C455.115 3.8606 469 11.1957 469 20.1716V89.3727C469 98.3485 455.115 105.684 438.123 105.684Z" fill="#4E4E4E"/>
        <path d="M438.123 105.394H30.8769C13.8855 105.394 0 98.059 0 89.0831V19.882C0 10.9062 13.8855 3.57106 30.8769 3.57106H438.123C455.115 3.57106 469 10.9062 469 19.882V89.0831C469 98.059 455.115 105.394 438.123 105.394Z" fill="#565656"/>
        <path d="M438.123 105.201H30.8769C13.8855 105.201 0 97.8659 0 88.8901V19.689C0 10.7132 13.8855 3.37802 30.8769 3.37802H438.123C455.115 3.37802 469 10.7132 469 19.689V88.8901C469 97.8659 455.115 105.201 438.123 105.201Z" fill="#5E5E5E"/>
        <path d="M438.123 104.912H30.8769C13.8855 104.912 0 97.5764 0 88.6005V19.3995C0 10.4236 13.8855 3.08849 30.8769 3.08849H438.123C455.115 3.08849 469 10.4236 469 19.3995V88.6005C469 97.5764 455.115 104.912 438.123 104.912Z" fill="#666666"/>
        <path d="M438.123 104.718H30.8769C13.8855 104.718 0 97.3834 0 88.4075V19.2065C0 10.2306 13.8855 2.89545 30.8769 2.89545H438.123C455.115 2.89545 469 10.2306 469 19.2065V88.4075C469 97.3834 455.115 104.718 438.123 104.718Z" fill="#6E6E6E"/>
        <path d="M438.123 104.429H30.8769C13.8855 104.429 0 97.0938 0 88.118V18.9169C0 9.94102 13.8855 2.60591 30.8769 2.60591H438.123C455.115 2.60591 469 9.94102 469 18.9169V88.118C469 97.0938 455.115 104.429 438.123 104.429Z" fill="#767676"/>
        <path d="M438.123 104.236H30.8769C13.8855 104.236 0 96.9008 0 87.9249V18.7239C0 9.74801 13.8855 2.41287 30.8769 2.41287H438.123C455.115 2.41287 469 9.74801 469 18.7239V87.9249C469 96.9008 455.115 104.236 438.123 104.236Z" fill="#7E7E7E"/>
        <path d="M438.123 103.946H30.8769C13.8855 103.946 0 96.6113 0 87.6354V18.4343C0 9.45845 13.8855 2.12334 30.8769 2.12334H438.123C455.115 2.12334 469 9.45845 469 18.4343V87.6354C469 96.6113 455.115 103.946 438.123 103.946Z" fill="#858585"/>
        <path d="M438.123 103.753H30.8769C13.8855 103.753 0 96.4182 0 87.4424V18.2413C0 9.26544 13.8855 1.9303 30.8769 1.9303H438.123C455.115 1.9303 469 9.26544 469 18.2413V87.4424C469 96.4182 455.115 103.753 438.123 103.753Z" fill="#8D8D8D"/>
        <path d="M438.123 103.464H30.8769C13.8855 103.464 0 96.1287 0 87.1528V17.9517C0 8.97588 13.8855 1.64076 30.8769 1.64076H438.123C455.115 1.64076 469 8.97588 469 17.9517V87.1528C469 96.1287 455.115 103.464 438.123 103.464Z" fill="#959595"/>
        <path d="M438.123 103.271H30.8769C13.8855 103.271 0 95.9356 0 86.9598V17.7587C0 8.78287 13.8855 1.44772 30.8769 1.44772H438.123C455.115 1.44772 469 8.78287 469 17.7587V86.9598C469 95.9356 455.115 103.271 438.123 103.271Z" fill="#9D9D9D"/>
        <path d="M438.123 102.981H30.8769C13.8855 102.981 0 95.6461 0 86.6702V17.4692C0 8.4933 13.8855 1.15819 30.8769 1.15819H438.123C455.115 1.15819 469 8.4933 469 17.4692V86.6702C469 95.7426 455.115 102.981 438.123 102.981Z" fill="#A5A5A5"/>
        <path d="M438.123 102.788H30.8769C13.8855 102.788 0 95.4531 0 86.4772V17.2762C0 8.30029 13.8855 0.965149 30.8769 0.965149H438.123C455.115 0.965149 469 8.30029 469 17.2762V86.4772C469 95.4531 455.115 102.788 438.123 102.788Z" fill="#ADADAD"/>
        <path d="M438.123 102.499H30.8769C13.8855 102.499 0 95.1635 0 86.1877V16.9866C0 8.01073 13.8855 0.675613 30.8769 0.675613H438.123C455.115 0.675613 469 8.01073 469 16.9866V86.1877C469 95.26 455.115 102.499 438.123 102.499Z" fill="#B4B4B4"/>
        <path d="M438.123 102.306H30.8769C13.8855 102.306 0 94.9705 0 85.9946V16.7936C0 7.81772 13.8855 0.482574 30.8769 0.482574H438.123C455.115 0.482574 469 7.81772 469 16.7936V85.9946C469 94.9705 455.115 102.306 438.123 102.306Z" fill="#BCBCBC"/>
        <path d="M438.123 102.016H30.8769C13.8855 102.016 0 94.681 0 85.7051V16.504C0 7.52815 13.8855 0.193039 30.8769 0.193039H438.123C455.115 0.193039 469 7.52815 469 16.504V85.7051C469 94.7775 455.115 102.016 438.123 102.016Z" fill="#C4C4C4"/>
        <path d="M438.123 101.823H30.8769C13.8855 101.823 0 94.4879 0 85.5121V16.311C0 7.33514 13.8855 0 30.8769 0H438.123C455.115 0 469 7.33514 469 16.311V85.5121C469 94.4879 455.115 101.823 438.123 101.823Z" fill="#CCCCCC"/>
    </mask>
    <g mask="url(#mask0)">
        <path d="M438.123 108H30.8769C13.8855 108 0 100.665 0 91.689V22.488C0 13.5121 13.8855 6.17699 30.8769 6.17699H438.123C455.115 6.17699 469 13.5121 469 22.488V91.689C469 100.665 455.115 108 438.123 108Z" fill="#4D4D4D"/>
        <path d="M30.8769 101.823C13.8855 101.823 0 94.4879 0 85.5121V16.311C0 7.33514 13.8855 0 30.8769 0H438.123C455.115 0 469 7.33514 469 16.311V85.5121C469 94.4879 455.115 101.823 438.123 101.823H30.8769Z" fill="url(#paint0_linear)"/>
        <path d="M438.123 101.244C454.566 101.244 467.903 94.1984 467.903 85.5121V16.311C467.903 7.62469 454.566 0.579102 438.123 0.579102H30.8766C14.4333 0.579102 1.09595 7.62469 1.09595 16.311V85.5121C1.09595 94.1984 14.4333 101.244 30.8766 101.244H438.123Z" fill="url(#paint1_linear)"/>
        <path d="M36.9062 98.059C20.4628 98.059 7.12549 91.0134 7.12549 82.3271V19.3994C7.12549 10.7131 20.4628 3.66756 36.9062 3.66756H432.277C448.72 3.66756 462.057 10.7131 462.057 19.3994V82.3271C462.057 91.0134 448.72 98.059 432.277 98.059H36.9062Z" fill="url(#paint2_linear)"/>
        <path d="M432.277 4.34317H36.9061C21.0109 4.34317 8.22168 11.0992 8.22168 19.496V82.4236C8.22168 90.7239 21.0109 97.5764 36.9061 97.5764H432.277C447.989 97.5764 460.961 90.8204 460.961 82.4236V19.496C460.778 11.0992 447.989 4.34317 432.277 4.34317Z" fill="url(#paint3_linear)"/>
    </g>
    <mask id="mask1" mask-type="alpha" maskUnits="userSpaceOnUse" x="8" y="4" width="453" height="94">
        <path d="M36.9061 97.4799C21.0109 97.4799 8.22168 90.7239 8.22168 82.3271V19.3995C8.22168 11.0992 21.0109 4.24669 36.9061 4.24669H432.277C447.989 4.24669 460.961 11.0027 460.961 19.3995V82.3271C460.961 90.6274 448.172 97.4799 432.277 97.4799H36.9061Z" fill="#E6E6E6"/>
        <path d="M36.9068 97.1904C21.377 97.1904 8.95312 90.5309 8.95312 82.4236V19.496C8.95312 11.2923 21.5597 4.72928 36.9068 4.72928H432.277C447.624 4.72928 460.231 11.3888 460.231 19.496V82.4236C460.231 90.5309 447.624 97.1904 432.277 97.1904H36.9068Z" fill="#DBDBDB"/>
        <path d="M36.9065 96.8043C21.7421 96.8043 9.50098 90.3378 9.50098 82.3271V19.3995C9.50098 11.3888 21.7421 4.92229 36.9065 4.92229H432.277C447.441 4.92229 459.682 11.3888 459.682 19.3995V82.3271C459.682 90.3378 447.441 96.8043 432.277 96.8043H36.9065Z" fill="#D0D0D0"/>
        <path d="M36.9064 96.5148C22.1074 96.5148 10.2317 90.1448 10.2317 82.4236V19.496C10.2317 11.6783 22.2901 5.40486 36.9064 5.40486H432.277C447.076 5.40486 458.952 11.7748 458.952 19.496V82.4236C458.952 90.2413 446.893 96.5148 432.277 96.5148H36.9064Z" fill="#C5C5C5"/>
        <path d="M36.9064 96.1287C22.4728 96.1287 10.7798 89.9518 10.7798 82.3271V19.3995C10.7798 11.7748 22.4728 5.5979 36.9064 5.5979H432.277C446.71 5.5979 458.403 11.7748 458.403 19.3995V82.3271C458.403 89.9518 446.71 96.1287 432.277 96.1287H36.9064Z" fill="#BABABA"/>
        <path d="M36.9063 95.7426C22.8381 95.7426 11.5105 89.7587 11.5105 82.3271V19.3995C11.5105 11.9679 23.0208 5.98395 36.9063 5.98395H432.277C446.345 5.98395 457.672 12.0644 457.672 19.3995V82.3271C457.672 89.7587 446.345 95.7426 432.277 95.7426H36.9063Z" fill="#AFAFAF"/>
        <path d="M36.9065 95.4531C23.2038 95.4531 12.0588 89.5657 12.0588 82.3271V19.3995C12.0588 12.1609 23.2038 6.27348 36.9065 6.27348H432.277C445.98 6.27348 457.125 12.1609 457.125 19.3995V82.3271C457.125 89.5657 445.98 95.4531 432.277 95.4531H36.9065Z" fill="#A4A4A4"/>
        <path d="M36.9067 95.1636C23.5693 95.1636 12.7898 89.4692 12.7898 82.4236V19.496C12.7898 12.4504 23.5693 6.75606 36.9067 6.75606H432.277C445.614 6.75606 456.394 12.4504 456.394 19.496V82.4236C456.394 89.4692 445.614 95.1636 432.277 95.1636H36.9067Z" fill="#999999"/>
        <path d="M36.9064 94.7775C23.9345 94.7775 13.3376 89.1796 13.3376 82.3271V19.3995C13.3376 12.5469 23.9345 6.9491 36.9064 6.9491H432.277C445.249 6.9491 455.846 12.5469 455.846 19.3995V82.3271C455.846 89.1796 445.249 94.7775 432.277 94.7775H36.9064Z" fill="#8E8E8E"/>
        <path d="M36.9063 94.488C24.2998 94.488 14.0684 89.0831 14.0684 82.4236V19.496C14.0684 12.8365 24.2998 7.43167 36.9063 7.43167H432.277C444.883 7.43167 455.115 12.8365 455.115 19.496V82.4236C455.115 89.0831 444.883 94.488 432.277 94.488H36.9063Z" fill="#838383"/>
        <path d="M36.9063 94.1019C24.6652 94.1019 14.6165 88.7936 14.6165 82.3271V19.3995C14.6165 12.933 24.6652 7.62473 36.9063 7.62473H432.277C444.518 7.62473 454.567 12.933 454.567 19.3995V82.3271C454.567 88.7936 444.518 94.1019 432.277 94.1019H36.9063Z" fill="#787878"/>
        <path d="M36.9067 93.8124C25.0309 93.8124 15.3477 88.6971 15.3477 82.4236V19.496C15.3477 13.2226 25.0309 8.1073 36.9067 8.1073H432.277C444.153 8.1073 453.836 13.2226 453.836 19.496V82.4236C453.836 88.6971 444.153 93.8124 432.277 93.8124H36.9067Z" fill="#6D6D6D"/>
        <path d="M36.9059 93.4263C25.3956 93.4263 15.895 88.504 15.895 82.3271V19.3995C15.895 13.3191 25.3956 8.30031 36.9059 8.30031H432.276C443.787 8.30031 453.287 13.3191 453.287 19.3995V82.3271C453.287 88.4075 443.969 93.4263 432.276 93.4263H36.9059Z" fill="#626262"/>
        <path d="M36.9066 93.1367C25.7616 93.1367 16.6265 88.311 16.6265 82.4236V19.496C16.6265 13.6086 25.7616 8.78288 36.9066 8.78288H432.277C443.422 8.78288 452.557 13.6086 452.557 19.496V82.4236C452.557 88.311 443.422 93.1367 432.277 93.1367H36.9066Z" fill="#575757"/>
        <path d="M36.9063 92.7507C25.9441 92.7507 17.1743 88.118 17.1743 82.3271V19.3995C17.1743 13.7051 25.9441 8.97592 36.9063 8.97592H432.277C443.056 8.97592 452.009 13.6086 452.009 19.3995V82.3271C452.009 88.0215 443.239 92.7507 432.277 92.7507H36.9063Z" fill="#4D4D4D"/>
        <path d="M36.9062 92.4612C26.3094 92.4612 17.905 87.925 17.905 82.4236V19.496C17.905 13.8982 26.4921 9.4585 36.9062 9.4585H432.277C442.691 9.4585 451.278 13.9947 451.278 19.496V82.4236C451.278 87.925 442.691 92.4612 432.277 92.4612H36.9062Z" fill="#424242"/>
        <path d="M36.9062 92.0751C26.6748 92.0751 18.4531 87.7319 18.4531 82.3271V19.3995C18.4531 13.9947 26.6748 9.6515 36.9062 9.6515H432.277C442.508 9.6515 450.73 13.9947 450.73 19.3995V82.3271C450.73 87.6354 442.508 92.0751 432.277 92.0751H36.9062Z" fill="#373737"/>
        <path d="M36.9061 91.7855C27.0401 91.7855 19.1838 87.5389 19.1838 82.4236V19.496C19.1838 14.2842 27.2228 10.1341 36.9061 10.1341H432.277C442.143 10.1341 449.999 14.3807 449.999 19.496V82.4236C449.999 87.6354 441.96 91.7855 432.277 91.7855H36.9061Z" fill="#2C2C2C"/>
        <path d="M36.9063 91.3995C27.4057 91.3995 19.7322 87.3459 19.7322 82.3271V19.3995C19.7322 14.3807 27.4057 10.3271 36.9063 10.3271H432.277C441.777 10.3271 449.451 14.3807 449.451 19.3995V82.3271C449.451 87.3459 441.777 91.3995 432.277 91.3995H36.9063Z" fill="#212121"/>
        <path d="M36.9065 91.11C27.7713 91.11 20.4631 87.2494 20.4631 82.4236V19.496C20.4631 14.6703 27.954 10.8097 36.9065 10.8097H432.277C441.412 10.8097 448.72 14.7668 448.72 19.496V82.4236C448.72 87.2494 441.412 91.11 432.277 91.11H36.9065Z" fill="#161616"/>
        <path d="M36.9062 90.7239C28.1364 90.7239 21.011 86.9598 21.011 82.3271V19.3995C21.011 14.7668 28.1364 11.0027 36.9062 11.0027H432.277C441.046 11.0027 448.172 14.7668 448.172 19.3995V82.3271C448.172 86.9598 441.046 90.7239 432.277 90.7239H36.9062Z" fill="#0B0B0B"/>
        <path d="M36.9066 90.4344C28.5022 90.4344 21.7422 86.8633 21.7422 82.4236V19.496C21.7422 15.0564 28.5022 11.4853 36.9066 11.4853H432.277C440.681 11.4853 447.441 15.0564 447.441 19.496V82.4236C447.441 86.8633 440.681 90.4344 432.277 90.4344H36.9066Z" fill="black"/>
    </mask>
    <g mask="url(#mask1)">
        <path opacity="0.9" d="M36.9061 97.4799C21.0109 97.4799 8.22168 90.7239 8.22168 82.3271V19.3995C8.22168 11.0992 21.0109 4.24669 36.9061 4.24669H432.277C447.989 4.24669 460.961 11.0027 460.961 19.3995V82.3271C460.961 90.6274 448.172 97.4799 432.277 97.4799H36.9061ZM432.277 90.4343C440.681 90.4343 447.441 86.8633 447.441 82.4236V19.496C447.441 15.0563 440.681 11.4853 432.277 11.4853H36.9061C28.5018 11.4853 21.7417 15.0563 21.7417 19.496V82.4236C21.7417 86.8633 28.5018 90.4343 36.9061 90.4343H432.277Z" fill="url(#paint4_linear)"/>
    </g>
    <path opacity="0.15" d="M448.902 29.5335C448.902 49.9947 361.387 57.7158 234.409 57.7158C107.612 57.7158 19.9146 50.0912 19.9146 29.5335C19.9146 24.3217 19.9146 23.3566 19.9146 23.3566C19.9146 14.6703 33.2519 10.9062 49.6952 10.9062H419.122C435.565 10.9062 448.902 14.7668 448.902 23.3566C448.902 23.3566 448.902 24.3217 448.902 29.5335Z" fill="white"/>
    <defs>
        <linearGradient id="paint0_linear" x1="234.533" y1="101.821" x2="234.533" y2="-0.00395715" gradientUnits="userSpaceOnUse">
            <stop stop-color="#969696"/>
            <stop offset="0.061019" stop-color="#848484"/>
            <stop offset="0.1835" stop-color="#545454"/>
            <stop offset="0.2" stop-color="#4D4D4D"/>
            <stop offset="0.2239" stop-color="#535353"/>
            <stop offset="0.2553" stop-color="#636363"/>
            <stop offset="0.2907" stop-color="#7E7E7E"/>
            <stop offset="0.3292" stop-color="#A4A4A4"/>
            <stop offset="0.3696" stop-color="#D4D4D4"/>
            <stop offset="0.4" stop-color="#FDFDFD"/>
            <stop offset="0.6" stop-color="#C1C1C1"/>
            <stop offset="0.8" stop-color="#FDFDFD"/>
            <stop offset="1" stop-color="#969696"/>
        </linearGradient>
        <linearGradient id="paint1_linear" x1="234.534" y1="0.554973" x2="234.534" y2="101.262" gradientUnits="userSpaceOnUse">
            <stop stop-color="#F0F0F0"/>
            <stop offset="0.0328408" stop-color="#DEDEDE"/>
            <stop offset="0.0990913" stop-color="#AEAEAE"/>
            <stop offset="0.192" stop-color="#616161"/>
            <stop offset="0.2" stop-color="#5A5A5A"/>
            <stop offset="0.2251" stop-color="#606060"/>
            <stop offset="0.258" stop-color="#707070"/>
            <stop offset="0.2951" stop-color="#8B8B8B"/>
            <stop offset="0.3355" stop-color="#B1B1B1"/>
            <stop offset="0.3779" stop-color="#E1E1E1"/>
            <stop offset="0.4" stop-color="#FDFDFD"/>
            <stop offset="0.6" stop-color="#C1C1C1"/>
            <stop offset="0.8" stop-color="#FDFDFD"/>
            <stop offset="1" stop-color="#464646"/>
        </linearGradient>
        <linearGradient id="paint2_linear" x1="7.10704" y1="50.908" x2="461.961" y2="50.908" gradientUnits="userSpaceOnUse">
            <stop stop-color="#F0F0F0"/>
            <stop offset="0.0328408" stop-color="#DEDEDE"/>
            <stop offset="0.0990913" stop-color="#AEAEAE"/>
            <stop offset="0.192" stop-color="#616161"/>
            <stop offset="0.2" stop-color="#5A5A5A"/>
            <stop offset="0.2251" stop-color="#606060"/>
            <stop offset="0.258" stop-color="#707070"/>
            <stop offset="0.2951" stop-color="#8B8B8B"/>
            <stop offset="0.3355" stop-color="#B1B1B1"/>
            <stop offset="0.3779" stop-color="#E1E1E1"/>
            <stop offset="0.4" stop-color="#FDFDFD"/>
            <stop offset="0.6" stop-color="#C1C1C1"/>
            <stop offset="0.8" stop-color="#FDFDFD"/>
            <stop offset="1" stop-color="#464646"/>
        </linearGradient>
        <linearGradient id="paint3_linear" x1="234.535" y1="4.33728" x2="234.535" y2="97.4797" gradientUnits="userSpaceOnUse">
            <stop stop-color="#FEDE84"/>
            <stop offset="0.5" stop-color="#FFC80E"/>
            <stop offset="1" stop-color="#FB8400"/>
        </linearGradient>
        <linearGradient id="paint4_linear" x1="229.023" y1="97" x2="235.049" y2="-1.99691" gradientUnits="userSpaceOnUse">
            <stop stop-color="#976819"/>
            <stop offset="1" stop-color="#B98021" stop-opacity="0.17"/>
        </linearGradient>
    </defs>
</svg>
