<svg width="567" height="108" viewBox="0 0 567 108" fill="none" xmlns="http://www.w3.org/2000/svg">
    <mask id="mask0" mask-type="alpha" maskUnits="userSpaceOnUse" x="0" y="0" width="567" height="108">
        <path d="M529.671 108H37.3288C16.7869 108 0 100.665 0 91.6888V22.4877C0 13.5119 16.7869 6.17676 37.3288 6.17676H529.671C550.213 6.17676 567 13.5119 567 22.4877V91.6888C567 100.665 550.213 108 529.671 108Z" fill="black"/>
        <path d="M529.671 107.807H37.3288C16.7869 107.807 0 100.472 0 91.4959V22.2949C0 13.319 16.7869 5.98389 37.3288 5.98389H529.671C550.213 5.98389 567 13.319 567 22.2949V91.4959C567 100.472 550.213 107.807 529.671 107.807Z" fill="#080808"/>
        <path d="M529.671 107.517H37.3288C16.7869 107.517 0 100.182 0 91.2064V22.0053C0 13.0294 16.7869 5.69434 37.3288 5.69434H529.671C550.213 5.69434 567 13.0294 567 22.0053V91.2064C567 100.279 550.213 107.517 529.671 107.517Z" fill="#101010"/>
        <path d="M529.671 107.325H37.3288C16.7869 107.325 0 99.9894 0 91.0135V21.8124C0 12.8366 16.7869 5.50146 37.3288 5.50146H529.671C550.213 5.50146 567 12.8366 567 21.8124V91.0135C567 99.9894 550.213 107.325 529.671 107.325Z" fill="#181818"/>
        <path d="M529.671 107.035H37.3288C16.7869 107.035 0 99.6998 0 90.7239V21.5229C0 12.547 16.7869 5.21191 37.3288 5.21191H529.671C550.213 5.21191 567 12.547 567 21.5229V90.7239C567 99.7963 550.213 107.035 529.671 107.035Z" fill="#1F1F1F"/>
        <path d="M529.671 106.842H37.3288C16.7869 106.842 0 99.5065 0 90.5306V21.3295C0 12.3537 16.7869 5.01855 37.3288 5.01855H529.671C550.213 5.01855 567 12.3537 567 21.3295V90.5306C567 99.5065 550.213 106.842 529.671 106.842Z" fill="#272727"/>
        <path d="M529.671 106.553H37.3288C16.7869 106.553 0 99.2174 0 90.2415V21.0405C0 12.0646 16.7869 4.72949 37.3288 4.72949H529.671C550.213 4.72949 567 12.0646 567 21.0405V90.2415C567 99.3139 550.213 106.553 529.671 106.553Z" fill="#2F2F2F"/>
        <path d="M529.671 106.359H37.3288C16.7869 106.359 0 99.0241 0 90.0482V20.8471C0 11.8712 16.7869 4.53613 37.3288 4.53613H529.671C550.213 4.53613 567 11.8712 567 20.8471V90.0482C567 99.0241 550.213 106.359 529.671 106.359Z" fill="#373737"/>
        <path d="M529.671 106.07H37.3288C16.7869 106.07 0 98.7345 0 89.7586V20.5576C0 11.5817 16.7869 4.24658 37.3288 4.24658H529.671C550.213 4.24658 567 11.5817 567 20.5576V89.7586C567 98.831 550.213 106.07 529.671 106.07Z" fill="#3F3F3F"/>
        <path d="M529.671 105.877H37.3288C16.7869 105.877 0 98.5416 0 89.5658V20.3647C0 11.3888 16.7869 4.05371 37.3288 4.05371H529.671C550.213 4.05371 567 11.3888 567 20.3647V89.5658C567 98.5416 550.213 105.877 529.671 105.877Z" fill="#474747"/>
        <path d="M529.671 105.683H37.3288C16.7869 105.683 0 98.3483 0 89.3724V20.1714C0 11.1955 16.7869 3.86035 37.3288 3.86035H529.671C550.213 3.86035 567 11.1955 567 20.1714V89.3724C567 98.3483 550.213 105.683 529.671 105.683Z" fill="#4E4E4E"/>
        <path d="M529.671 105.394H37.3288C16.7869 105.394 0 98.0592 0 89.0833V19.8823C0 10.9064 16.7869 3.57129 37.3288 3.57129H529.671C550.213 3.57129 567 10.9064 567 19.8823V89.0833C567 98.0592 550.213 105.394 529.671 105.394Z" fill="#565656"/>
        <path d="M529.671 105.201H37.3288C16.7869 105.201 0 97.8659 0 88.89V19.6889C0 10.7131 16.7869 3.37793 37.3288 3.37793H529.671C550.213 3.37793 567 10.7131 567 19.6889V88.89C567 97.8659 550.213 105.201 529.671 105.201Z" fill="#5E5E5E"/>
        <path d="M529.671 104.911H37.3288C16.7869 104.911 0 97.5763 0 88.6004V19.3994C0 10.4235 16.7869 3.08838 37.3288 3.08838H529.671C550.213 3.08838 567 10.4235 567 19.3994V88.6004C567 97.5763 550.213 104.911 529.671 104.911Z" fill="#666666"/>
        <path d="M529.671 104.719H37.3288C16.7869 104.719 0 97.3834 0 88.4076V19.2065C0 10.2307 16.7869 2.89551 37.3288 2.89551H529.671C550.213 2.89551 567 10.2307 567 19.2065V88.4076C567 97.3834 550.213 104.719 529.671 104.719Z" fill="#6E6E6E"/>
        <path d="M529.671 104.429H37.3288C16.7869 104.429 0 97.0939 0 88.118V18.9169C0 9.94107 16.7869 2.60596 37.3288 2.60596H529.671C550.213 2.60596 567 9.94107 567 18.9169V88.118C567 97.0939 550.213 104.429 529.671 104.429Z" fill="#767676"/>
        <path d="M529.671 104.236H37.3288C16.7869 104.236 0 96.901 0 87.9251V18.7241C0 9.74823 16.7869 2.41309 37.3288 2.41309H529.671C550.213 2.41309 567 9.74823 567 18.7241V87.9251C567 96.901 550.213 104.236 529.671 104.236Z" fill="#7E7E7E"/>
        <path d="M529.671 103.947H37.3288C16.7869 103.947 0 96.6115 0 87.6356V18.4345C0 9.45865 16.7869 2.12354 37.3288 2.12354H529.671C550.213 2.12354 567 9.45865 567 18.4345V87.6356C567 96.6115 550.213 103.947 529.671 103.947Z" fill="#858585"/>
        <path d="M529.671 103.753H37.3288C16.7869 103.753 0 96.4181 0 87.4422V18.2412C0 9.26532 16.7869 1.93018 37.3288 1.93018H529.671C550.213 1.93018 567 9.26532 567 18.2412V87.4422C567 96.4181 550.213 103.753 529.671 103.753Z" fill="#8D8D8D"/>
        <path d="M529.671 103.464H37.3288C16.7869 103.464 0 96.1285 0 87.1527V17.9516C0 8.97574 16.7869 1.64062 37.3288 1.64062H529.671C550.213 1.64062 567 8.97574 567 17.9516V87.1527C567 96.1285 550.213 103.464 529.671 103.464Z" fill="#959595"/>
        <path d="M529.671 103.271H37.3288C16.7869 103.271 0 95.9357 0 86.9598V17.7588C0 8.7829 16.7869 1.44775 37.3288 1.44775H529.671C550.213 1.44775 567 8.7829 567 17.7588V86.9598C567 95.9357 550.213 103.271 529.671 103.271Z" fill="#9D9D9D"/>
        <path d="M529.671 102.981H37.3288C16.7869 102.981 0 95.6461 0 86.6703V17.4692C0 8.49332 16.7869 1.1582 37.3288 1.1582H529.671C550.213 1.1582 567 8.49332 567 17.4692V86.6703C567 95.7426 550.213 102.981 529.671 102.981Z" fill="#A5A5A5"/>
        <path d="M529.671 102.788H37.3288C16.7869 102.788 0 95.4533 0 86.4774V17.2763C0 8.30047 16.7869 0.965332 37.3288 0.965332H529.671C550.213 0.965332 567 8.30047 567 17.2763V86.4774C567 95.4533 550.213 102.788 529.671 102.788Z" fill="#ADADAD"/>
        <path d="M529.671 102.499H37.3288C16.7869 102.499 0 95.1637 0 86.1878V16.9868C0 8.01089 16.7869 0.675781 37.3288 0.675781H529.671C550.213 0.675781 567 8.01089 567 16.9868V86.1878C567 95.2602 550.213 102.499 529.671 102.499Z" fill="#B4B4B4"/>
        <path d="M529.671 102.305H37.3288C16.7869 102.305 0 94.9703 0 85.9945V16.7934C0 7.81756 16.7869 0.482422 37.3288 0.482422H529.671C550.213 0.482422 567 7.81756 567 16.7934V85.9945C567 94.9703 550.213 102.305 529.671 102.305Z" fill="#BCBCBC"/>
        <path d="M529.671 102.016H37.3288C16.7869 102.016 0 94.6808 0 85.7049V16.5039C0 7.52798 16.7869 0.192871 37.3288 0.192871H529.671C550.213 0.192871 567 7.52798 567 16.5039V85.7049C567 94.7773 550.213 102.016 529.671 102.016Z" fill="#C4C4C4"/>
        <path d="M529.671 101.823H37.3288C16.7869 101.823 0 94.4879 0 85.5121V16.311C0 7.33514 16.7869 0 37.3288 0H529.671C550.213 0 567 7.33514 567 16.311V85.5121C567 94.4879 550.213 101.823 529.671 101.823Z" fill="#CCCCCC"/>
    </mask>
    <g mask="url(#mask0)">
        <path d="M529.671 108H37.3288C16.7869 108 0 100.665 0 91.6888V22.4877C0 13.5119 16.7869 6.17676 37.3288 6.17676H529.671C550.213 6.17676 567 13.5119 567 22.4877V91.6888C567 100.665 550.213 108 529.671 108Z" fill="#4D4D4D"/>
        <path d="M37.3288 101.823C16.7869 101.823 0 94.4879 0 85.5121V16.311C0 7.33514 16.7869 0 37.3288 0H529.671C550.213 0 567 7.33514 567 16.311V85.5121C567 94.4879 550.213 101.823 529.671 101.823H37.3288Z" fill="url(#paint0_linear)"/>
        <path d="M529.671 101.244C549.55 101.244 565.675 94.1984 565.675 85.5121V16.311C565.675 7.62469 549.55 0.579102 529.671 0.579102H37.3287C17.4495 0.579102 1.3252 7.62469 1.3252 16.311V85.5121C1.3252 94.1984 17.4495 101.244 37.3287 101.244H529.671Z" fill="url(#paint1_linear)"/>
        <path d="M44.6178 98.0589C24.7385 98.0589 8.61426 91.0133 8.61426 82.327V19.3994C8.61426 10.713 24.7385 3.66748 44.6178 3.66748H522.603C542.482 3.66748 558.606 10.713 558.606 19.3994V82.327C558.606 91.0133 542.482 98.0589 522.603 98.0589H44.6178Z" fill="url(#paint2_linear)"/>
        <path d="M522.603 4.34326H44.6179C25.4013 4.34326 9.9397 11.0993 9.9397 19.4961V82.4237C9.9397 90.724 25.4013 97.5765 44.6179 97.5765H522.603C541.599 97.5765 557.281 90.8205 557.281 82.4237V19.4961C557.06 11.0993 541.599 4.34326 522.603 4.34326Z" fill="url(#paint3_linear)"/>
    </g>
    <mask id="mask1" mask-type="alpha" maskUnits="userSpaceOnUse" x="9" y="4" width="549" height="94">
        <path d="M44.6179 97.4798C25.4013 97.4798 9.9397 90.7238 9.9397 82.327V19.3994C9.9397 11.0991 25.4013 4.24658 44.6179 4.24658H522.603C541.599 4.24658 557.281 11.0026 557.281 19.3994V82.327C557.281 90.6273 541.82 97.4798 522.603 97.4798H44.6179Z" fill="#E6E6E6"/>
        <path d="M44.6186 97.1901C25.8437 97.1901 10.8239 90.5306 10.8239 82.4234V19.4957C10.8239 11.292 26.0646 4.729 44.6186 4.729H522.604C541.158 4.729 556.398 11.3885 556.398 19.4957V82.4234C556.398 90.5306 541.158 97.1901 522.604 97.1901H44.6186Z" fill="#DBDBDB"/>
        <path d="M44.6184 96.8044C26.2853 96.8044 11.4863 90.3379 11.4863 82.3272V19.3996C11.4863 11.3888 26.2853 4.92236 44.6184 4.92236H522.604C540.937 4.92236 555.736 11.3888 555.736 19.3996V82.3272C555.736 90.3379 540.937 96.8044 522.604 96.8044H44.6184Z" fill="#D0D0D0"/>
        <path d="M44.6179 96.5147C26.7266 96.5147 12.3694 90.1447 12.3694 82.4236V19.4959C12.3694 11.6782 26.9475 5.40479 44.6179 5.40479H522.603C540.494 5.40479 554.852 11.7748 554.852 19.4959V82.4236C554.852 90.2412 540.274 96.5147 522.603 96.5147H44.6179Z" fill="#C5C5C5"/>
        <path d="M44.6181 96.1285C27.1686 96.1285 13.0322 89.9515 13.0322 82.3269V19.3993C13.0322 11.7746 27.1686 5.59766 44.6181 5.59766H522.603C540.053 5.59766 554.189 11.7746 554.189 19.3993V82.3269C554.189 89.9515 540.053 96.1285 522.603 96.1285H44.6181Z" fill="#BABABA"/>
        <path d="M44.618 95.7426C27.6102 95.7426 13.9156 89.7587 13.9156 82.327V19.3994C13.9156 11.9678 27.8311 5.98389 44.618 5.98389H522.603C539.611 5.98389 553.306 12.0643 553.306 19.3994V82.327C553.306 89.7587 539.611 95.7426 522.603 95.7426H44.618Z" fill="#AFAFAF"/>
        <path d="M44.6181 95.4531C28.0521 95.4531 14.5784 89.5657 14.5784 82.3271V19.3994C14.5784 12.1608 28.0521 6.27344 44.6181 6.27344H522.603C539.169 6.27344 552.643 12.1608 552.643 19.3994V82.3271C552.643 89.5657 539.169 95.4531 522.603 95.4531H44.6181Z" fill="#A4A4A4"/>
        <path d="M44.6184 95.1634C28.4941 95.1634 15.4622 89.469 15.4622 82.4234V19.4958C15.4622 12.4502 28.4941 6.75586 44.6184 6.75586H522.603C538.728 6.75586 551.76 12.4502 551.76 19.4958V82.4234C551.76 89.469 538.728 95.1634 522.603 95.1634H44.6184Z" fill="#999999"/>
        <path d="M44.6182 94.7776C28.9357 94.7776 16.1246 89.1798 16.1246 82.3272V19.3996C16.1246 12.5471 28.9357 6.94922 44.6182 6.94922H522.603C538.286 6.94922 551.097 12.5471 551.097 19.3996V82.3272C551.097 89.1798 538.286 94.7776 522.603 94.7776H44.6182Z" fill="#8E8E8E"/>
        <path d="M44.6181 94.4879C29.3774 94.4879 17.0081 89.0831 17.0081 82.4236V19.496C17.0081 12.8365 29.3774 7.43164 44.6181 7.43164H522.603C537.844 7.43164 550.213 12.8365 550.213 19.496V82.4236C550.213 89.0831 537.844 94.4879 522.603 94.4879H44.6181Z" fill="#838383"/>
        <path d="M44.6179 94.1017C29.819 94.1017 17.6705 88.7934 17.6705 82.3269V19.3993C17.6705 12.9328 29.819 7.62451 44.6179 7.62451H522.603C537.402 7.62451 549.551 12.9328 549.551 19.3993V82.3269C549.551 88.7934 537.402 94.1017 522.603 94.1017H44.6179Z" fill="#787878"/>
        <path d="M44.6182 93.8125C30.261 93.8125 18.5543 88.6972 18.5543 82.4238V19.4961C18.5543 13.2227 30.261 8.10742 44.6182 8.10742H522.603C536.961 8.10742 548.667 13.2227 548.667 19.4961V82.4238C548.667 88.6972 536.961 93.8125 522.603 93.8125H44.6182Z" fill="#6D6D6D"/>
        <path d="M44.618 93.4263C30.7026 93.4263 19.2168 88.504 19.2168 82.3271V19.3995C19.2168 13.3191 30.7026 8.30029 44.618 8.30029H522.603C536.519 8.30029 548.004 13.3191 548.004 19.3995V82.3271C548.004 88.4075 536.74 93.4263 522.603 93.4263H44.618Z" fill="#626262"/>
        <path d="M44.6183 93.1366C31.1446 93.1366 20.1006 88.3109 20.1006 82.4235V19.4959C20.1006 13.6085 31.1446 8.78271 44.6183 8.78271H522.603C536.077 8.78271 547.121 13.6085 547.121 19.4959V82.4235C547.121 88.3109 536.077 93.1366 522.603 93.1366H44.6183Z" fill="#575757"/>
        <path d="M44.618 92.7504C31.3652 92.7504 20.7629 88.1177 20.7629 82.3268V19.3992C20.7629 13.7048 31.3652 8.97559 44.618 8.97559H522.603C535.635 8.97559 546.458 13.6083 546.458 19.3992V82.3268C546.458 88.0211 535.856 92.7504 522.603 92.7504H44.618Z" fill="#4D4D4D"/>
        <path d="M44.618 92.4612C31.807 92.4612 21.6465 87.925 21.6465 82.4236V19.496C21.6465 13.8982 32.0279 9.4585 44.618 9.4585H522.603C535.193 9.4585 545.575 13.9947 545.575 19.496V82.4236C545.575 87.925 535.193 92.4612 522.603 92.4612H44.618Z" fill="#424242"/>
        <path d="M44.6179 92.075C32.2486 92.075 22.309 87.7318 22.309 82.327V19.3994C22.309 13.9945 32.2486 9.65137 44.6179 9.65137H522.603C534.972 9.65137 544.912 13.9945 544.912 19.3994V82.327C544.912 87.6353 534.972 92.075 522.603 92.075H44.6179Z" fill="#373737"/>
        <path d="M44.618 91.7853C32.6905 91.7853 23.1926 87.5386 23.1926 82.4233V19.4957C23.1926 14.2839 32.9114 10.1338 44.618 10.1338H522.603C534.531 10.1338 544.029 14.3804 544.029 19.4957V82.4233C544.029 87.6351 534.31 91.7853 522.603 91.7853H44.618Z" fill="#2C2C2C"/>
        <path d="M44.6182 91.3995C33.1324 91.3995 23.8555 87.3459 23.8555 82.3271V19.3995C23.8555 14.3808 33.1324 10.3271 44.6182 10.3271H522.603C534.089 10.3271 543.366 14.3808 543.366 19.3995V82.3271C543.366 87.3459 534.089 91.3995 522.603 91.3995H44.6182Z" fill="#212121"/>
        <path d="M44.6181 91.1098C33.5741 91.1098 24.7389 87.2492 24.7389 82.4235V19.4959C24.7389 14.6702 33.795 10.8096 44.6181 10.8096H522.603C533.647 10.8096 542.483 14.7667 542.483 19.4959V82.4235C542.483 87.2492 533.647 91.1098 522.603 91.1098H44.6181Z" fill="#161616"/>
        <path d="M44.6182 90.7236C34.0159 90.7236 25.4016 86.9595 25.4016 82.3268V19.3992C25.4016 14.7665 34.0159 11.0024 44.6182 11.0024H522.603C533.206 11.0024 541.82 14.7665 541.82 19.3992V82.3268C541.82 86.9595 533.206 90.7236 522.603 90.7236H44.6182Z" fill="#0B0B0B"/>
        <path d="M44.6185 90.4344C34.458 90.4344 26.2854 86.8633 26.2854 82.4237V19.4961C26.2854 15.0564 34.458 11.4854 44.6185 11.4854H522.604C532.764 11.4854 540.937 15.0564 540.937 19.4961V82.4237C540.937 86.8633 532.764 90.4344 522.604 90.4344H44.6185Z" fill="black"/>
    </mask>
    <g mask="url(#mask1)">
        <path opacity="0.9" d="M44.6179 97.4798C25.4013 97.4798 9.9397 90.7238 9.9397 82.327V19.3994C9.9397 11.0991 25.4013 4.24658 44.6179 4.24658H522.603C541.599 4.24658 557.281 11.0026 557.281 19.3994V82.327C557.281 90.6273 541.82 97.4798 522.603 97.4798H44.6179ZM522.603 90.4342C532.764 90.4342 540.936 86.8632 540.936 82.4235V19.4959C540.936 15.0562 532.764 11.4852 522.603 11.4852H44.6179C34.4574 11.4852 26.2848 15.0562 26.2848 19.4959V82.4235C26.2848 86.8632 34.4574 90.4342 44.6179 90.4342H522.603Z" fill="url(#paint4_linear)"/>
    </g>
    <path opacity="0.15" d="M542.703 29.5336C542.703 49.9947 436.901 57.7159 283.389 57.7159C130.098 57.7159 24.0758 50.0912 24.0758 29.5336C24.0758 24.3218 24.0758 23.3566 24.0758 23.3566C24.0758 14.6703 40.2001 10.9062 60.0793 10.9062H506.699C526.579 10.9062 542.703 14.7668 542.703 23.3566C542.703 23.3566 542.703 24.3218 542.703 29.5336Z" fill="white"/>
    <defs>
        <linearGradient id="paint0_linear" x1="283.54" y1="101.821" x2="283.54" y2="-0.00395715" gradientUnits="userSpaceOnUse">
            <stop stop-color="#969696"/>
            <stop offset="0.061019" stop-color="#848484"/>
            <stop offset="0.1835" stop-color="#545454"/>
            <stop offset="0.2" stop-color="#4D4D4D"/>
            <stop offset="0.2239" stop-color="#535353"/>
            <stop offset="0.2553" stop-color="#636363"/>
            <stop offset="0.2907" stop-color="#7E7E7E"/>
            <stop offset="0.3292" stop-color="#A4A4A4"/>
            <stop offset="0.3696" stop-color="#D4D4D4"/>
            <stop offset="0.4" stop-color="#FDFDFD"/>
            <stop offset="0.6" stop-color="#C1C1C1"/>
            <stop offset="0.8" stop-color="#FDFDFD"/>
            <stop offset="1" stop-color="#969696"/>
        </linearGradient>
        <linearGradient id="paint1_linear" x1="283.541" y1="0.554973" x2="283.541" y2="101.262" gradientUnits="userSpaceOnUse">
            <stop stop-color="#F0F0F0"/>
            <stop offset="0.0328408" stop-color="#DEDEDE"/>
            <stop offset="0.0990913" stop-color="#AEAEAE"/>
            <stop offset="0.192" stop-color="#616161"/>
            <stop offset="0.2" stop-color="#5A5A5A"/>
            <stop offset="0.2251" stop-color="#606060"/>
            <stop offset="0.258" stop-color="#707070"/>
            <stop offset="0.2951" stop-color="#8B8B8B"/>
            <stop offset="0.3355" stop-color="#B1B1B1"/>
            <stop offset="0.3779" stop-color="#E1E1E1"/>
            <stop offset="0.4" stop-color="#FDFDFD"/>
            <stop offset="0.6" stop-color="#C1C1C1"/>
            <stop offset="0.8" stop-color="#FDFDFD"/>
            <stop offset="1" stop-color="#464646"/>
        </linearGradient>
        <linearGradient id="paint2_linear" x1="8.59195" y1="50.908" x2="558.49" y2="50.908" gradientUnits="userSpaceOnUse">
            <stop stop-color="#F0F0F0"/>
            <stop offset="0.0328408" stop-color="#DEDEDE"/>
            <stop offset="0.0990913" stop-color="#AEAEAE"/>
            <stop offset="0.192" stop-color="#616161"/>
            <stop offset="0.2" stop-color="#5A5A5A"/>
            <stop offset="0.2251" stop-color="#606060"/>
            <stop offset="0.258" stop-color="#707070"/>
            <stop offset="0.2951" stop-color="#8B8B8B"/>
            <stop offset="0.3355" stop-color="#B1B1B1"/>
            <stop offset="0.3779" stop-color="#E1E1E1"/>
            <stop offset="0.4" stop-color="#FDFDFD"/>
            <stop offset="0.6" stop-color="#C1C1C1"/>
            <stop offset="0.8" stop-color="#FDFDFD"/>
            <stop offset="1" stop-color="#464646"/>
        </linearGradient>
        <linearGradient id="paint3_linear" x1="283.542" y1="4.33737" x2="283.542" y2="97.4798" gradientUnits="userSpaceOnUse">
            <stop stop-color="#FEDE84"/>
            <stop offset="0.5" stop-color="#FFC80E"/>
            <stop offset="1" stop-color="#FB8400"/>
        </linearGradient>
        <linearGradient id="paint4_linear" x1="276.879" y1="96.9999" x2="281.869" y2="-2.11254" gradientUnits="userSpaceOnUse">
            <stop stop-color="#976819"/>
            <stop offset="1" stop-color="#B98021" stop-opacity="0.17"/>
        </linearGradient>
    </defs>
</svg>
