<svg width="136" height="72" viewBox="0 0 136 72" fill="none" xmlns="http://www.w3.org/2000/svg">
    <mask id="mask0" mask-type="alpha" maskUnits="userSpaceOnUse" x="0" y="0" width="136" height="72">
        <path d="M127.046 72H8.95364C4.02649 72 0 67.1099 0 61.126V14.992C0 9.00806 4.02649 4.11798 8.95364 4.11798H127.046C131.974 4.11798 136 9.00806 136 14.992V61.126C136 67.1099 131.974 72 127.046 72Z" fill="black"/>
        <path d="M127.046 71.8713H8.95364C4.02649 71.8713 0 66.9812 0 60.9973V14.8632C0 8.87933 4.02649 3.98926 8.95364 3.98926H127.046C131.974 3.98926 136 8.87933 136 14.8632V60.9973C136 66.9812 131.974 71.8713 127.046 71.8713Z" fill="#080808"/>
        <path d="M127.046 71.6783H8.95364C4.02649 71.6783 0 66.7882 0 60.8043V14.6703C0 8.68634 4.02649 3.79626 8.95364 3.79626H127.046C131.974 3.79626 136 8.68634 136 14.6703V60.8043C136 66.8525 131.974 71.6783 127.046 71.6783Z" fill="#101010"/>
        <path d="M127.046 71.5496H8.95364C4.02649 71.5496 0 66.6596 0 60.6756V14.5416C0 8.55768 4.02649 3.6676 8.95364 3.6676H127.046C131.974 3.6676 136 8.55768 136 14.5416V60.6756C136 66.6596 131.974 71.5496 127.046 71.5496Z" fill="#181818"/>
        <path d="M127.046 71.3566H8.95364C4.02649 71.3566 0 66.4665 0 60.4826V14.3485C0 8.36462 4.02649 3.47455 8.95364 3.47455H127.046C131.974 3.47455 136 8.36462 136 14.3485V60.4826C136 66.5308 131.974 71.3566 127.046 71.3566Z" fill="#1F1F1F"/>
        <path d="M127.046 71.2279H8.95364C4.02649 71.2279 0 66.3378 0 60.3539V14.2198C0 8.2359 4.02649 3.34583 8.95364 3.34583H127.046C131.974 3.34583 136 8.2359 136 14.2198V60.3539C136 66.3378 131.974 71.2279 127.046 71.2279Z" fill="#272727"/>
        <path d="M127.046 71.0349H8.95364C4.02649 71.0349 0 66.1448 0 60.1609V14.0268C0 8.04291 4.02649 3.15283 8.95364 3.15283H127.046C131.974 3.15283 136 8.04291 136 14.0268V60.1609C136 66.2091 131.974 71.0349 127.046 71.0349Z" fill="#2F2F2F"/>
        <path d="M127.046 70.9062H8.95364C4.02649 70.9062 0 66.0161 0 60.0322V13.8982C0 7.91425 4.02649 3.02417 8.95364 3.02417H127.046C131.974 3.02417 136 7.91425 136 13.8982V60.0322C136 66.0161 131.974 70.9062 127.046 70.9062Z" fill="#373737"/>
        <path d="M127.046 70.7131H8.95364C4.02649 70.7131 0 65.823 0 59.8391V13.7051C0 7.72119 4.02649 2.83112 8.95364 2.83112H127.046C131.974 2.83112 136 7.72119 136 13.7051V59.8391C136 65.8874 131.974 70.7131 127.046 70.7131Z" fill="#3F3F3F"/>
        <path d="M127.046 70.5844H8.95364C4.02649 70.5844 0 65.6943 0 59.7104V13.5764C0 7.59247 4.02649 2.70239 8.95364 2.70239H127.046C131.974 2.70239 136 7.59247 136 13.5764V59.7104C136 65.6943 131.974 70.5844 127.046 70.5844Z" fill="#474747"/>
        <path d="M127.046 70.4558H8.95364C4.02649 70.4558 0 65.5657 0 59.5818V13.4477C0 7.46383 4.02649 2.57373 8.95364 2.57373H127.046C131.974 2.57373 136 7.46383 136 13.4477V59.5818C136 65.5657 131.974 70.4558 127.046 70.4558Z" fill="#4E4E4E"/>
        <path d="M127.046 70.2628H8.95364C4.02649 70.2628 0 65.3727 0 59.3888V13.2547C0 7.27081 4.02649 2.38074 8.95364 2.38074H127.046C131.974 2.38074 136 7.27081 136 13.2547V59.3888C136 65.3727 131.974 70.2628 127.046 70.2628Z" fill="#565656"/>
        <path d="M127.046 70.134H8.95364C4.02649 70.134 0 65.244 0 59.2601V13.126C0 7.14211 4.02649 2.25201 8.95364 2.25201H127.046C131.974 2.25201 136 7.14211 136 13.126V59.2601C136 65.244 131.974 70.134 127.046 70.134Z" fill="#5E5E5E"/>
        <path d="M127.046 69.941H8.95364C4.02649 69.941 0 65.0509 0 59.067V12.9329C0 6.94904 4.02649 2.05896 8.95364 2.05896H127.046C131.974 2.05896 136 6.94904 136 12.9329V59.067C136 65.0509 131.974 69.941 127.046 69.941Z" fill="#666666"/>
        <path d="M127.046 69.8123H8.95364C4.02649 69.8123 0 64.9222 0 58.9383V12.8043C0 6.82039 4.02649 1.9303 8.95364 1.9303H127.046C131.974 1.9303 136 6.82039 136 12.8043V58.9383C136 64.9222 131.974 69.8123 127.046 69.8123Z" fill="#6E6E6E"/>
        <path d="M127.046 69.6193H8.95364C4.02649 69.6193 0 64.7293 0 58.7453V12.6113C0 6.62738 4.02649 1.7373 8.95364 1.7373H127.046C131.974 1.7373 136 6.62738 136 12.6113V58.7453C136 64.7293 131.974 69.6193 127.046 69.6193Z" fill="#767676"/>
        <path d="M127.046 69.4906H8.95364C4.02649 69.4906 0 64.6005 0 58.6166V12.4826C0 6.49868 4.02649 1.60858 8.95364 1.60858H127.046C131.974 1.60858 136 6.49868 136 12.4826V58.6166C136 64.6005 131.974 69.4906 127.046 69.4906Z" fill="#7E7E7E"/>
        <path d="M127.046 69.2976H8.95364C4.02649 69.2976 0 64.4075 0 58.4236V12.2895C0 6.3056 4.02649 1.41553 8.95364 1.41553H127.046C131.974 1.41553 136 6.3056 136 12.2895V58.4236C136 64.4075 131.974 69.2976 127.046 69.2976Z" fill="#858585"/>
        <path d="M127.046 69.1689H8.95364C4.02649 69.1689 0 64.2788 0 58.2949V12.1609C0 6.17696 4.02649 1.28687 8.95364 1.28687H127.046C131.974 1.28687 136 6.17696 136 12.1609V58.2949C136 64.2788 131.974 69.1689 127.046 69.1689Z" fill="#8D8D8D"/>
        <path d="M127.046 68.9759H8.95364C4.02649 68.9759 0 64.0858 0 58.1019V11.9679C0 5.98395 4.02649 1.09387 8.95364 1.09387H127.046C131.974 1.09387 136 5.98395 136 11.9679V58.1019C136 64.0858 131.974 68.9759 127.046 68.9759Z" fill="#959595"/>
        <path d="M127.046 68.8472H8.95364C4.02649 68.8472 0 63.9571 0 57.9732V11.8392C0 5.85524 4.02649 0.965149 8.95364 0.965149H127.046C131.974 0.965149 136 5.85524 136 11.8392V57.9732C136 63.9571 131.974 68.8472 127.046 68.8472Z" fill="#9D9D9D"/>
        <path d="M127.046 68.6541H8.95364C4.02649 68.6541 0 63.764 0 57.7801V11.6461C0 5.66217 4.02649 0.772095 8.95364 0.772095H127.046C131.974 0.772095 136 5.66217 136 11.6461V57.7801C136 63.8284 131.974 68.6541 127.046 68.6541Z" fill="#A5A5A5"/>
        <path d="M127.046 68.5255H8.95364C4.02649 68.5255 0 63.6354 0 57.6515V11.5174C0 5.53353 4.02649 0.643433 8.95364 0.643433H127.046C131.974 0.643433 136 5.53353 136 11.5174V57.6515C136 63.6354 131.974 68.5255 127.046 68.5255Z" fill="#ADADAD"/>
        <path d="M127.046 68.3325H8.95364C4.02649 68.3325 0 63.4424 0 57.4585V11.3244C0 5.34052 4.02649 0.450439 8.95364 0.450439H127.046C131.974 0.450439 136 5.34052 136 11.3244V57.4585C136 63.5067 131.974 68.3325 127.046 68.3325Z" fill="#B4B4B4"/>
        <path d="M127.046 68.2037H8.95364C4.02649 68.2037 0 63.3137 0 57.3298V11.1957C0 5.21181 4.02649 0.321716 8.95364 0.321716H127.046C131.974 0.321716 136 5.21181 136 11.1957V57.3298C136 63.3137 131.974 68.2037 127.046 68.2037Z" fill="#BCBCBC"/>
        <path d="M127.046 68.0107H8.95364C4.02649 68.0107 0 63.1206 0 57.1367V11.0027C0 5.01874 4.02649 0.128662 8.95364 0.128662H127.046C131.974 0.128662 136 5.01874 136 11.0027V57.1367C136 63.185 131.974 68.0107 127.046 68.0107Z" fill="#C4C4C4"/>
        <path d="M127.046 67.882H8.95364C4.02649 67.882 0 62.992 0 57.008V10.874C0 4.8901 4.02649 0 8.95364 0H127.046C131.974 0 136 4.8901 136 10.874V57.008C136 62.992 131.974 67.882 127.046 67.882Z" fill="#CCCCCC"/>
    </mask>
    <g mask="url(#mask0)">
        <path d="M127.046 72H8.95364C4.02649 72 0 67.1099 0 61.126V14.992C0 9.00806 4.02649 4.11798 8.95364 4.11798H127.046C131.974 4.11798 136 9.00806 136 14.992V61.126C136 67.1099 131.974 72 127.046 72Z" fill="#4D4D4D"/>
        <path d="M8.95364 67.882C4.02649 67.882 0 62.992 0 57.008V10.874C0 4.8901 4.02649 0 8.95364 0H127.046C131.974 0 136 4.8901 136 10.874V57.008C136 62.992 131.974 67.882 127.046 67.882H8.95364Z" fill="url(#paint0_linear)"/>
        <path d="M127.046 67.496C131.815 67.496 135.682 62.7989 135.682 57.008V10.874C135.682 5.08311 131.815 0.386047 127.046 0.386047H8.95363C4.18542 0.386047 0.317871 5.08311 0.317871 10.874V57.008C0.317871 62.7989 4.18542 67.496 8.95363 67.496H127.046Z" fill="url(#paint1_linear)"/>
        <path d="M10.702 65.3727C5.93383 65.3727 2.06628 60.6756 2.06628 54.8847V12.933C2.06628 7.14211 5.93383 2.44507 10.702 2.44507H125.351C130.119 2.44507 133.987 7.14211 133.987 12.933V54.8847C133.987 60.6756 130.119 65.3727 125.351 65.3727H10.702Z" fill="url(#paint2_linear)"/>
        <path d="M125.351 2.89545H10.702C6.09276 2.89545 2.38416 7.39948 2.38416 12.9973V54.9491C2.38416 60.4826 6.09276 65.0509 10.702 65.0509H125.351C129.907 65.0509 133.669 60.5469 133.669 54.9491V12.9973C133.616 7.39948 129.907 2.89545 125.351 2.89545Z" fill="url(#paint3_linear)"/>
    </g>
    <mask id="mask1" mask-type="alpha" maskUnits="userSpaceOnUse" x="2" y="2" width="132" height="63">
        <path d="M10.702 64.9866C6.09276 64.9866 2.38416 60.4826 2.38416 54.8847V12.933C2.38416 7.39947 6.09276 2.83112 10.702 2.83112H125.351C129.907 2.83112 133.669 7.33512 133.669 12.933V54.8847C133.669 60.4182 129.96 64.9866 125.351 64.9866H10.702Z" fill="#E6E6E6"/>
        <path d="M10.7023 64.7936C6.19896 64.7936 2.59631 60.3539 2.59631 54.9491V12.9973C2.59631 7.52816 6.25194 3.15283 10.7023 3.15283H125.351C129.802 3.15283 133.457 7.5925 133.457 12.9973V54.9491C133.457 60.3539 129.802 64.7936 125.351 64.7936H10.7023Z" fill="#DBDBDB"/>
        <path d="M10.7022 64.5362C6.30486 64.5362 2.75519 60.2252 2.75519 54.8847V12.933C2.75519 7.59248 6.30486 3.28149 10.7022 3.28149H125.351C129.749 3.28149 133.298 7.59248 133.298 12.933V54.8847C133.298 60.2252 129.749 64.5362 125.351 64.5362H10.7022Z" fill="#D0D0D0"/>
        <path d="M10.7022 64.3431C6.41081 64.3431 2.9671 60.0965 2.9671 54.9491V12.9973C2.9671 7.78552 6.46379 3.60321 10.7022 3.60321H125.351C129.643 3.60321 133.086 7.84986 133.086 12.9973V54.9491C133.086 60.1609 129.59 64.3431 125.351 64.3431H10.7022Z" fill="#C5C5C5"/>
        <path d="M10.7021 64.0858C6.51671 64.0858 3.12598 59.9678 3.12598 54.8847V12.933C3.12598 7.84989 6.51671 3.73193 10.7021 3.73193H125.351C129.537 3.73193 132.927 7.84989 132.927 12.933V54.8847C132.927 59.9678 129.537 64.0858 125.351 64.0858H10.7021Z" fill="#BABABA"/>
        <path d="M10.7021 63.8284C6.62266 63.8284 3.33789 59.8391 3.33789 54.8847V12.933C3.33789 7.97853 6.67564 3.98926 10.7021 3.98926H125.351C129.431 3.98926 132.715 8.04287 132.715 12.933V54.8847C132.715 59.8391 129.431 63.8284 125.351 63.8284H10.7021Z" fill="#AFAFAF"/>
        <path d="M10.7022 63.6354C6.72868 63.6354 3.49689 59.7105 3.49689 54.8847V12.933C3.49689 8.10725 6.72868 4.18231 10.7022 4.18231H125.351C129.325 4.18231 132.556 8.10725 132.556 12.933V54.8847C132.556 59.7105 129.325 63.6354 125.351 63.6354H10.7022Z" fill="#A4A4A4"/>
        <path d="M10.7022 63.4424C6.83463 63.4424 3.7088 59.6461 3.7088 54.9491V12.9973C3.7088 8.30028 6.83463 4.50403 10.7022 4.50403H125.351C129.219 4.50403 132.345 8.30028 132.345 12.9973V54.9491C132.345 59.6461 129.219 63.4424 125.351 63.4424H10.7022Z" fill="#999999"/>
        <path d="M10.7022 63.185C6.94064 63.185 3.8678 59.4531 3.8678 54.8847V12.933C3.8678 8.36459 6.94064 4.63269 10.7022 4.63269H125.351C129.113 4.63269 132.186 8.36459 132.186 12.933V54.8847C132.186 59.4531 129.113 63.185 125.351 63.185H10.7022Z" fill="#8E8E8E"/>
        <path d="M10.7021 62.992C7.04648 62.992 4.07959 59.3888 4.07959 54.9491V12.9974C4.07959 8.55768 7.04648 4.95447 10.7021 4.95447H125.351C129.007 4.95447 131.974 8.55768 131.974 12.9974V54.9491C131.974 59.3888 129.007 62.992 125.351 62.992H10.7021Z" fill="#838383"/>
        <path d="M10.7022 62.7346C7.15249 62.7346 4.23859 59.1957 4.23859 54.8847V12.933C4.23859 8.62199 7.15249 5.08313 10.7022 5.08313H125.351C128.901 5.08313 131.815 8.62199 131.815 12.933V54.8847C131.815 59.1957 128.901 62.7346 125.351 62.7346H10.7022Z" fill="#787878"/>
        <path d="M10.7022 62.5416C7.25851 62.5416 4.45056 59.1314 4.45056 54.9491V12.9973C4.45056 8.81503 7.25851 5.40485 10.7022 5.40485H125.351C128.795 5.40485 131.603 8.81503 131.603 12.9973V54.9491C131.603 59.1314 128.795 62.5416 125.351 62.5416H10.7022Z" fill="#6D6D6D"/>
        <path d="M10.7021 62.2842C7.36434 62.2842 4.60938 59.0027 4.60938 54.8847V12.933C4.60938 8.87935 7.36434 5.53351 10.7021 5.53351H125.351C128.689 5.53351 131.444 8.87935 131.444 12.933V54.8847C131.444 58.9383 128.742 62.2842 125.351 62.2842H10.7021Z" fill="#626262"/>
        <path d="M10.7023 62.0911C7.47048 62.0911 4.82147 58.874 4.82147 54.9491V12.9973C4.82147 9.07239 7.47048 5.85522 10.7023 5.85522H125.351C128.583 5.85522 131.232 9.07239 131.232 12.9973V54.9491C131.232 58.874 128.583 62.0911 125.351 62.0911H10.7023Z" fill="#575757"/>
        <path d="M10.7022 61.8338C7.52339 61.8338 4.98035 58.7453 4.98035 54.8847V12.933C4.98035 9.13675 7.52339 5.98395 10.7022 5.98395H125.351C128.477 5.98395 131.073 9.07241 131.073 12.933V54.8847C131.073 58.681 128.53 61.8338 125.351 61.8338H10.7022Z" fill="#4D4D4D"/>
        <path d="M10.7022 61.6408C7.62935 61.6408 5.19226 58.6166 5.19226 54.9491V12.9973C5.19226 9.26544 7.68233 6.30566 10.7022 6.30566H125.351C128.371 6.30566 130.861 9.32979 130.861 12.9973V54.9491C130.861 58.6166 128.371 61.6408 125.351 61.6408H10.7022Z" fill="#424242"/>
        <path d="M10.7021 61.3834C7.73524 61.3834 5.35114 58.4879 5.35114 54.8847V12.933C5.35114 9.32977 7.73524 6.43433 10.7021 6.43433H125.351C128.318 6.43433 130.702 9.32977 130.702 12.933V54.8847C130.702 58.4236 128.318 61.3834 125.351 61.3834H10.7021Z" fill="#373737"/>
        <path d="M10.7021 61.1904C7.8412 61.1904 5.56305 58.3593 5.56305 54.9491V12.9973C5.56305 9.52281 7.89418 6.75604 10.7021 6.75604H125.351C128.212 6.75604 130.49 9.58715 130.49 12.9973V54.9491C130.49 58.4236 128.159 61.1904 125.351 61.1904H10.7021Z" fill="#2C2C2C"/>
        <path d="M10.7022 60.933C7.94721 60.933 5.72205 58.2306 5.72205 54.8848V12.933C5.72205 9.58717 7.94721 6.88477 10.7022 6.88477H125.351C128.106 6.88477 130.331 9.58717 130.331 12.933V54.8848C130.331 58.2306 128.106 60.933 125.351 60.933H10.7022Z" fill="#212121"/>
        <path d="M10.7022 60.7399C8.05317 60.7399 5.93396 58.1662 5.93396 54.949V12.9973C5.93396 9.78015 8.10615 7.20642 10.7022 7.20642H125.351C128 7.20642 130.119 9.84449 130.119 12.9973V54.949C130.119 58.1662 128 60.7399 125.351 60.7399H10.7022Z" fill="#161616"/>
        <path d="M10.7022 60.4826C8.15918 60.4826 6.09296 57.9732 6.09296 54.8847V12.933C6.09296 9.84451 8.15918 7.33514 10.7022 7.33514H125.351C127.894 7.33514 129.961 9.84451 129.961 12.933V54.8847C129.961 57.9732 127.894 60.4826 125.351 60.4826H10.7022Z" fill="#0B0B0B"/>
        <path d="M10.7022 60.2896C8.26514 60.2896 6.30487 57.9089 6.30487 54.9491V12.9973C6.30487 10.0375 8.26514 7.65686 10.7022 7.65686H125.351C127.788 7.65686 129.749 10.0375 129.749 12.9973V54.9491C129.749 57.9089 127.788 60.2896 125.351 60.2896H10.7022Z" fill="black"/>
    </mask>
    <g mask="url(#mask1)">
        <path opacity="0.9" d="M10.702 64.9866C6.09276 64.9866 2.38416 60.4826 2.38416 54.8847V12.933C2.38416 7.39947 6.09276 2.83112 10.702 2.83112H125.351C129.907 2.83112 133.669 7.33512 133.669 12.933V54.8847C133.669 60.4182 129.96 64.9866 125.351 64.9866H10.702ZM125.351 60.2895C127.788 60.2895 129.748 57.9089 129.748 54.9491V12.9973C129.748 10.0375 127.788 7.65685 125.351 7.65685H10.702C8.26495 7.65685 6.30469 10.0375 6.30469 12.9973V54.9491C6.30469 57.9089 8.26495 60.2895 10.702 60.2895H125.351Z" fill="url(#paint4_linear)"/>
    </g>
    <path opacity="0.15" d="M130.172 19.689C130.172 33.3298 104.795 38.4772 67.9735 38.4772C31.2053 38.4772 5.77484 33.3941 5.77484 19.689C5.77484 16.2145 5.77484 15.5711 5.77484 15.5711C5.77484 9.78019 9.64239 7.27081 14.4106 7.27081H121.536C126.305 7.27081 130.172 9.84454 130.172 15.5711C130.172 15.5711 130.172 16.2145 130.172 19.689Z" fill="white"/>
    <defs>
        <linearGradient id="paint0_linear" x1="68.0095" y1="67.8807" x2="68.0095" y2="-0.0026381" gradientUnits="userSpaceOnUse">
            <stop stop-color="#969696"/>
            <stop offset="0.061019" stop-color="#848484"/>
            <stop offset="0.1835" stop-color="#545454"/>
            <stop offset="0.2" stop-color="#4D4D4D"/>
            <stop offset="0.2239" stop-color="#535353"/>
            <stop offset="0.2553" stop-color="#636363"/>
            <stop offset="0.2907" stop-color="#7E7E7E"/>
            <stop offset="0.3292" stop-color="#A4A4A4"/>
            <stop offset="0.3696" stop-color="#D4D4D4"/>
            <stop offset="0.4" stop-color="#FDFDFD"/>
            <stop offset="0.6" stop-color="#C1C1C1"/>
            <stop offset="0.8" stop-color="#FDFDFD"/>
            <stop offset="1" stop-color="#969696"/>
        </linearGradient>
        <linearGradient id="paint1_linear" x1="68.0098" y1="0.369962" x2="68.0098" y2="67.508" gradientUnits="userSpaceOnUse">
            <stop stop-color="#F0F0F0"/>
            <stop offset="0.0328408" stop-color="#DEDEDE"/>
            <stop offset="0.0990913" stop-color="#AEAEAE"/>
            <stop offset="0.192" stop-color="#616161"/>
            <stop offset="0.2" stop-color="#5A5A5A"/>
            <stop offset="0.2251" stop-color="#606060"/>
            <stop offset="0.258" stop-color="#707070"/>
            <stop offset="0.2951" stop-color="#8B8B8B"/>
            <stop offset="0.3355" stop-color="#B1B1B1"/>
            <stop offset="0.3779" stop-color="#E1E1E1"/>
            <stop offset="0.4" stop-color="#FDFDFD"/>
            <stop offset="0.6" stop-color="#C1C1C1"/>
            <stop offset="0.8" stop-color="#FDFDFD"/>
            <stop offset="1" stop-color="#464646"/>
        </linearGradient>
        <linearGradient id="paint2_linear" x1="2.06093" y1="33.9387" x2="133.959" y2="33.9387" gradientUnits="userSpaceOnUse">
            <stop stop-color="#F0F0F0"/>
            <stop offset="0.0328408" stop-color="#DEDEDE"/>
            <stop offset="0.0990913" stop-color="#AEAEAE"/>
            <stop offset="0.192" stop-color="#616161"/>
            <stop offset="0.2" stop-color="#5A5A5A"/>
            <stop offset="0.2251" stop-color="#606060"/>
            <stop offset="0.258" stop-color="#707070"/>
            <stop offset="0.2951" stop-color="#8B8B8B"/>
            <stop offset="0.3355" stop-color="#B1B1B1"/>
            <stop offset="0.3779" stop-color="#E1E1E1"/>
            <stop offset="0.4" stop-color="#FDFDFD"/>
            <stop offset="0.6" stop-color="#C1C1C1"/>
            <stop offset="0.8" stop-color="#FDFDFD"/>
            <stop offset="1" stop-color="#464646"/>
        </linearGradient>
        <linearGradient id="paint3_linear" x1="68.0102" y1="2.89152" x2="68.0102" y2="64.9865" gradientUnits="userSpaceOnUse">
            <stop stop-color="#FEDE84"/>
            <stop offset="0.5" stop-color="#FFC80E"/>
            <stop offset="1" stop-color="#FB8400"/>
        </linearGradient>
        <linearGradient id="paint4_linear" x1="66.4119" y1="64.6667" x2="75.5031" y2="-0.303652" gradientUnits="userSpaceOnUse">
            <stop stop-color="#976819"/>
            <stop offset="1" stop-color="#B98021" stop-opacity="0.17"/>
        </linearGradient>
    </defs>
</svg>
