<svg width="280" height="109" viewBox="0 0 280 109" fill="none" xmlns="http://www.w3.org/2000/svg">
    <mask id="mask0" mask-type="alpha" maskUnits="userSpaceOnUse" x="0" y="0" width="280" height="109">
        <path d="M261.566 109H18.434C8.28983 109 0 101.597 0 92.5377V22.6959C0 13.6369 8.28983 6.23389 18.434 6.23389H261.566C271.71 6.23389 280 13.6369 280 22.6959V92.5377C280 101.597 271.71 109 261.566 109Z" fill="black"/>
        <path d="M261.566 108.805H18.434C8.28983 108.805 0 101.402 0 92.3429V22.5011C0 13.4421 8.28983 6.03906 18.434 6.03906H261.566C271.71 6.03906 280 13.4421 280 22.5011V92.3429C280 101.402 271.71 108.805 261.566 108.805Z" fill="#080808"/>
        <path d="M261.566 108.513H18.434C8.28983 108.513 0 101.11 0 92.0509V22.2091C0 13.1501 8.28983 5.74707 18.434 5.74707H261.566C271.71 5.74707 280 13.1501 280 22.2091V92.0509C280 101.207 271.71 108.513 261.566 108.513Z" fill="#101010"/>
        <path d="M261.566 108.318H18.434C8.28983 108.318 0 100.915 0 91.8561V22.0143C0 12.9553 8.28983 5.55225 18.434 5.55225H261.566C271.71 5.55225 280 12.9553 280 22.0143V91.8561C280 100.915 271.71 108.318 261.566 108.318Z" fill="#181818"/>
        <path d="M261.566 108.026H18.434C8.28983 108.026 0 100.623 0 91.5641V21.7223C0 12.6633 8.28983 5.26025 18.434 5.26025H261.566C271.71 5.26025 280 12.6633 280 21.7223V91.5641C280 100.72 271.71 108.026 261.566 108.026Z" fill="#1F1F1F"/>
        <path d="M261.566 107.831H18.434C8.28983 107.831 0 100.428 0 91.3688V21.527C0 12.468 8.28983 5.06494 18.434 5.06494H261.566C271.71 5.06494 280 12.468 280 21.527V91.3688C280 100.428 271.71 107.831 261.566 107.831Z" fill="#272727"/>
        <path d="M261.566 107.539H18.434C8.28983 107.539 0 100.136 0 91.0772V21.2354C0 12.1765 8.28983 4.77344 18.434 4.77344H261.566C271.71 4.77344 280 12.1765 280 21.2354V91.0772C280 100.234 271.71 107.539 261.566 107.539Z" fill="#2F2F2F"/>
        <path d="M261.566 107.344H18.434C8.28983 107.344 0 99.9409 0 90.882V21.0401C0 11.9812 8.28983 4.57812 18.434 4.57812H261.566C271.71 4.57812 280 11.9812 280 21.0401V90.882C280 99.9409 271.71 107.344 261.566 107.344Z" fill="#373737"/>
        <path d="M261.566 107.052H18.434C8.28983 107.052 0 99.6489 0 90.5899V20.7481C0 11.6892 8.28983 4.28613 18.434 4.28613H261.566C271.71 4.28613 280 11.6892 280 20.7481V90.5899C280 99.7463 271.71 107.052 261.566 107.052Z" fill="#3F3F3F"/>
        <path d="M261.566 106.857H18.434C8.28983 106.857 0 99.4541 0 90.3951V20.5533C0 11.4943 8.28983 4.09131 18.434 4.09131H261.566C271.71 4.09131 280 11.4943 280 20.5533V90.3951C280 99.4541 271.71 106.857 261.566 106.857Z" fill="#474747"/>
        <path d="M261.566 106.662H18.434C8.28983 106.662 0 99.2588 0 90.1998V20.358C0 11.2991 8.28983 3.896 18.434 3.896H261.566C271.71 3.896 280 11.2991 280 20.358V90.1998C280 99.2588 271.71 106.662 261.566 106.662Z" fill="#4E4E4E"/>
        <path d="M261.566 106.37H18.434C8.28983 106.37 0 98.9673 0 89.9083V20.0665C0 11.0075 8.28983 3.60449 18.434 3.60449H261.566C271.71 3.60449 280 11.0075 280 20.0665V89.9083C280 98.9673 271.71 106.37 261.566 106.37Z" fill="#565656"/>
        <path d="M261.566 106.175H18.434C8.28983 106.175 0 98.772 0 89.713V19.8712C0 10.8122 8.28983 3.40918 18.434 3.40918H261.566C271.71 3.40918 280 10.8122 280 19.8712V89.713C280 98.772 271.71 106.175 261.566 106.175Z" fill="#5E5E5E"/>
        <path d="M261.566 105.883H18.434C8.28983 105.883 0 98.48 0 89.421V19.5792C0 10.5202 8.28983 3.11719 18.434 3.11719H261.566C271.71 3.11719 280 10.5202 280 19.5792V89.421C280 98.48 271.71 105.883 261.566 105.883Z" fill="#666666"/>
        <path d="M261.566 105.688H18.434C8.28983 105.688 0 98.2852 0 89.2262V19.3844C0 10.3254 8.28983 2.92236 18.434 2.92236H261.566C271.71 2.92236 280 10.3254 280 19.3844V89.2262C280 98.2852 271.71 105.688 261.566 105.688Z" fill="#6E6E6E"/>
        <path d="M261.566 105.396H18.434C8.28983 105.396 0 97.9927 0 88.9337V19.0919C0 10.0329 8.28983 2.62988 18.434 2.62988H261.566C271.71 2.62988 280 10.0329 280 19.0919V88.9337C280 97.9927 271.71 105.396 261.566 105.396Z" fill="#767676"/>
        <path d="M261.566 105.201H18.434C8.28983 105.201 0 97.7984 0 88.7394V18.8976C0 9.83861 8.28983 2.43555 18.434 2.43555H261.566C271.71 2.43555 280 9.83861 280 18.8976V88.7394C280 97.7984 271.71 105.201 261.566 105.201Z" fill="#7E7E7E"/>
        <path d="M261.566 104.909H18.434C8.28983 104.909 0 97.5059 0 88.4469V18.6051C0 9.5461 8.28983 2.14307 18.434 2.14307H261.566C271.71 2.14307 280 9.5461 280 18.6051V88.4469C280 97.5059 271.71 104.909 261.566 104.909Z" fill="#858585"/>
        <path d="M261.566 104.714H18.434C8.28983 104.714 0 97.3111 0 88.2521V18.4103C0 9.3513 8.28983 1.94824 18.434 1.94824H261.566C271.71 1.94824 280 9.3513 280 18.4103V88.2521C280 97.3111 271.71 104.714 261.566 104.714Z" fill="#8D8D8D"/>
        <path d="M261.566 104.422H18.434C8.28983 104.422 0 97.0186 0 87.9596V18.1178C0 9.05879 8.28983 1.65576 18.434 1.65576H261.566C271.71 1.65576 280 9.05879 280 18.1178V87.9596C280 97.0186 271.71 104.422 261.566 104.422Z" fill="#959595"/>
        <path d="M261.566 104.227H18.434C8.28983 104.227 0 96.8237 0 87.7648V17.923C0 8.864 8.28983 1.46094 18.434 1.46094H261.566C271.71 1.46094 280 8.864 280 17.923V87.7648C280 96.8237 271.71 104.227 261.566 104.227Z" fill="#9D9D9D"/>
        <path d="M261.566 103.935H18.434C8.28983 103.935 0 96.5318 0 87.4728V17.631C0 8.57198 8.28983 1.16895 18.434 1.16895H261.566C271.71 1.16895 280 8.57198 280 17.631V87.4728C280 96.6292 271.71 103.935 261.566 103.935Z" fill="#A5A5A5"/>
        <path d="M261.566 103.74H18.434C8.28983 103.74 0 96.3369 0 87.2779V17.4362C0 8.37718 8.28983 0.974121 18.434 0.974121H261.566C271.71 0.974121 280 8.37718 280 17.4362V87.2779C280 96.3369 271.71 103.74 261.566 103.74Z" fill="#ADADAD"/>
        <path d="M261.566 103.448H18.434C8.28983 103.448 0 96.0449 0 86.986V17.1441C0 8.08516 8.28983 0.682129 18.434 0.682129H261.566C271.71 0.682129 280 8.08516 280 17.1441V86.986C280 96.1423 271.71 103.448 261.566 103.448Z" fill="#B4B4B4"/>
        <path d="M261.566 103.253H18.434C8.28983 103.253 0 95.8496 0 86.7906V16.9489C0 7.88988 8.28983 0.486816 18.434 0.486816H261.566C271.71 0.486816 280 7.88988 280 16.9489V86.7906C280 95.8496 271.71 103.253 261.566 103.253Z" fill="#BCBCBC"/>
        <path d="M261.566 102.961H18.434C8.28983 102.961 0 95.5576 0 86.4986V16.6568C0 7.59785 8.28983 0.194824 18.434 0.194824H261.566C271.71 0.194824 280 7.59785 280 16.6568V86.4986C280 95.655 271.71 102.961 261.566 102.961Z" fill="#C4C4C4"/>
        <path d="M261.566 102.766H18.434C8.28983 102.766 0 95.3628 0 86.3038V16.462C0 7.40306 8.28983 0 18.434 0H261.566C271.71 0 280 7.40306 280 16.462V86.3038C280 95.3628 271.71 102.766 261.566 102.766Z" fill="#CCCCCC"/>
    </mask>
    <g mask="url(#mask0)">
        <path d="M261.566 109H18.434C8.28983 109 0 101.597 0 92.5377V22.6959C0 13.6369 8.28983 6.23389 18.434 6.23389H261.566C271.71 6.23389 280 13.6369 280 22.6959V92.5377C280 101.597 271.71 109 261.566 109Z" fill="#4D4D4D"/>
        <path d="M18.434 102.766C8.28983 102.766 0 95.3628 0 86.3038V16.462C0 7.40306 8.28983 0 18.434 0H261.566C271.71 0 280 7.40306 280 16.462V86.3038C280 95.3628 271.71 102.766 261.566 102.766H18.434Z" fill="url(#paint0_linear)"/>
        <path d="M261.566 102.181C271.383 102.181 279.345 95.0706 279.345 86.3038V16.4621C279.345 7.6953 271.383 0.584473 261.566 0.584473H18.4339C8.61702 0.584473 0.654419 7.6953 0.654419 16.4621V86.3038C0.654419 95.0706 8.61702 102.181 18.4339 102.181H261.566Z" fill="url(#paint1_linear)"/>
        <path d="M22.0333 98.967C12.2164 98.967 4.25385 91.8562 4.25385 83.0895V19.5792C4.25385 10.8125 12.2164 3.70166 22.0333 3.70166H258.075C267.892 3.70166 275.855 10.8125 275.855 19.5792V83.0895C275.855 91.8562 267.892 98.967 258.075 98.967H22.0333Z" fill="url(#paint2_linear)"/>
        <path d="M258.076 4.3833H22.0336C12.5439 4.3833 4.90857 11.2019 4.90857 19.6764V83.1867C4.90857 91.5638 12.5439 98.4798 22.0336 98.4798H258.076C267.456 98.4798 275.201 91.6612 275.201 83.1867V19.6764C275.092 11.2019 267.456 4.3833 258.076 4.3833Z" fill="url(#paint3_linear)"/>
    </g>
    <mask id="mask1" mask-type="alpha" maskUnits="userSpaceOnUse" x="4" y="4" width="272" height="95">
        <path d="M22.0336 98.3826C12.5439 98.3826 4.90857 91.564 4.90857 83.0895V19.5792C4.90857 11.2021 12.5439 4.28613 22.0336 4.28613H258.076C267.456 4.28613 275.201 11.1047 275.201 19.5792V83.0895C275.201 91.4666 267.565 98.3826 258.076 98.3826H22.0336Z" fill="#E6E6E6"/>
        <path d="M22.034 98.0902C12.7624 98.0902 5.34521 91.369 5.34521 83.1867V19.6764C5.34521 11.3967 12.8715 4.77295 22.034 4.77295H258.076C267.238 4.77295 274.765 11.4941 274.765 19.6764V83.1867C274.765 91.369 267.238 98.0902 258.076 98.0902H22.034Z" fill="#DBDBDB"/>
        <path d="M22.0336 97.7006C12.9803 97.7006 5.67212 91.1742 5.67212 83.0893V19.579C5.67212 11.4941 12.9803 4.96777 22.0336 4.96777H258.076C267.129 4.96777 274.437 11.4941 274.437 19.579V83.0893C274.437 91.1742 267.129 97.7006 258.076 97.7006H22.0336Z" fill="#D0D0D0"/>
        <path d="M22.0335 97.4081C13.1983 97.4081 6.10834 90.9792 6.10834 83.1865V19.6762C6.10834 11.7861 13.3074 5.45459 22.0335 5.45459H258.076C266.911 5.45459 274.001 11.8835 274.001 19.6762V83.1865C274.001 91.0766 266.802 97.4081 258.076 97.4081H22.0335Z" fill="#C5C5C5"/>
        <path d="M22.0335 97.0185C13.4165 97.0185 6.43555 90.7843 6.43555 83.0891V19.5788C6.43555 11.8835 13.4165 5.64941 22.0335 5.64941H258.076C266.693 5.64941 273.674 11.8835 273.674 19.5788V83.0891C273.674 90.7843 266.693 97.0185 258.076 97.0185H22.0335Z" fill="#BABABA"/>
        <path d="M22.0337 96.6289C13.6348 96.6289 6.87207 90.5895 6.87207 83.0891V19.5788C6.87207 12.0784 13.7439 6.03906 22.0337 6.03906H258.076C266.475 6.03906 273.237 12.1758 273.237 19.5788V83.0891C273.237 90.5895 266.475 96.6289 258.076 96.6289H22.0337Z" fill="#AFAFAF"/>
        <path d="M22.0334 96.3369C13.8527 96.3369 7.19897 90.395 7.19897 83.0894V19.5791C7.19897 12.2735 13.8527 6.33154 22.0334 6.33154H258.076C266.256 6.33154 272.91 12.2735 272.91 19.5791V83.0894C272.91 90.395 266.256 96.3369 258.076 96.3369H22.0334Z" fill="#A4A4A4"/>
        <path d="M22.0336 96.0444C14.071 96.0444 7.63544 90.2974 7.63544 83.1866V19.6763C7.63544 12.5655 14.071 6.81836 22.0336 6.81836H258.076C266.038 6.81836 272.474 12.5655 272.474 19.6763V83.1866C272.474 90.2974 266.038 96.0444 258.076 96.0444H22.0336Z" fill="#999999"/>
        <path d="M22.0338 95.6553C14.2894 95.6553 7.96295 90.0056 7.96295 83.0896V19.5793C7.96295 12.6634 14.2894 7.01367 22.0338 7.01367H258.076C265.82 7.01367 272.147 12.6634 272.147 19.5793V83.0896C272.147 90.0056 265.82 95.6553 258.076 95.6553H22.0338Z" fill="#8E8E8E"/>
        <path d="M22.0338 95.3629C14.5075 95.3629 8.39917 89.908 8.39917 83.1868V19.6765C8.39917 12.9554 14.5075 7.50049 22.0338 7.50049H258.076C265.602 7.50049 271.71 12.9554 271.71 19.6765V83.1868C271.71 89.908 265.602 95.3629 258.076 95.3629H22.0338Z" fill="#838383"/>
        <path d="M22.0334 94.9732C14.7253 94.9732 8.72607 89.6157 8.72607 83.0894V19.5791C8.72607 13.0528 14.7253 7.69531 22.0334 7.69531H258.075C265.384 7.69531 271.383 13.0528 271.383 19.5791V83.0894C271.383 89.6157 265.384 94.9732 258.075 94.9732H22.0334Z" fill="#787878"/>
        <path d="M22.0337 94.6812C14.9437 94.6812 9.1626 89.5186 9.1626 83.1871V19.6768C9.1626 13.3452 14.9437 8.18262 22.0337 8.18262H258.076C265.166 8.18262 270.947 13.3452 270.947 19.6768V83.1871C270.947 89.5186 265.166 94.6812 258.076 94.6812H22.0337Z" fill="#6D6D6D"/>
        <path d="M22.0336 94.2911C15.1618 94.2911 9.48981 89.3233 9.48981 83.0892V19.5789C9.48981 13.4422 15.1618 8.37695 22.0336 8.37695H258.076C264.947 8.37695 270.619 13.4422 270.619 19.5789V83.0892C270.619 89.2259 265.057 94.2911 258.076 94.2911H22.0336Z" fill="#626262"/>
        <path d="M22.0335 93.9992C15.3799 93.9992 9.92603 89.1288 9.92603 83.1869V19.6766C9.92603 13.7347 15.3799 8.86426 22.0335 8.86426H258.076C264.729 8.86426 270.183 13.7347 270.183 19.6766V83.1869C270.183 89.1288 264.729 93.9992 258.076 93.9992H22.0335Z" fill="#575757"/>
        <path d="M22.0335 93.6091C15.4889 93.6091 10.2532 88.9335 10.2532 83.089V19.5787C10.2532 13.8316 15.4889 9.05859 22.0335 9.05859H258.076C264.511 9.05859 269.856 13.7342 269.856 19.5787V83.089C269.856 88.8361 264.62 93.6091 258.076 93.6091H22.0335Z" fill="#4D4D4D"/>
        <path d="M22.0334 93.3171C15.7069 93.3171 10.6894 88.7389 10.6894 83.1866V19.6764C10.6894 14.0267 15.816 9.5459 22.0334 9.5459H258.075C264.293 9.5459 269.419 14.1241 269.419 19.6764V83.1866C269.419 88.7389 264.293 93.3171 258.075 93.3171H22.0334Z" fill="#424242"/>
        <path d="M22.0334 92.9275C15.9251 92.9275 11.0167 88.5441 11.0167 83.0893V19.579C11.0167 14.1241 15.9251 9.74072 22.0334 9.74072H258.075C264.184 9.74072 269.092 14.1241 269.092 19.579V83.0893C269.092 88.4467 264.184 92.9275 258.075 92.9275H22.0334Z" fill="#373737"/>
        <path d="M22.0336 92.635C16.1434 92.635 11.4531 88.3491 11.4531 83.1864V19.6762C11.4531 14.4161 16.2525 10.2275 22.0336 10.2275H258.076C263.966 10.2275 268.656 14.5135 268.656 19.6762V83.1864C268.656 88.4465 263.857 92.635 258.076 92.635H22.0336Z" fill="#2C2C2C"/>
        <path d="M22.0335 92.2459C16.3616 92.2459 11.7803 88.1547 11.7803 83.0895V19.5792C11.7803 14.514 16.3616 10.4229 22.0335 10.4229H258.076C263.748 10.4229 268.329 14.514 268.329 19.5792V83.0895C268.329 88.1547 263.748 92.2459 258.076 92.2459H22.0335Z" fill="#212121"/>
        <path d="M22.0337 91.9535C16.5799 91.9535 12.2168 88.0571 12.2168 83.1867V19.6764C12.2168 14.806 16.6889 10.9097 22.0337 10.9097H258.076C263.53 10.9097 267.893 14.9034 267.893 19.6764V83.1867C267.893 88.0571 263.53 91.9535 258.076 91.9535H22.0337Z" fill="#161616"/>
        <path d="M22.0337 91.5638C16.798 91.5638 12.544 87.7649 12.544 83.0893V19.579C12.544 14.9034 16.798 11.1045 22.0337 11.1045H258.076C263.311 11.1045 267.565 14.9034 267.565 19.579V83.0893C267.565 87.7649 263.311 91.5638 258.076 91.5638H22.0337Z" fill="#0B0B0B"/>
        <path d="M22.0339 91.2718C17.0164 91.2718 12.9805 87.6677 12.9805 83.187V19.6767C12.9805 15.1959 17.0164 11.5918 22.0339 11.5918H258.076C263.093 11.5918 267.129 15.1959 267.129 19.6767V83.187C267.129 87.6677 263.093 91.2718 258.076 91.2718H22.0339Z" fill="black"/>
    </mask>
    <g mask="url(#mask1)">
        <path opacity="0.9" d="M22.0336 98.3826C12.5439 98.3826 4.90857 91.564 4.90857 83.0895V19.5792C4.90857 11.2021 12.5439 4.28613 22.0336 4.28613H258.076C267.456 4.28613 275.201 11.1047 275.201 19.5792V83.0895C275.201 91.4666 267.565 98.3826 258.076 98.3826H22.0336ZM258.076 91.2718C263.093 91.2718 267.129 87.6677 267.129 83.1869V19.6766C267.129 15.1959 263.093 11.5918 258.076 11.5918H22.0336C17.0161 11.5918 12.9802 15.1959 12.9802 19.6766V83.1869C12.9802 87.6677 17.0161 91.2718 22.0336 91.2718H258.076Z" fill="url(#paint4_linear)"/>
    </g>
    <path opacity="0.15" d="M268.001 29.8071C268.001 50.4577 215.754 58.2504 139.945 58.2504C64.246 58.2504 11.8892 50.5551 11.8892 29.8071C11.8892 24.5471 11.8892 23.573 11.8892 23.573C11.8892 14.8062 19.8518 11.0073 29.6687 11.0073H250.222C260.039 11.0073 268.001 14.9037 268.001 23.573C268.001 23.573 268.001 24.5471 268.001 29.8071Z" fill="white"/>
    <defs>
        <linearGradient id="paint0_linear" x1="140.02" y1="102.764" x2="140.02" y2="-0.00399379" gradientUnits="userSpaceOnUse">
            <stop stop-color="#969696"/>
            <stop offset="0.061019" stop-color="#848484"/>
            <stop offset="0.1835" stop-color="#545454"/>
            <stop offset="0.2" stop-color="#4D4D4D"/>
            <stop offset="0.2239" stop-color="#535353"/>
            <stop offset="0.2553" stop-color="#636363"/>
            <stop offset="0.2907" stop-color="#7E7E7E"/>
            <stop offset="0.3292" stop-color="#A4A4A4"/>
            <stop offset="0.3696" stop-color="#D4D4D4"/>
            <stop offset="0.4" stop-color="#FDFDFD"/>
            <stop offset="0.6" stop-color="#C1C1C1"/>
            <stop offset="0.8" stop-color="#FDFDFD"/>
            <stop offset="1" stop-color="#969696"/>
        </linearGradient>
        <linearGradient id="paint1_linear" x1="140.02" y1="0.560121" x2="140.02" y2="102.2" gradientUnits="userSpaceOnUse">
            <stop stop-color="#F0F0F0"/>
            <stop offset="0.0328408" stop-color="#DEDEDE"/>
            <stop offset="0.0990913" stop-color="#AEAEAE"/>
            <stop offset="0.192" stop-color="#616161"/>
            <stop offset="0.2" stop-color="#5A5A5A"/>
            <stop offset="0.2251" stop-color="#606060"/>
            <stop offset="0.258" stop-color="#707070"/>
            <stop offset="0.2951" stop-color="#8B8B8B"/>
            <stop offset="0.3355" stop-color="#B1B1B1"/>
            <stop offset="0.3779" stop-color="#E1E1E1"/>
            <stop offset="0.4" stop-color="#FDFDFD"/>
            <stop offset="0.6" stop-color="#C1C1C1"/>
            <stop offset="0.8" stop-color="#FDFDFD"/>
            <stop offset="1" stop-color="#464646"/>
        </linearGradient>
        <linearGradient id="paint2_linear" x1="4.24283" y1="51.3795" x2="275.798" y2="51.3795" gradientUnits="userSpaceOnUse">
            <stop stop-color="#F0F0F0"/>
            <stop offset="0.0328408" stop-color="#DEDEDE"/>
            <stop offset="0.0990913" stop-color="#AEAEAE"/>
            <stop offset="0.192" stop-color="#616161"/>
            <stop offset="0.2" stop-color="#5A5A5A"/>
            <stop offset="0.2251" stop-color="#606060"/>
            <stop offset="0.258" stop-color="#707070"/>
            <stop offset="0.2951" stop-color="#8B8B8B"/>
            <stop offset="0.3355" stop-color="#B1B1B1"/>
            <stop offset="0.3779" stop-color="#E1E1E1"/>
            <stop offset="0.4" stop-color="#FDFDFD"/>
            <stop offset="0.6" stop-color="#C1C1C1"/>
            <stop offset="0.8" stop-color="#FDFDFD"/>
            <stop offset="1" stop-color="#464646"/>
        </linearGradient>
        <linearGradient id="paint3_linear" x1="140.021" y1="4.37736" x2="140.021" y2="98.3822" gradientUnits="userSpaceOnUse">
            <stop stop-color="#FEDE84"/>
            <stop offset="0.5" stop-color="#FFC80E"/>
            <stop offset="1" stop-color="#FB8400"/>
        </linearGradient>
        <linearGradient id="paint4_linear" x1="136.73" y1="97.8983" x2="146.941" y2="-1.33485" gradientUnits="userSpaceOnUse">
            <stop stop-color="#976819"/>
            <stop offset="1" stop-color="#B98021" stop-opacity="0.17"/>
        </linearGradient>
    </defs>
</svg>
