<svg width="77" height="96" viewBox="0 0 77 96" fill="none" xmlns="http://www.w3.org/2000/svg">
    <path d="M38.49 19.0382C57.6194 19.0382 70.3201 22.3964 70.3201 22.3964C70.3201 22.3964 70.3201 44.3033 70.3201 57.2818C70.3201 63.3166 65.7448 69.523 57.7052 76.0173C48.4486 83.4913 38.49 87.5263 38.49 87.5263V95.4346C38.49 95.4346 54.6146 87.1172 63.2249 79.6382C76.9154 67.7454 76.9154 58.3423 76.9154 58.3423V4.93354C76.9154 4.93354 63.7501 0.77739 38.49 0.77739V19.0382Z" fill="#5E663B"/>
    <path d="M38.49 19.0382L70.3202 22.4671V58.1403L65.4621 68.0787L56.3114 77.4414L38.49 87.5212V19.0382Z" fill="#AF1917"/>
    <path d="M38.49 27.1535L43.6561 43.5105H60.1191L46.8528 53.1005L51.9684 69.0534L38.49 59.2514V54.7013L45.2469 60.0796L42.7017 51.6057L50.6706 46.3385H40.9493L38.49 38.304V27.1535Z" fill="#FDF082"/>
    <path d="M38.49 21.2046C55.2156 21.2046 68.6132 23.9619 68.6132 23.9619C68.6132 23.9619 68.6132 45.2426 68.6132 56.4334C68.6132 61.6349 62.9623 68.9776 55.9327 74.573C47.8375 81.0168 38.49 85.4911 38.49 85.4911V89.4604C38.49 89.4604 52.5896 82.2894 60.1191 75.8406C72.0876 65.584 72.0876 57.4838 72.0876 57.4838V20.9875C72.0876 20.9875 60.5736 17.402 38.49 17.402V21.2046Z" fill="#FDF082"/>
    <path d="M38.4899 19.0331C19.3605 19.0331 6.65975 22.3914 6.65975 22.3914C6.65975 22.3914 6.65975 44.2983 6.65975 57.2768C6.65975 63.3115 11.2351 69.518 19.2747 76.0123C28.5313 83.4863 38.4899 87.5213 38.4899 87.5213V95.4296C38.4899 95.4296 22.3653 87.1122 13.755 79.6332C0.0644531 67.7404 0.0644531 58.3373 0.0644531 58.3373V4.93354C0.0644531 4.93354 13.2298 0.77739 38.4899 0.77739V19.0331Z" fill="#5E663B"/>
    <path d="M38.4898 19.0331L6.65967 22.4671V58.1404L11.5228 68.0788L20.6734 77.4415L38.4898 87.5213V19.0331Z" fill="#AF1917"/>
    <path d="M38.4898 27.1535L33.3237 43.5105H16.8657L30.127 53.1005L25.0164 69.0534L38.4898 59.2514V54.7013L31.738 60.0796L34.2832 51.6057L26.3092 46.3385H36.0305L38.4898 38.304V27.1535Z" fill="#FDF082"/>
    <path d="M38.49 21.2046C21.7644 21.2046 8.36673 23.9619 8.36673 23.9619C8.36673 23.9619 8.36673 45.2426 8.36673 56.4334C8.36673 61.6349 14.0177 68.9776 21.0473 74.573C29.1424 81.0168 38.49 85.4911 38.49 85.4911V89.4604C38.49 89.4604 24.3904 82.2894 16.8608 75.8406C4.89233 65.584 4.89233 57.4838 4.89233 57.4838V20.9875C4.89233 20.9875 16.4063 17.402 38.49 17.402V21.2046Z" fill="#FEF183"/>
    <path d="M12.3866 8.95839C10.8211 9.21089 9.25562 9.48359 7.69517 9.77649C7.69517 12.0086 7.69517 14.2457 7.69517 16.4778C6.75587 16.6546 5.82162 16.8414 4.88232 17.0333C4.88232 14.0235 4.88232 11.0087 4.88232 7.99889C7.37197 7.48884 9.87172 7.02929 12.3816 6.62529C12.3866 7.40299 12.3866 8.18069 12.3866 8.95839Z" fill="#FDF082"/>
    <path d="M20.7695 14.5437C18.2142 14.8214 15.6639 15.1598 13.1238 15.5486C13.1238 12.5338 13.1238 9.52399 13.1238 6.50915C15.6639 6.1203 18.2142 5.787 20.7695 5.5042C20.7695 6.2819 20.7695 7.0596 20.7695 7.8373C19.1585 8.01405 17.5577 8.211 15.9518 8.42815C15.9518 8.89779 15.9518 9.13514 15.9518 9.60984C17.4112 9.41289 18.8757 9.23109 20.3402 9.06444C20.3402 9.70074 20.3402 10.337 20.3402 10.9733C18.8757 11.14 17.4112 11.3167 15.9518 11.5187C15.9518 11.9833 15.9518 12.2207 15.9518 12.6853C17.5577 12.4681 19.1585 12.2712 20.7695 12.0944C20.7695 12.9075 20.7695 13.7256 20.7695 14.5437Z" fill="#FDF082"/>
    <path d="M30.4352 13.7862C29.4858 13.8367 28.5364 13.8872 27.587 13.9478C27.587 12.7408 27.587 11.5389 27.587 10.332C26.5669 10.4027 25.5468 10.4784 24.5267 10.5643C24.5267 11.7712 24.5267 12.9731 24.5267 14.1801C23.5773 14.2609 22.633 14.3518 21.6836 14.4427C21.6836 11.4278 21.6836 8.41804 21.6836 5.40319C22.633 5.30724 23.5773 5.22139 24.5267 5.14059C24.5267 6.31219 24.5267 7.48379 24.5267 8.65539C25.5468 8.56954 26.5669 8.49379 27.587 8.42309C27.587 7.25149 27.587 6.07989 27.587 4.90829C28.5364 4.84769 29.4858 4.79214 30.4352 4.74669C30.4352 7.76154 30.4352 10.7764 30.4352 13.7862Z" fill="#FDF082"/>
    <path d="M43.9997 11.2359C44.025 11.9227 43.8785 12.8216 43.323 13.2206C42.7524 13.6347 41.9141 13.6044 41.202 13.6094C38.8992 13.5741 36.6015 13.5842 34.2987 13.6397C33.7634 13.6549 33.3038 13.6195 32.9301 13.5539C32.4453 13.468 31.9656 13.2105 31.7383 12.756C31.5161 12.3116 31.5212 11.7712 31.501 11.2864C31.501 9.08969 31.501 6.89294 31.501 4.69619C32.4352 4.66084 33.3695 4.62549 34.2987 4.60024C34.2987 6.79699 34.2987 8.99374 34.2987 11.1905C35.0057 11.1753 35.7127 11.1602 36.4197 11.1501C36.4197 8.95334 36.4197 6.75659 36.4197 4.55984C37.3135 4.54974 38.2023 4.54469 39.0962 4.54974C39.0962 6.74649 39.0962 8.94324 39.0962 11.14C39.7981 11.145 40.5001 11.1501 41.202 11.1602C41.202 8.96344 41.202 6.76669 41.202 4.56994C42.1363 4.58509 43.0705 4.61034 44.0048 4.64064C43.9997 6.84244 43.9997 9.03919 43.9997 11.2359Z" fill="#FDF082"/>
    <path d="M53.1805 7.54439C52.2564 7.46359 51.3373 7.38784 50.4131 7.32219C50.4131 9.55429 50.4131 11.7914 50.4131 14.0235C49.4637 13.9579 48.5143 13.8973 47.5649 13.8417C47.5649 11.6096 47.5649 9.37249 47.5649 7.14039C46.6408 7.08989 45.7166 7.04949 44.7925 7.00909C44.7925 6.23139 44.7925 5.45369 44.7925 4.67599C47.5952 4.78709 50.3879 4.96385 53.1805 5.2113C53.1805 5.98394 53.1805 6.76669 53.1805 7.54439Z" fill="#FDF082"/>
    <path d="M62.3817 15.3264C61.4575 15.1951 60.5283 15.0638 59.5991 14.9426C59.5991 13.7357 59.5991 12.5338 59.5991 11.3268C58.5538 11.1955 57.5084 11.0693 56.4631 10.9531C56.4631 12.1601 56.4631 13.362 56.4631 14.5689C55.5339 14.4679 54.6047 14.377 53.6704 14.2861C53.6704 12.0187 53.6704 9.75124 53.6704 7.48379C53.6704 6.81214 53.8371 6.05464 54.433 5.72134C54.9935 5.40824 55.8116 5.44359 56.458 5.52944C58.4376 5.74659 60.4071 5.99909 62.3766 6.28189C62.3817 9.30179 62.3817 12.3116 62.3817 15.3264ZM59.5991 9.51894C59.5991 8.96849 59.5991 8.69074 59.5991 8.14029C58.5538 8.00899 57.5084 7.88274 56.4631 7.76659C56.4631 8.31704 56.4631 8.59479 56.4631 9.14524C57.5084 9.26139 58.5538 9.38764 59.5991 9.51894Z" fill="#FDF082"/>
    <path d="M72.0828 14.9275C72.1384 16.2657 71.1991 16.8515 69.9568 16.6091C67.7852 16.195 65.6036 15.8163 63.417 15.4779C63.417 12.4681 63.417 9.4533 63.417 6.4435C66.1894 6.87275 68.9468 7.3626 71.694 7.9181C71.694 8.6958 71.694 9.4735 71.694 10.2512C69.8659 9.88255 68.0276 9.53915 66.1894 9.221C66.1894 9.69065 66.1894 9.928 66.1894 10.4027C67.3863 10.6097 68.5831 10.8218 69.775 11.0491C70.3759 11.1854 71.0576 11.3066 71.5071 11.7157C71.9515 12.1247 72.098 12.8519 72.0778 13.463C72.0828 13.9528 72.0828 14.4427 72.0828 14.9275ZM69.174 14.0134C69.174 13.5488 69.174 13.3115 69.174 12.8469C68.1842 12.66 67.1893 12.4833 66.1945 12.3116C66.1945 12.7762 66.1945 13.0135 66.1945 13.4781C67.1893 13.6448 68.1842 13.8266 69.174 14.0134Z" fill="#FDF082"/>
</svg>
