<svg width="56" height="59" viewBox="0 0 56 59" fill="none" xmlns="http://www.w3.org/2000/svg">
    <mask id="mask0" mask-type="alpha" maskUnits="userSpaceOnUse" x="0" y="0" width="56" height="59">
        <path d="M28.291 58.1161C43.5942 58.1161 55.9999 45.1064 55.9999 29.058C55.9999 13.0097 43.5942 0 28.291 0C12.9877 0 0.582031 13.0097 0.582031 29.058C0.582031 45.1064 12.9877 58.1161 28.291 58.1161Z" fill="black"/>
        <path d="M55.9999 29.0062C55.9999 47.842 43.5983 58.0123 28.291 58.0123C12.9836 58.0123 0.582031 47.842 0.582031 29.0062C0.582031 12.9723 12.9836 0 28.291 0C43.5983 0 55.9999 13.0242 55.9999 29.0062Z" fill="#090909"/>
        <path d="M28.291 57.9085C43.5942 57.9085 55.9999 44.9453 55.9999 28.9543C55.9999 12.9633 43.5942 0 28.291 0C12.9877 0 0.582031 12.9633 0.582031 28.9543C0.582031 44.9453 12.9877 57.9085 28.291 57.9085Z" fill="#121212"/>
        <path d="M55.9999 28.9024C55.9999 47.4788 43.5983 57.8048 28.291 57.8048C12.9836 57.8048 0.582031 47.4788 0.582031 28.9024C0.582031 12.9723 12.9836 0 28.291 0C43.5983 0 55.9999 12.9723 55.9999 28.9024Z" fill="#1B1B1B"/>
        <path d="M28.291 57.701C43.5942 57.701 55.9999 44.7842 55.9999 28.8505C55.9999 12.9168 43.5942 0 28.291 0C12.9877 0 0.582031 12.9168 0.582031 28.8505C0.582031 44.7842 12.9877 57.701 28.291 57.701Z" fill="#232323"/>
        <path d="M55.9999 28.7986C55.9999 47.0637 43.5983 57.5972 28.291 57.5972C12.9836 57.5972 0.582031 47.1156 0.582031 28.7986C0.582031 12.9205 12.9836 0 28.291 0C43.5983 0 55.9999 12.9205 55.9999 28.7986Z" fill="#2C2C2C"/>
        <path d="M55.9999 28.7467C55.9999 46.8561 43.5983 57.4934 28.291 57.4934C12.9836 57.4934 0.582031 46.908 0.582031 28.7467C0.582031 12.8686 12.9836 0 28.291 0C43.5983 0 55.9999 12.8686 55.9999 28.7467Z" fill="#353535"/>
        <path d="M28.291 57.3896C43.5942 57.3896 55.9999 44.5425 55.9999 28.6948C55.9999 12.8471 43.5942 0 28.291 0C12.9877 0 0.582031 12.8471 0.582031 28.6948C0.582031 44.5425 12.9877 57.3896 28.291 57.3896Z" fill="#3E3E3E"/>
        <path d="M28.291 57.2859C43.5942 57.2859 55.9999 44.462 55.9999 28.6429C55.9999 12.8239 43.5942 0 28.291 0C12.9877 0 0.582031 12.8239 0.582031 28.6429C0.582031 44.462 12.9877 57.2859 28.291 57.2859Z" fill="#474747"/>
        <path d="M28.291 57.1821C43.5942 57.1821 55.9999 44.3815 55.9999 28.5911C55.9999 12.8007 43.5942 0 28.291 0C12.9877 0 0.582031 12.8007 0.582031 28.5911C0.582031 44.3815 12.9877 57.1821 28.291 57.1821Z" fill="#505050"/>
        <path d="M28.291 57.0783C43.5942 57.0783 55.9999 44.3009 55.9999 28.5392C55.9999 12.7774 43.5942 0 28.291 0C12.9877 0 0.582031 12.7774 0.582031 28.5392C0.582031 44.3009 12.9877 57.0783 28.291 57.0783Z" fill="#585858"/>
        <path d="M28.291 56.9745C43.5942 56.9745 55.9999 44.2204 55.9999 28.4873C55.9999 12.7542 43.5942 0 28.291 0C12.9877 0 0.582031 12.7542 0.582031 28.4873C0.582031 44.2204 12.9877 56.9745 28.291 56.9745Z" fill="#616161"/>
        <path d="M28.291 56.8708C43.5942 56.8708 55.9999 44.1398 55.9999 28.4354C55.9999 12.731 43.5942 0 28.291 0C12.9877 0 0.582031 12.731 0.582031 28.4354C0.582031 44.1398 12.9877 56.8708 28.291 56.8708Z" fill="#6A6A6A"/>
        <path d="M28.291 56.767C43.5942 56.767 55.9999 44.0593 55.9999 28.3835C55.9999 12.7077 43.5942 0 28.291 0C12.9877 0 0.582031 12.7077 0.582031 28.3835C0.582031 44.0593 12.9877 56.767 28.291 56.767Z" fill="#737373"/>
        <path d="M55.9999 28.3316C55.9999 45.3513 43.5983 56.6632 28.291 56.6632C12.9836 56.6632 0.582031 45.3513 0.582031 28.3316C0.582031 12.7129 12.9836 0 28.291 0C43.5983 0 55.9999 12.7129 55.9999 28.3316Z" fill="#7C7C7C"/>
        <path d="M55.9999 28.2797C55.9999 45.1438 43.5983 56.5594 28.291 56.5594C12.9836 56.5594 0.582031 45.1438 0.582031 28.2797C0.582031 12.661 12.9836 0 28.291 0C43.5983 0 55.9999 12.661 55.9999 28.2797Z" fill="#858585"/>
        <path d="M55.9999 28.2278C55.9999 44.9362 43.5983 56.4556 28.291 56.4556C12.9836 56.4556 0.582031 44.9362 0.582031 28.2278C0.582031 12.661 12.9836 0 28.291 0C43.5983 0 55.9999 12.661 55.9999 28.2278Z" fill="#8E8E8E"/>
        <path d="M55.9999 28.1759C55.9999 44.7286 43.5983 56.3519 28.291 56.3519C12.9836 56.3519 0.582031 44.7805 0.582031 28.1759C0.582031 12.6091 12.9836 0 28.291 0C43.5983 0 55.9999 12.6091 55.9999 28.1759Z" fill="#969696"/>
        <path d="M55.9999 28.124C55.9999 44.573 43.5983 56.2481 28.291 56.2481C12.9836 56.2481 0.582031 44.573 0.582031 28.124C0.582031 12.6091 12.9836 0 28.291 0C43.5983 0 55.9999 12.6091 55.9999 28.124Z" fill="#9F9F9F"/>
        <path d="M55.9999 28.0722C55.9999 44.3654 43.5983 56.1443 28.291 56.1443C12.9836 56.1443 0.582031 44.3654 0.582031 28.0722C0.582031 12.5572 12.9836 0 28.291 0C43.5983 0 55.9999 12.5572 55.9999 28.0722Z" fill="#A8A8A8"/>
        <path d="M28.291 56.0405C43.5942 56.0405 55.9999 43.4954 55.9999 28.0203C55.9999 12.5451 43.5942 0 28.291 0C12.9877 0 0.582031 12.5451 0.582031 28.0203C0.582031 43.4954 12.9877 56.0405 28.291 56.0405Z" fill="#B1B1B1"/>
        <path d="M28.291 55.9367C43.5942 55.9367 55.9999 43.4149 55.9999 27.9684C55.9999 12.5219 43.5942 0 28.291 0C12.9877 0 0.582031 12.5219 0.582031 27.9684C0.582031 43.4149 12.9877 55.9367 28.291 55.9367Z" fill="#BABABA"/>
        <path d="M55.9999 27.9165C55.9999 43.7946 43.5983 55.833 28.291 55.833C12.9836 55.833 0.582031 43.7946 0.582031 27.9165C0.582031 12.5053 12.9836 0 28.291 0C43.5983 0 55.9999 12.5053 55.9999 27.9165Z" fill="#C3C3C3"/>
        <path d="M55.9999 27.8646C55.9999 43.5871 43.5983 55.7292 28.291 55.7292C12.9836 55.7292 0.582031 43.5871 0.582031 27.8646C0.582031 12.5053 12.9836 0 28.291 0C43.5983 0 55.9999 12.5053 55.9999 27.8646Z" fill="#CBCBCB"/>
        <path d="M55.9999 27.8127C55.9999 43.3795 43.5983 55.6254 28.291 55.6254C12.9836 55.6254 0.582031 43.3795 0.582031 27.8127C0.582031 12.4535 12.9836 0 28.291 0C43.5983 0 55.9999 12.4535 55.9999 27.8127Z" fill="#D4D4D4"/>
        <path d="M55.9999 27.7608C55.9999 43.172 43.5983 55.5216 28.291 55.5216C12.9836 55.5216 0.582031 43.2238 0.582031 27.7608C0.582031 12.4534 12.9836 0 28.291 0C43.5983 0 55.9999 12.4534 55.9999 27.7608Z" fill="#DDDDDD"/>
        <path d="M55.9999 27.7089C55.9999 43.0163 43.5983 55.4179 28.291 55.4179C12.9836 55.4179 0.582031 43.0163 0.582031 27.7089C0.582031 12.4016 12.9836 0 28.291 0C43.5983 0 55.9999 12.4016 55.9999 27.7089Z" fill="#E6E6E6"/>
    </mask>
    <g mask="url(#mask0)">
        <path d="M28.291 58.1161C43.5942 58.1161 55.9999 45.1064 55.9999 29.058C55.9999 13.0097 43.5942 0 28.291 0C12.9877 0 0.582031 13.0097 0.582031 29.058C0.582031 45.1064 12.9877 58.1161 28.291 58.1161Z" fill="#1A1A1A"/>
        <path d="M55.9999 27.7089C55.9999 43.0163 43.5983 55.4179 28.291 55.4179C12.9836 55.4179 0.582031 43.0163 0.582031 27.7089C0.582031 12.4016 12.9836 0 28.291 0C43.5983 0 55.9999 12.4016 55.9999 27.7089Z" fill="url(#paint0_linear)"/>
        <path d="M55.7405 27.7088C55.7405 42.8605 43.4427 55.1582 28.291 55.1582C13.1393 55.1582 0.841553 42.8605 0.841553 27.7088C0.841553 12.5571 13.1393 0.259277 28.291 0.259277C43.4427 0.259277 55.7405 12.5571 55.7405 27.7088Z" fill="url(#paint1_linear)"/>
        <path d="M53.7686 27.7086C53.7686 41.7707 42.3529 53.1863 28.2909 53.1863C14.2289 53.1863 2.81323 41.7707 2.81323 27.7086C2.81323 13.6466 14.2289 2.23096 28.2909 2.23096C42.3529 2.23096 53.7686 13.6466 53.7686 27.7086Z" fill="url(#paint2_linear)"/>
        <path d="M28.2909 52.6155C42.0466 52.6155 53.1978 41.4644 53.1978 27.7087C53.1978 13.953 42.0466 2.80176 28.2909 2.80176C14.5352 2.80176 3.38403 13.953 3.38403 27.7087C3.38403 41.4644 14.5352 52.6155 28.2909 52.6155Z" fill="url(#paint3_linear)"/>
    </g>
    <mask id="mask1" mask-type="alpha" maskUnits="userSpaceOnUse" x="3" y="2" width="51" height="51">
        <path d="M28.2909 52.6155C42.0466 52.6155 53.1978 41.4644 53.1978 27.7087C53.1978 13.953 42.0466 2.80176 28.2909 2.80176C14.5352 2.80176 3.38403 13.953 3.38403 27.7087C3.38403 41.4644 14.5352 52.6155 28.2909 52.6155Z" fill="url(#paint4_radial)"/>
    </mask>
    <g mask="url(#mask1)">
        <path opacity="0.9" d="M53.1978 27.7087C53.1978 41.4593 42.0416 52.6155 28.2909 52.6155C14.5402 52.6155 3.38403 41.4593 3.38403 27.7087C3.38403 13.958 14.5402 2.80176 28.2909 2.80176C42.0416 2.80176 53.1978 13.958 53.1978 27.7087ZM28.2909 4.82544C15.6299 4.82544 5.40772 15.0476 5.40772 27.7087C5.40772 40.3697 15.6299 50.5919 28.2909 50.5919C40.9519 50.5919 51.1741 40.3697 51.1741 27.7087C51.1741 15.0476 40.9 4.82544 28.2909 4.82544Z" fill="#8E5201"/>
    </g>
    <path opacity="0.15" d="M50.9668 24.5435C49.4101 13.4392 39.9143 4.87744 28.3949 4.87744H28.343H28.2911C16.7717 4.87744 7.27593 13.4392 5.71925 24.5435C5.61547 25.2181 5.87492 25.6851 6.34192 25.9445C12.5686 28.5909 20.1445 30.0957 28.343 30.0957C36.5415 30.0957 44.1174 28.539 50.3441 25.9445C50.8111 25.6851 51.0706 25.27 50.9668 24.5435Z" fill="white"/>
    <defs>
        <linearGradient id="paint0_linear" x1="28.2855" y1="55.3992" x2="28.2855" y2="0.0209601" gradientUnits="userSpaceOnUse">
            <stop stop-color="#969696"/>
            <stop offset="0.061019" stop-color="#848484"/>
            <stop offset="0.1835" stop-color="#545454"/>
            <stop offset="0.2" stop-color="#4D4D4D"/>
            <stop offset="0.2239" stop-color="#535353"/>
            <stop offset="0.2553" stop-color="#636363"/>
            <stop offset="0.2907" stop-color="#7E7E7E"/>
            <stop offset="0.3292" stop-color="#A4A4A4"/>
            <stop offset="0.3696" stop-color="#D4D4D4"/>
            <stop offset="0.4" stop-color="#FDFDFD"/>
            <stop offset="0.6" stop-color="#C1C1C1"/>
            <stop offset="0.8" stop-color="#FDFDFD"/>
            <stop offset="1" stop-color="#969696"/>
        </linearGradient>
        <linearGradient id="paint1_linear" x1="28.2857" y1="0.276193" x2="28.2857" y2="55.1446" gradientUnits="userSpaceOnUse">
            <stop stop-color="#F0F0F0"/>
            <stop offset="0.0328408" stop-color="#DEDEDE"/>
            <stop offset="0.0990913" stop-color="#AEAEAE"/>
            <stop offset="0.192" stop-color="#616161"/>
            <stop offset="0.2" stop-color="#5A5A5A"/>
            <stop offset="0.2251" stop-color="#606060"/>
            <stop offset="0.258" stop-color="#707070"/>
            <stop offset="0.2951" stop-color="#8B8B8B"/>
            <stop offset="0.3355" stop-color="#B1B1B1"/>
            <stop offset="0.3779" stop-color="#E1E1E1"/>
            <stop offset="0.4" stop-color="#FDFDFD"/>
            <stop offset="0.6" stop-color="#C1C1C1"/>
            <stop offset="0.8" stop-color="#FDFDFD"/>
            <stop offset="1" stop-color="#464646"/>
        </linearGradient>
        <linearGradient id="paint2_linear" x1="28.2854" y1="2.21331" x2="28.2854" y2="53.2073" gradientUnits="userSpaceOnUse">
            <stop stop-color="#F0F0F0"/>
            <stop offset="0.0328408" stop-color="#DEDEDE"/>
            <stop offset="0.0990913" stop-color="#AEAEAE"/>
            <stop offset="0.192" stop-color="#616161"/>
            <stop offset="0.2" stop-color="#5A5A5A"/>
            <stop offset="0.2251" stop-color="#606060"/>
            <stop offset="0.258" stop-color="#707070"/>
            <stop offset="0.2951" stop-color="#8B8B8B"/>
            <stop offset="0.3355" stop-color="#B1B1B1"/>
            <stop offset="0.3779" stop-color="#E1E1E1"/>
            <stop offset="0.4" stop-color="#FDFDFD"/>
            <stop offset="0.6" stop-color="#C1C1C1"/>
            <stop offset="0.8" stop-color="#FDFDFD"/>
            <stop offset="1" stop-color="#464646"/>
        </linearGradient>
        <linearGradient id="paint3_linear" x1="28.2855" y1="2.78546" x2="28.2855" y2="52.6347" gradientUnits="userSpaceOnUse">
            <stop stop-color="#FEDE84"/>
            <stop offset="0.5" stop-color="#FFC80E"/>
            <stop offset="1" stop-color="#FB8400"/>
        </linearGradient>
        <radialGradient id="paint4_radial" cx="0" cy="0" r="1" gradientUnits="userSpaceOnUse" gradientTransform="translate(28.2855 27.7101) scale(24.9244)">
            <stop offset="0.92"/>
            <stop offset="1" stop-color="#E6E6E6"/>
        </radialGradient>
    </defs>
</svg>
