<svg width="37" height="37" viewBox="0 0 37 37" fill="none" xmlns="http://www.w3.org/2000/svg">
    <path d="M27.7499 0H9.2499C8.22821 0 7.3999 0.828236 7.3999 1.85V35.15C7.3999 36.1717 8.22814 37 9.2499 37H27.7499C28.7716 37 29.5999 36.1718 29.5999 35.15V1.85C29.5999 0.828236 28.7716 0 27.7499 0ZM28.3665 4.93336H14.1833C13.8427 4.93336 13.5666 5.20941 13.5666 5.55C13.5666 5.89059 13.8427 6.16664 14.1833 6.16664H28.3666V30.2166H26.5166C26.176 30.2166 25.9 30.4927 25.9 30.8333C25.9 31.1739 26.176 31.4499 26.5166 31.4499H28.3666V35.1499C28.3666 35.4905 28.0906 35.7666 27.75 35.7666H9.2499C8.90931 35.7666 8.63326 35.4905 8.63326 35.1499V31.4499H22.8166C23.1572 31.4499 23.4333 31.1739 23.4333 30.8333C23.4333 30.4927 23.1572 30.2166 22.8166 30.2166H8.63326V6.16664H10.4833C10.8238 6.16664 11.0999 5.89059 11.0999 5.55C11.0999 5.20941 10.8238 4.93336 10.4833 4.93336H8.63326V1.85C8.63326 1.50941 8.90931 1.23336 9.2499 1.23336H27.7499C28.0905 1.23336 28.3665 1.50941 28.3665 1.85V4.93336Z" fill="#FFD600"/>
    <path d="M19.1166 33.2998H17.8832C17.5427 33.2998 17.2666 33.5759 17.2666 33.9164C17.2666 34.257 17.5427 34.5331 17.8832 34.5331H19.1166C19.4572 34.5331 19.7333 34.257 19.7333 33.9164C19.7333 33.5759 19.4572 33.2998 19.1166 33.2998Z" fill="#FFD600"/>
    <path d="M12.5084 10.0545L11.1036 10.8962C10.5869 11.2008 10.2083 11.6937 10.0472 12.2714C9.51809 14.2009 9.89431 17.5081 14.6938 22.307C18.4937 26.1063 21.3582 27.133 23.3445 27.133C23.8122 27.135 24.278 27.0742 24.7295 26.9524C25.3068 26.791 25.7992 26.4125 26.1034 25.896L26.9483 24.4919C27.3113 23.8895 27.1357 23.1081 26.5499 22.719L23.1866 20.4798C22.6115 20.1009 21.842 20.2262 21.4167 20.7678L20.4393 22.0246C20.416 22.0569 20.3723 22.0672 20.3369 22.0486L20.1519 21.9456C19.0826 21.3616 18.1182 20.6032 17.2986 19.7016C16.3971 18.8819 15.6386 17.9176 15.0545 16.8482L14.9515 16.6596C14.9327 16.6244 14.943 16.5808 14.9756 16.5578L16.2329 15.5798C16.7746 15.1547 16.8994 14.385 16.5197 13.8106L14.2812 10.4522C13.8914 9.86746 13.1108 9.69236 12.5084 10.0545ZM13.2545 11.1367L14.4718 12.9633L15.493 14.4915C15.5169 14.5281 15.5092 14.5769 15.4752 14.6043L14.2178 15.5817C13.7023 15.9769 13.5556 16.6909 13.8737 17.2572L13.9711 17.4361C14.6094 18.6103 15.4391 19.6699 16.426 20.5712C17.3273 21.5581 18.3869 22.3878 19.5611 23.0261L19.7393 23.1235C20.3059 23.4414 21.02 23.2948 21.4155 22.7794L22.3929 21.5226C22.4199 21.4884 22.4685 21.4804 22.5051 21.5041L25.8622 23.742C25.8996 23.7666 25.9108 23.8165 25.8875 23.8548L25.0457 25.2584C24.9044 25.5024 24.6741 25.6823 24.4031 25.7603C23.0797 26.1242 20.1765 26.0452 15.5657 21.4338C10.9543 16.823 10.8741 13.9179 11.2367 12.5964C11.3148 12.3254 11.4947 12.0951 11.7387 11.9538L13.1422 11.112C13.1551 11.1039 13.1701 11.0996 13.1854 11.0997C13.2133 11.0998 13.2391 11.1137 13.2545 11.1367Z" fill="#FFD600"/>
</svg>
