<svg width="71" height="71" viewBox="0 0 71 71" fill="none" xmlns="http://www.w3.org/2000/svg">
    <g clip-path="url(#clip0)">
        <path d="M22.6174 25.4619C22.1713 25.0999 21.5164 25.1683 21.1546 25.6144C20.7122 26.16 20.1249 26.4603 19.5009 26.4603C18.8769 26.4603 18.2896 26.16 17.8472 25.6144C17.4856 25.1683 16.8305 25.1001 16.3844 25.4619C15.9383 25.8237 15.87 26.4786 16.2318 26.9247C17.0644 27.9513 18.2559 28.5403 19.5008 28.5403C20.7456 28.5403 21.9371 27.9513 22.77 26.9247C23.1317 26.4786 23.0635 25.8237 22.6174 25.4619Z" fill="black"/>
        <path d="M14.5779 19.0762C14.0035 19.0762 13.5378 19.5418 13.5378 20.1162V21.3469C13.5378 21.9213 14.0035 22.387 14.5779 22.387C15.1523 22.387 15.6179 21.9213 15.6179 21.3469V20.1162C15.6179 19.5418 15.1523 19.0762 14.5779 19.0762Z" fill="black"/>
        <path d="M24.4236 19.0762C23.8492 19.0762 23.3835 19.5418 23.3835 20.1162V21.3469C23.3835 21.9213 23.8492 22.387 24.4236 22.387C24.998 22.387 25.4636 21.9213 25.4636 21.3469V20.1162C25.4636 19.5418 24.998 19.0762 24.4236 19.0762Z" fill="black"/>
        <path d="M9.35454 47.957L6.8931 43.0342C6.63628 42.5204 6.01156 42.3121 5.49778 42.5691C4.984 42.8259 4.77572 43.4506 5.03268 43.9644L7.38428 48.6677V68.1136C7.38428 68.6879 7.84994 69.1536 8.42432 69.1536C8.9987 69.1536 9.46437 68.6879 9.46437 68.1136V48.4221C9.46437 48.2606 9.42678 48.1014 9.35454 47.957Z" fill="black"/>
        <path d="M33.5037 42.5691C32.9899 42.3121 32.3652 42.5204 32.1084 43.0342L29.6469 47.957C29.5747 48.1015 29.5371 48.2606 29.5371 48.4221V68.1136C29.5371 68.6879 30.0028 69.1536 30.5772 69.1536C31.1515 69.1536 31.6172 68.6879 31.6172 68.1136V48.6677L33.9688 43.9644C34.2258 43.4507 34.0175 42.826 33.5037 42.5691Z" fill="black"/>
        <path d="M55.8468 31.6152C55.4007 31.2533 54.7457 31.3216 54.3839 31.7677C53.9416 32.3133 53.3543 32.6136 52.7303 32.6136C52.1062 32.6136 51.519 32.3133 51.0766 31.7677C50.7149 31.3216 50.0599 31.2534 49.6138 31.6152C49.1676 31.977 49.0994 32.6319 49.4612 33.0781C50.2939 34.1048 51.4856 34.6936 52.7304 34.6936C53.9753 34.6936 55.1665 34.1048 55.9993 33.0781C56.3611 32.6319 56.2929 31.977 55.8468 31.6152Z" fill="black"/>
        <path d="M47.8073 25.2295C47.2329 25.2295 46.7672 25.6952 46.7672 26.2695V27.5002C46.7672 28.0746 47.2329 28.5403 47.8073 28.5403C48.3816 28.5403 48.8473 28.0746 48.8473 27.5002V26.2695C48.8473 25.695 48.3816 25.2295 47.8073 25.2295Z" fill="black"/>
        <path d="M57.653 25.2295C57.0786 25.2295 56.6129 25.6952 56.6129 26.2695V27.5002C56.6129 28.0746 57.0786 28.5403 57.653 28.5403C58.2273 28.5403 58.693 28.0746 58.693 27.5002V26.2695C58.693 25.6952 58.2273 25.2295 57.653 25.2295Z" fill="black"/>
        <path d="M68.0255 46.5293L59.5865 43.1536C59.0437 42.9366 58.693 42.4185 58.693 41.8339V39.2778C59.2705 38.9519 59.8228 38.579 60.3419 38.1594C62.4551 36.4513 63.9482 34.0591 64.5463 31.4236C64.7455 30.5454 64.8466 29.6398 64.8466 28.7317C64.8466 22.6738 60.4586 21.8027 56.2152 20.9603C53.5014 20.4215 50.6953 19.8644 48.457 18.0738C48.2121 17.8779 47.8914 17.8035 47.5853 17.8705C47.2789 17.9374 47.0188 18.1394 46.8776 18.4195C46.8718 18.431 46.2891 19.5781 45.3036 20.6951C44.4689 21.6412 43.158 22.7688 41.6536 22.7688C41.1477 22.7688 40.6669 22.8776 40.2322 23.0716V21.3475C40.2322 14.4561 45.8387 8.84962 52.73 8.84962C59.6213 8.84962 65.2278 14.4561 65.2278 21.3475V23.8089C65.2278 24.3833 65.6935 24.8489 66.2679 24.8489C66.8423 24.8489 67.3079 24.3833 67.3079 23.8089V21.3475C67.3079 15.8951 64.2987 11.1333 59.8543 8.63302C59.8994 8.36094 59.9236 8.08582 59.9236 7.80958C59.9236 4.52167 56.6966 1.84668 52.73 1.84668C48.7634 1.84668 45.5364 4.52167 45.5364 7.80958C45.5364 8.08596 45.5604 8.36108 45.6056 8.63316C41.1613 11.1334 38.1521 15.8953 38.1521 21.3475V26.2703C38.1521 27.8509 39.2049 29.1903 40.6461 29.6241C40.6905 30.2312 40.7799 30.8336 40.9139 31.4236C41.512 34.0591 43.0052 36.4513 45.1183 38.1594C45.6373 38.579 46.1897 38.9519 46.7671 39.2778V41.8339C46.7671 42.4185 46.4164 42.9365 45.8736 43.1536L37.4347 46.5292C35.6277 47.252 34.4601 48.9766 34.4601 50.9229V57.0389C34.4601 57.3148 34.5698 57.5794 34.7649 57.7745C34.9599 57.9695 35.2243 58.0789 35.5001 58.0789C35.5003 58.0789 35.5004 58.0789 35.5007 58.0789H35.6908V68.1148C35.6908 68.6891 36.1565 69.1548 36.7308 69.1548C37.3052 69.1548 37.7709 68.6891 37.7709 68.1148V58.0784H40.6137V68.1148C40.6137 68.6891 41.0793 69.1548 41.6537 69.1548C42.2281 69.1548 42.6937 68.6891 42.6937 68.1148V54.5769C42.6937 54.0025 42.2281 53.5369 41.6537 53.5369C41.0793 53.5369 40.6137 54.0025 40.6137 54.5769V55.9983H36.7308C36.7307 55.9983 36.7306 55.9983 36.7303 55.9983H36.5402V50.9229C36.5402 49.8321 37.1946 48.8655 38.2073 48.4605L44.7701 45.8354C45.6412 47.3117 48.1139 50.9702 52.2649 53.0457C52.4113 53.1189 52.5707 53.1555 52.73 53.1555C52.8893 53.1555 53.0487 53.1189 53.1951 53.0457C57.3461 50.9702 59.8189 47.3117 60.6899 45.8354L67.2529 48.4606C68.2656 48.8657 68.92 49.8324 68.92 50.923V55.9984H68.7293H64.8465V54.577C64.8465 54.0027 64.3808 53.537 63.8064 53.537C63.2321 53.537 62.7664 54.0027 62.7664 54.577V68.1149C62.7664 68.6893 63.2321 69.1549 63.8064 69.1549C64.3808 69.1549 64.8465 68.6893 64.8465 68.1149V58.0785H67.6893V68.1149C67.6893 68.6893 68.1549 69.1549 68.7293 69.1549C69.3037 69.1549 69.7693 68.6893 69.7693 68.1149V58.0785H69.96C70.5344 58.0785 71.0001 57.6128 71.0001 57.0385V50.923C71.0002 48.9769 69.8326 47.2522 68.0255 46.5293ZM52.7301 3.92704C55.499 3.92704 57.7592 5.60691 57.8398 7.6949C56.2488 7.0975 54.5272 6.76982 52.7301 6.76982C50.9331 6.76982 49.2113 7.0975 47.6205 7.6949C47.7011 5.60691 49.9613 3.92704 52.7301 3.92704ZM46.426 36.542C44.6747 35.1263 43.4376 33.1453 42.9424 30.9635C42.7774 30.2362 42.6937 29.4853 42.6937 28.732C42.6937 28.1576 42.2281 27.692 41.6537 27.692C40.8699 27.692 40.2323 27.0544 40.2323 26.2706C40.2323 25.4868 40.8699 24.8492 41.6537 24.8492C44.8075 24.8492 47.0951 21.9934 48.128 20.3956C50.5535 21.9572 53.3277 22.508 55.8102 23.001C60.3812 23.9084 62.7665 24.5755 62.7665 28.7322C62.7665 29.4856 62.6828 30.2363 62.5179 30.9637C62.0228 33.1454 60.7856 35.1265 59.0343 36.542C57.2323 37.9986 55.0523 38.7686 52.7301 38.7686C50.4079 38.7686 48.228 37.9986 46.426 36.542ZM52.7301 50.9406C49.5923 49.2074 47.5739 46.4027 46.7295 45.0482C48.0183 44.4942 48.8473 43.2436 48.8473 41.834V40.2053C50.0912 40.6261 51.4033 40.8485 52.7301 40.8485C54.057 40.8485 55.3691 40.6261 56.613 40.2053V41.834C56.613 43.2436 57.4419 44.494 58.7308 45.048C57.886 46.4033 55.8676 49.2077 52.7301 50.9406Z" fill="black"/>
        <path d="M35.6292 38.0217L28.876 35.9958L27.7504 34.3075C27.5867 34.0619 27.3263 33.8974 27.0343 33.8551C26.92 33.8385 26.8053 33.8418 26.6942 33.8625V32.3175C29.4531 30.2746 31.3197 27.0918 31.5847 23.4695C33.0257 23.0358 34.0785 21.6963 34.0785 20.1158C34.0785 19.0926 33.6187 18.1229 32.8478 17.4637V10.27C32.8478 8.29784 31.849 6.45309 30.2119 5.34759C29.6649 3.29136 27.8205 1.8457 25.6543 1.8457H15.8086C10.4847 1.8457 6.15358 6.17685 6.15358 11.5008V17.4637C5.3827 18.1229 4.92286 19.0925 4.92286 20.1158C4.92286 21.6963 5.97566 23.0358 7.41674 23.4695C7.68174 27.0918 9.54813 30.2746 12.3072 32.3175V33.8623C12.1961 33.8415 12.0814 33.8382 11.9671 33.855C11.6751 33.8974 11.4148 34.0617 11.251 34.3073L10.1254 35.9957L3.37223 38.0215C1.35524 38.6268 0 40.4483 0 42.5543V68.1137C0 68.688 0.465661 69.1537 1.04004 69.1537C1.61442 69.1537 2.08008 68.688 2.08008 68.1137V42.5543C2.08008 41.3741 2.83973 40.3532 3.97018 40.014L8.61598 38.6202C8.62499 38.8359 8.70112 39.0489 8.84285 39.226L13.0205 44.4481C13.4705 45.0106 14.1267 45.3042 14.7915 45.3042C15.2659 45.3042 15.7448 45.1545 16.156 44.8461L18.4606 43.1177V68.1134C18.4606 68.6878 18.9263 69.1534 19.5006 69.1534C20.075 69.1534 20.5407 68.6878 20.5407 68.1134V43.1177L22.8453 44.8461C23.2564 45.1545 23.7353 45.3042 24.2098 45.3042C24.8746 45.3042 25.5309 45.0105 25.9808 44.4481L30.1584 39.226C30.3004 39.0489 30.3764 38.8359 30.3856 38.6202L35.0314 40.014C36.1618 40.3532 36.9215 41.3741 36.9215 42.5543C36.9215 43.1287 37.3871 43.5943 37.9615 43.5943C38.5359 43.5943 39.0015 43.1287 39.0015 42.5543C39.0015 40.4483 37.6463 38.6268 35.6292 38.0217ZM9.46437 22.5772C9.46437 22.0028 8.99871 21.5371 8.42433 21.5371C7.64056 21.5371 7.00294 20.8995 7.00294 20.1158C7.00294 19.6113 7.26975 19.1548 7.71669 18.8946C7.73971 18.8812 7.76065 18.8654 7.78242 18.8504C7.9803 18.7498 8.19982 18.6944 8.42433 18.6944H9.87678C10.9555 18.6944 11.892 17.9267 12.1034 16.869L12.8602 13.0858C12.8707 13.0329 12.8983 12.9927 12.942 12.9662C12.9764 12.9454 13.0334 12.9256 13.1096 12.9479C14.957 13.4868 17.1671 13.7715 19.5008 13.7715C22.4955 13.7715 25.2602 13.306 27.2857 12.4605C27.8157 12.2392 28.066 11.6301 27.8448 11.1C27.6235 10.57 27.0146 10.3198 26.4843 10.5409C24.7327 11.2719 22.1873 11.6913 19.5006 11.6913C17.3918 11.6913 15.329 11.4284 13.6921 10.9509C13.0751 10.7711 12.4088 10.857 11.864 11.1872C11.3248 11.5139 10.9444 12.0572 10.8203 12.6779L10.0636 16.4611C10.0458 16.5498 9.9672 16.6143 9.87665 16.6143H8.42433C8.36068 16.6143 8.29717 16.6171 8.23366 16.6205V11.5008C8.23366 7.32395 11.6318 3.92579 15.8086 3.92579H25.6543C26.959 3.92579 28.0552 4.86598 28.2608 6.16132C28.3106 6.47472 28.5007 6.74832 28.7771 6.90419C30.005 7.59671 30.7677 8.88637 30.7677 10.27V17.9957C30.7677 18.366 30.9647 18.7084 31.2847 18.8946C31.7317 19.1548 31.9985 19.6113 31.9985 20.1158C31.9985 20.8995 31.3608 21.5371 30.5771 21.5371C30.0027 21.5371 29.537 22.0028 29.537 22.5772C29.537 28.1113 25.0348 32.6136 19.5006 32.6136C13.9665 32.6136 9.46437 28.1112 9.46437 22.5772ZM14.9081 43.1822C14.8252 43.2445 14.7096 43.2296 14.6449 43.1488L10.9422 38.5205L12.3397 36.4242L17.8246 40.9948L14.9081 43.1822ZM19.5008 39.6841L14.3872 35.4228V33.5591C15.9419 34.2858 17.6743 34.6937 19.5008 34.6937C21.3272 34.6937 23.0597 34.286 24.6143 33.5591V35.4228L19.5008 39.6841ZM24.3567 43.1488C24.2919 43.2298 24.1764 43.2443 24.0935 43.1822L21.1769 40.9949L26.6618 36.4243L28.0593 38.5206L24.3567 43.1488Z" fill="black"/>
        <path d="M15.8209 51.0752H15.8086C15.2342 51.0752 14.7747 51.5409 14.7747 52.1152C14.7747 52.6896 15.2464 53.1553 15.8208 53.1553C16.3952 53.1553 16.8608 52.6896 16.8608 52.1152C16.8608 51.5409 16.3953 51.0752 15.8209 51.0752Z" fill="black"/>
        <path d="M15.8209 60.9209H15.8086C15.2342 60.9209 14.7747 61.3866 14.7747 61.9609C14.7747 62.5353 15.2464 63.001 15.8208 63.001C16.3952 63.001 16.8608 62.5353 16.8608 61.9609C16.8608 61.3866 16.3953 60.9209 15.8209 60.9209Z" fill="black"/>
        <path d="M15.8209 55.998H15.8086C15.2342 55.998 14.7747 56.4637 14.7747 57.0381C14.7747 57.6125 15.2464 58.0781 15.8208 58.0781C16.3952 58.0781 16.8608 57.6125 16.8608 57.0381C16.8608 56.4637 16.3953 55.998 15.8209 55.998Z" fill="black"/>
    </g>
    <defs>
        <clipPath id="clip0">
            <rect width="71" height="71" fill="white"/>
        </clipPath>
    </defs>
</svg>
