<svg width="76" height="76" viewBox="0 0 76 76" fill="none" xmlns="http://www.w3.org/2000/svg">
    <path d="M22.8115 15.4191H53.0994C53.6712 15.4191 54.1343 14.9538 54.1343 14.382C54.1343 13.808 53.6712 13.3428 53.0994 13.3428H22.8115C22.2375 13.3428 21.7722 13.808 21.7722 14.382C21.7722 14.9538 22.2375 15.4191 22.8115 15.4191Z" fill="black"/>
    <path d="M10.8798 10.3661V72.7444C10.8863 74.5403 12.3408 75.9948 14.1344 75.9991H61.772C63.5701 75.9948 65.0246 74.5403 65.0267 72.7444V10.3661C65.0246 8.56813 63.5701 7.11363 61.772 7.11146H45.953C45.4312 2.6936 41.4286 -0.465422 37.0108 0.0563713C33.3104 0.491199 30.3927 3.41107 29.9557 7.11146H14.1344C12.3386 7.11363 10.8819 8.56813 10.8798 10.3661ZM62.9439 72.7444C62.9439 73.3945 62.4178 73.9206 61.7677 73.9206H14.1344C13.4844 73.9206 12.9582 73.3945 12.9582 72.7444V20.4194H62.9526L62.9439 72.7444ZM37.9543 2.05658C40.8981 2.06093 43.3962 4.20463 43.855 7.11146H32.082C32.5364 4.2155 35.0214 2.07397 37.9543 2.05658ZM61.772 9.18559C62.4243 9.18559 62.9526 9.71608 62.9526 10.3661V18.3409H12.9582V10.3661C12.9582 9.71608 13.4844 9.18559 14.1344 9.18559H61.772Z" fill="black"/>
    <path d="M31.8602 31.8644H56.4149C56.9867 31.8644 57.452 31.3991 57.452 30.8273C57.452 30.2512 56.9867 29.7881 56.4149 29.7881H31.8602C31.2862 29.7881 30.8231 30.2512 30.8231 30.8273C30.8231 31.3991 31.2862 31.8644 31.8602 31.8644Z" fill="black"/>
    <path d="M31.8602 42.7015H56.4149C56.9867 42.7015 57.452 42.2363 57.452 41.6623C57.452 41.0883 56.9867 40.623 56.4149 40.623H31.8602C31.2862 40.623 30.8231 41.0883 30.8231 41.6623C30.8231 42.2363 31.2862 42.7015 31.8602 42.7015Z" fill="black"/>
    <path d="M31.8602 53.5316H56.4149C56.9867 53.5316 57.452 53.0642 57.452 52.4924C57.452 51.9184 56.9867 51.4531 56.4149 51.4531H31.8602C31.2862 51.4531 30.8231 51.9184 30.8231 52.4924C30.8231 53.0642 31.2862 53.5316 31.8602 53.5316Z" fill="black"/>
    <path d="M31.8602 64.3583H56.4149C56.9867 64.3583 57.452 63.8952 57.452 63.3191C57.452 62.7473 56.9867 62.2842 56.4149 62.2842H31.8602C31.2862 62.2842 30.8231 62.7473 30.8231 63.3191C30.8231 63.8952 31.2862 64.3583 31.8602 64.3583Z" fill="black"/>
    <path d="M21.5026 32.4444C21.6657 32.6771 21.9157 32.8314 22.194 32.8749H22.3484C22.5767 32.8749 22.8006 32.7966 22.9854 32.6531L29.6013 27.483C30.0992 27.1939 30.2688 26.559 29.9818 26.0633C29.6948 25.5655 29.0599 25.3959 28.5642 25.685C28.4773 25.7329 28.399 25.7959 28.3294 25.8677L22.5745 30.3703L21.57 28.9375C21.2417 28.4679 20.5938 28.3505 20.1242 28.681C19.6546 29.0093 19.5372 29.6572 19.8677 30.1268L21.5026 32.4444Z" fill="black"/>
    <path d="M21.5026 43.1221C21.6656 43.3547 21.9157 43.5113 22.1939 43.5548H22.3483C22.5766 43.5526 22.8005 43.4743 22.9853 43.3308L29.6012 38.1585C30.0665 37.8194 30.1643 37.1693 29.823 36.7062C29.4838 36.2453 28.8338 36.1453 28.3707 36.4888C28.3555 36.4997 28.3381 36.5127 28.3228 36.5258L22.5744 41.0328L21.57 39.6C21.3134 39.0869 20.6894 38.8782 20.1785 39.1326C19.6654 39.3891 19.4567 40.0131 19.7133 40.5284C19.7546 40.6088 19.8046 40.6871 19.8676 40.7545L21.5026 43.1221Z" fill="black"/>
    <path d="M21.5026 53.8295C21.6656 54.06 21.9157 54.2143 22.194 54.2578H22.3483C22.5766 54.2578 22.8005 54.1795 22.9853 54.0361L29.6012 48.8638C30.0665 48.5224 30.1643 47.8724 29.823 47.4114C29.4838 46.9484 28.8338 46.8527 28.3707 47.1919C28.3555 47.2049 28.3381 47.2158 28.3229 47.2288L22.5679 51.7228L21.5656 50.29C21.2352 49.8204 20.5873 49.7052 20.1176 50.0335C19.6459 50.3639 19.5328 51.0118 19.8611 51.4814L21.5026 53.8295Z" fill="black"/>
    <path d="M21.5026 64.659C21.6657 64.8894 21.9157 65.0459 22.194 65.0894H22.3484C22.5767 65.0851 22.8006 65.0068 22.9854 64.8677L29.6013 59.6932C30.0883 59.3888 30.234 58.7453 29.9296 58.2604C29.6209 57.7734 28.9795 57.6321 28.4947 57.9365C28.436 57.9735 28.3794 58.0169 28.3294 58.0669L22.5745 62.5674L21.57 61.1347C21.2417 60.6629 20.5938 60.5498 20.1242 60.8781C19.6546 61.2064 19.5372 61.8543 19.8677 62.3239L21.5026 64.659Z" fill="black"/>
</svg>
