<svg width="71" height="71" viewBox="0 0 71 71" fill="none" xmlns="http://www.w3.org/2000/svg">
    <path d="M66.0078 38.8281C63.8667 38.8281 62.125 40.5698 62.125 42.7109V50.511C62.125 52.1562 60.8969 53.5728 59.2673 53.8058L58.5706 53.9056C59.4048 52.7929 59.9062 51.4162 59.9062 49.9219C59.9062 46.251 56.9209 43.2656 53.25 43.2656C49.5791 43.2656 46.5938 46.251 46.5938 49.9219C46.5938 51.4162 47.0952 52.7929 47.9294 53.9056L47.2327 53.8058C45.6031 53.5728 44.375 52.1562 44.375 50.511V42.7109C44.375 40.5698 42.6333 38.8281 40.4922 38.8281C38.3511 38.8281 36.6094 40.5698 36.6094 42.7109V51.4683C36.6094 56.2453 40.014 60.3689 44.7056 61.273L45.4844 61.4228V69.8906H61.0156V61.4228L61.7944 61.273C66.486 60.3689 69.8906 56.2453 69.8906 51.4683V42.7109C69.8906 40.5698 68.1489 38.8281 66.0078 38.8281ZM53.25 45.4844C55.6973 45.4844 57.6875 47.4746 57.6875 49.9219C57.6875 52.3692 55.6973 54.3594 53.25 54.3594C50.8027 54.3594 48.8125 52.3692 48.8125 49.9219C48.8125 47.4746 50.8027 45.4844 53.25 45.4844ZM67.6719 51.4683C67.6719 55.1836 65.0227 58.3908 61.374 59.0942L58.7969 59.5901V67.6719H47.7031V59.5901L45.126 59.0931C41.4773 58.3908 38.8281 55.1836 38.8281 51.4683V42.7109C38.8281 41.7935 39.5747 41.0469 40.4922 41.0469C41.4096 41.0469 42.1562 41.7935 42.1562 42.7109V50.511C42.1562 53.2533 44.2042 55.6141 46.9188 56.0024L50.8737 56.567L53.1357 56.5726C53.1746 56.5726 53.2112 56.5781 53.25 56.5781H54.3594V56.5748L55.4688 56.5781L59.5812 56.0012C62.2958 55.613 64.3438 53.2522 64.3438 50.5098V42.7109C64.3438 41.7935 65.0904 41.0469 66.0078 41.0469C66.9253 41.0469 67.6719 41.7935 67.6719 42.7109V51.4683Z" fill="black"/>
    <path d="M61.0156 23.2969V1.10938H58.6016L43.2224 6.70173L58.7969 11.8936V23.2969H45.1272L33.1836 31.8968C32.9828 30.7985 32.4636 29.7856 31.6571 28.9791L28.8438 26.1657V19.7668C32.9695 18.7862 36.4241 15.9639 38.2002 12.07L40.7007 6.58414C40.9304 6.07827 41.0469 5.54133 41.0469 4.97C41.0469 2.84222 39.314 1.10938 37.1308 1.10938C35.6997 1.10938 34.4139 1.9048 33.7749 3.18391L31.4131 7.90984C30.5988 9.53841 29.2764 10.7831 27.6911 11.5042C28.4178 10.4381 28.8438 9.15123 28.8438 7.76562C28.8438 4.0947 25.8584 1.10938 22.1875 1.10938C18.5166 1.10938 15.5312 4.0947 15.5312 7.76562C15.5312 9.49181 16.1969 11.0616 17.2785 12.2453C13.6442 12.4594 10.3593 14.6415 8.80844 17.9652L3.68645 28.9414C3.45127 29.4428 3.32812 29.9997 3.32812 30.5655C3.32812 32.6744 5.04433 34.3906 7.20872 34.3906C8.65423 34.3906 9.97883 33.5431 10.5834 32.2307L15.5312 21.5075V43.6539C12.9497 44.5702 11.0938 47.0297 11.0938 49.9219C11.0938 51.4162 11.5952 52.7929 12.4294 53.9056L11.7327 53.8058C10.1031 53.5728 8.875 52.1562 8.875 50.511V42.7109C8.875 40.5698 7.13328 38.8281 4.99219 38.8281C2.85109 38.8281 1.10938 40.5698 1.10938 42.7109V51.4683C1.10938 56.2453 4.51405 60.3689 9.20559 61.273L9.98438 61.4228V69.8906H25.5156V61.4228L26.2944 61.273C30.986 60.3689 34.3906 56.2453 34.3906 51.4683V42.7109C34.3906 40.5698 32.6489 38.8281 30.5078 38.8281C28.3667 38.8281 26.625 40.5698 26.625 42.7109V50.511C26.625 52.1562 25.3969 53.5728 23.7673 53.8058L23.0706 53.9056C23.9048 52.7929 24.4062 51.4162 24.4062 49.9219C24.4062 47.1984 22.7599 44.8543 20.4125 43.8248L45.8416 25.5156H69.8906V23.2969H61.0156ZM49.9651 6.61077L58.7969 3.39912V9.55505L49.9651 6.61077ZM22.1875 3.32812C24.6348 3.32812 26.625 5.31834 26.625 7.76562C26.625 10.2129 24.6348 12.2031 22.1875 12.2031C19.7402 12.2031 17.75 10.2129 17.75 7.76562C17.75 5.31834 19.7402 3.32812 22.1875 3.32812ZM14.8212 17.75L8.56881 31.3021C8.32475 31.8302 7.79003 32.1719 7.15325 32.1719C6.26686 32.1719 5.54688 31.4519 5.54688 30.5533C5.54688 30.3214 5.59902 30.0885 5.69664 29.8788L10.8186 18.9038C12.09 16.1813 14.8512 14.4219 17.8554 14.4219H24.4684C28.2746 14.4219 31.696 12.3063 33.3977 8.90163L35.7596 4.17569C36.0203 3.65317 36.545 3.32812 37.1862 3.32812C38.0915 3.32812 38.8281 4.06475 38.8281 4.98664C38.8281 5.22183 38.7782 5.44925 38.6806 5.66447L36.18 11.1503C34.5803 14.6593 31.3543 17.1321 27.5524 17.7655L26.625 17.9197L26.6239 27.0843L30.0874 30.5477C30.7075 31.1668 31.0625 32.0243 31.0625 32.9007V33.4233L27.7344 35.8195V32.822L23.7562 28.8438H21.0781V40.612L17.75 43.0083V17.75H14.8212ZM25.5156 37.417L23.2969 39.0145V31.5218L25.5156 33.7405V37.417ZM24.0812 56.0013C26.7958 55.613 28.8438 53.2522 28.8438 50.5098V42.7109C28.8438 41.7935 29.5904 41.0469 30.5078 41.0469C31.4253 41.0469 32.1719 41.7935 32.1719 42.7109V51.4683C32.1719 55.1836 29.5227 58.3908 25.874 59.0942L23.2969 59.5901V67.6719H12.2031V59.5901L9.62605 59.0931C5.97731 58.3908 3.32812 55.1836 3.32812 51.4683V42.7109C3.32812 41.7935 4.07473 41.0469 4.99219 41.0469C5.90964 41.0469 6.65625 41.7935 6.65625 42.7109V50.511C6.65625 53.2533 8.70416 55.6141 11.4188 56.0024L15.3737 56.567L17.6357 56.5726C17.6746 56.5726 17.7112 56.5781 17.75 56.5781H18.8594V56.5748L19.9688 56.5781L24.0812 56.0013ZM22.1875 49.9219C22.1875 52.3692 20.1973 54.3594 17.75 54.3594C15.3027 54.3594 13.3125 52.3692 13.3125 49.9219C13.3125 47.4746 15.3027 45.4844 17.75 45.4844C20.1973 45.4844 22.1875 47.4746 22.1875 49.9219Z" fill="black"/>
    <path d="M47.7031 27.7344H49.9219V29.9531H47.7031V27.7344Z" fill="black"/>
    <path d="M52.1406 27.7344H54.3594V29.9531H52.1406V27.7344Z" fill="black"/>
    <path d="M56.5781 27.7344H58.7969V29.9531H56.5781V27.7344Z" fill="black"/>
</svg>
