<svg width="69" height="69" viewBox="0 0 69 69" fill="none" xmlns="http://www.w3.org/2000/svg">
    <path d="M49.45 64.4004H17.2501C16.6153 64.4004 16.1001 64.9156 16.1001 65.5503V67.8504C16.1001 68.4851 16.6153 69.0004 17.2501 69.0004C17.8848 69.0004 18.4 68.4851 18.4 67.8504V66.7004H49.45C50.0848 66.7004 50.6 66.1852 50.6 65.5505C50.6 64.9157 50.0849 64.4004 49.45 64.4004Z" fill="black"/>
    <path d="M25.2999 28.7501C25.2999 29.3849 25.8151 29.9001 26.4499 29.9001H31.05C31.6847 29.9001 32.1999 29.3849 32.1999 28.7501V21.8501C32.1999 21.2154 31.6847 20.7002 31.05 20.7002H26.45C25.8153 20.7002 25.3001 21.2154 25.3001 21.8501V28.7501H25.2999ZM27.6 23.0002H29.9V27.6002H27.6V23.0002Z" fill="black"/>
    <path d="M14.95 13.7998H1.14995C0.515209 13.7998 0 14.315 0 14.9498V37.9498C0 38.5846 0.515209 39.0998 1.14995 39.0998C1.7847 39.0998 2.29991 38.5846 2.29991 37.9498V16.0998H14.95C15.5847 16.0998 16.0999 15.5846 16.0999 14.9499C16.0999 14.3151 15.5848 13.7998 14.95 13.7998Z" fill="black"/>
    <path d="M55.2 56.3498C55.2 56.9845 55.7152 57.4997 56.3499 57.4997H60.9499C61.5846 57.4997 62.0998 56.9845 62.0998 56.3498V49.4498C62.0998 48.815 61.5846 48.2998 60.9499 48.2998H56.3499C55.7152 48.2998 55.2 48.815 55.2 49.4498V56.3498ZM57.5 50.5999H59.8V55.1998H57.5V50.5999Z" fill="black"/>
    <path d="M5.75004 41.3994C0.0654961 41.3994 0 56.1999 0 56.3494C0 59.1266 1.97917 61.4485 4.59996 61.9833V67.8495C4.59996 68.4842 5.11516 68.9994 5.74991 68.9994C6.38466 68.9994 6.89987 68.4842 6.89987 67.8495V61.9833C9.52065 61.4485 11.4998 59.1266 11.4998 56.3494C11.5 56.1999 11.4345 41.3994 5.75004 41.3994ZM5.75004 59.7994C3.84796 59.7994 2.30004 58.2515 2.30004 56.3494C2.30004 50.6201 3.8388 43.6993 5.75004 43.6993C7.66129 43.6993 9.20004 50.6201 9.20004 56.3494C9.20004 58.2515 7.65213 59.7994 5.75004 59.7994Z" fill="black"/>
    <path d="M12.6501 34.5H8.04998C7.41523 34.5 6.90002 35.0152 6.90002 35.65V37.95C6.90002 38.5847 7.41523 39.1 8.04998 39.1C8.68473 39.1 9.19993 38.5847 9.19993 37.95V36.8H11.5V42.5501C11.5 43.1848 12.0152 43.7 12.6499 43.7C13.2847 43.7 13.7999 43.1848 13.7999 42.5501V35.6501C13.8 35.0152 13.2848 34.5 12.6501 34.5Z" fill="black"/>
    <path d="M56.3499 29.9001H60.9499C61.5846 29.9001 62.0998 29.3849 62.0998 28.7502V21.8502C62.0998 21.2154 61.5846 20.7002 60.9499 20.7002H56.3499C55.7152 20.7002 55.2 21.2154 55.2 21.8502V28.7502C55.2 29.3849 55.7152 29.9001 56.3499 29.9001ZM57.5 23.0001H59.8V27.6001H57.5V23.0001Z" fill="black"/>
    <path d="M12.6501 20.7002H8.04998C7.41523 20.7002 6.90002 21.2154 6.90002 21.8501V28.7501C6.90002 29.3849 7.41523 29.9001 8.04998 29.9001H12.6499C13.2847 29.9001 13.7999 29.3849 13.7999 28.7501V21.8501C13.8 21.2154 13.2848 20.7002 12.6501 20.7002ZM11.5 27.6002H9.20007V23.0002H11.5001V27.6002H11.5Z" fill="black"/>
    <path d="M36.8 28.7501C36.8 29.3849 37.3153 29.9001 37.95 29.9001H42.55C43.1847 29.9001 43.6999 29.3849 43.6999 28.7501V21.8501C43.6999 21.2154 43.1847 20.7002 42.55 20.7002H37.95C37.3153 20.7002 36.8 21.2154 36.8 21.8501V28.7501ZM39.1 23.0002H41.4V27.6002H39.1V23.0002Z" fill="black"/>
    <path d="M67.8501 13.7998H54.0501C53.4154 13.7998 52.9001 14.315 52.9001 14.9498C52.9001 15.5845 53.4154 16.0997 54.0501 16.0997H66.7001V62.3114C66.3391 62.1826 65.9561 62.0998 65.5502 62.0998C65.3513 62.0998 65.1534 62.1171 64.9591 62.1516C64.1656 60.7221 62.6557 59.7998 60.9502 59.7998C59.2448 59.7998 57.7349 60.7221 56.9414 62.1516C56.747 62.1171 56.5492 62.0998 56.3503 62.0998C54.4482 62.0998 52.9003 63.6477 52.9003 65.5498C52.9003 67.4519 54.4482 68.9998 56.3503 68.9998H65.5501C67.4521 68.9998 69.0001 67.4519 69.0001 65.5498V14.9498C69.0001 14.315 68.4849 13.7998 67.8501 13.7998ZM65.5501 66.6998H56.35C55.7163 66.6998 55.2001 66.1835 55.2001 65.5498C55.2001 64.9162 55.7163 64.3999 56.35 64.3999C56.5708 64.3999 56.78 64.4631 56.9733 64.5873C57.2884 64.7897 57.6818 64.8265 58.0291 64.6862C58.3764 64.546 58.6328 64.2446 58.7168 63.8801C58.9595 62.8324 59.8783 62.0998 60.9501 62.0998C62.0219 62.0998 62.9407 62.8324 63.1834 63.8801C63.2674 64.2446 63.5239 64.546 63.8711 64.6862C64.2174 64.8265 64.6117 64.7897 64.9269 64.5873C65.6755 64.1043 66.7001 64.6954 66.7001 65.5498C66.7 66.1835 66.1837 66.6998 65.5501 66.6998Z" fill="black"/>
    <path d="M37.95 16.1003H42.55C43.1847 16.1003 43.6999 15.5851 43.6999 14.9503V8.05035C43.6999 7.4156 43.1847 6.90039 42.55 6.90039H37.95C37.3153 6.90039 36.8 7.4156 36.8 8.05035V14.9503C36.8 15.5851 37.3153 16.1003 37.95 16.1003ZM39.1 9.2003H41.4V13.8003H39.1V9.2003Z" fill="black"/>
    <path d="M36.8 42.55C36.8 43.1847 37.3153 43.6999 37.95 43.6999H42.55C43.1847 43.6999 43.6999 43.1847 43.6999 42.55V35.65C43.6999 35.0152 43.1847 34.5 42.55 34.5H37.95C37.3153 34.5 36.8 35.0152 36.8 35.65V42.55ZM39.1 36.8H41.4V41.4H39.1V36.8Z" fill="black"/>
    <path d="M26.45 16.1003H31.05C31.6847 16.1003 32.1999 15.5851 32.1999 14.9503V8.05035C32.1999 7.4156 31.6847 6.90039 31.05 6.90039H26.45C25.8153 6.90039 25.3 7.4156 25.3 8.05035V14.9503C25.2999 15.5851 25.8151 16.1003 26.45 16.1003ZM27.6 9.2003H29.9V13.8003H27.6V9.2003Z" fill="black"/>
    <path d="M33.6834 55.534C33.4764 55.7525 33.3499 56.0515 33.3499 56.3506C33.3499 56.6496 33.4764 56.9485 33.6834 57.1671C33.9019 57.3741 34.2009 57.5007 34.4999 57.5007C34.799 57.5007 35.0979 57.3741 35.3165 57.1671C35.5235 56.9487 35.65 56.6496 35.65 56.3506C35.65 56.0515 35.5235 55.7526 35.3165 55.534C34.8794 55.1084 34.1204 55.1084 33.6834 55.534Z" fill="black"/>
    <path d="M25.2999 42.55C25.2999 43.1847 25.8151 43.6999 26.4499 43.6999H31.05C31.6847 43.6999 32.1999 43.1847 32.1999 42.55V35.65C32.1999 35.0152 31.6847 34.5 31.05 34.5H26.45C25.8153 34.5 25.3001 35.0152 25.3001 35.65V42.55H25.2999ZM27.6 36.8H29.9V41.4H27.6V36.8Z" fill="black"/>
    <path d="M23 49.4498C23 50.0845 23.5152 50.5997 24.15 50.5997H27.6V60.9497C27.6 61.5845 28.1152 62.0997 28.7499 62.0997C29.3847 62.0997 29.8999 61.5845 29.8999 60.9497V50.5997H39.0999V60.9497C39.0999 61.5845 39.6151 62.0997 40.2499 62.0997C40.8846 62.0997 41.3998 61.5845 41.3998 60.9497V50.5997H44.8498C45.4846 50.5997 45.9998 50.0845 45.9998 49.4498C45.9998 48.815 45.4846 48.2998 44.8498 48.2998H24.15C23.5152 48.2998 23 48.815 23 49.4498Z" fill="black"/>
    <path d="M55.2 42.55C55.2 43.1847 55.7152 43.6999 56.3499 43.6999H60.9499C61.5846 43.6999 62.0998 43.1847 62.0998 42.55V35.65C62.0998 35.0152 61.5846 34.5 60.9499 34.5H56.3499C55.7152 34.5 55.2 35.0152 55.2 35.65V42.55ZM57.5 36.8H59.8V41.4H57.5V36.8Z" fill="black"/>
    <path d="M49.45 0H19.5501C18.9154 0 18.4001 0.515209 18.4001 1.14996V60.9499C18.4001 61.5847 18.9154 62.0999 19.5501 62.0999C20.1848 62.0999 20.7001 61.5847 20.7001 60.9499V2.29991H48.3001V60.9499C48.3001 61.5847 48.8153 62.0999 49.45 62.0999C50.0848 62.0999 50.6 61.5847 50.6 60.9499V1.14996C50.6001 0.515209 50.0849 0 49.45 0Z" fill="black"/>
</svg>
