<svg width="72" height="105" viewBox="0 0 72 105" fill="none" xmlns="http://www.w3.org/2000/svg">
    <mask id="mask0" mask-type="alpha" maskUnits="userSpaceOnUse" x="0" y="0" width="72" height="105">
        <path d="M5.46661 104.2C2.4296 104.2 0 100.859 0 96.6819V7.57503C0 3.39815 2.4296 0.0566406 5.46661 0.0566406H66.0045C69.0415 0.0566406 71.4711 3.39815 71.4711 7.57503V96.589C71.4711 100.766 69.0415 104.107 66.0045 104.107H5.46661V104.2Z" fill="black"/>
        <path d="M5.46661 103.922C2.4296 103.922 0 100.58 0 96.4034V7.57503C0 3.39815 2.4296 0.0566406 5.46661 0.0566406H66.0045C69.0415 0.0566406 71.4711 3.39815 71.4711 7.57503V96.4034C71.4711 100.58 69.0415 103.922 66.0045 103.922H5.46661Z" fill="#090909"/>
        <path d="M5.46661 103.736C2.4296 103.736 0 100.395 0 96.2178V7.57503C0 3.39815 2.4296 0.0566406 5.46661 0.0566406H66.0045C69.0415 0.0566406 71.4711 3.39815 71.4711 7.57503V96.1249C71.4711 100.302 69.0415 103.643 66.0045 103.643H5.46661V103.736Z" fill="#121212"/>
        <path d="M5.46661 103.458C2.4296 103.458 0 100.116 0 95.9393V7.57503C0 3.39815 2.4296 0.0566406 5.46661 0.0566406H66.0045C69.0415 0.0566406 71.4711 3.39815 71.4711 7.57503V95.9393C71.4711 100.116 69.0415 103.458 66.0045 103.458H5.46661Z" fill="#1B1B1B"/>
        <path d="M5.46661 103.272C2.4296 103.272 0 99.9305 0 95.7537V7.57503C0 3.39815 2.4296 0.0566406 5.46661 0.0566406H66.0045C69.0415 0.0566406 71.4711 3.39815 71.4711 7.57503V95.7537C71.4711 99.9305 69.0415 103.272 66.0045 103.272H5.46661Z" fill="#232323"/>
        <path d="M5.46661 103.086C2.4296 103.086 0 99.7449 0 95.568V7.57503C0 3.39815 2.4296 0.0566406 5.46661 0.0566406H66.0045C69.0415 0.0566406 71.4711 3.39815 71.4711 7.57503V95.4752C71.4711 99.6521 69.0415 102.994 66.0045 102.994H5.46661V103.086Z" fill="#2C2C2C"/>
        <path d="M5.46661 102.808C2.4296 102.808 0 99.4665 0 95.2896V7.57503C0 3.39815 2.4296 0.0566406 5.46661 0.0566406H66.0045C69.0415 0.0566406 71.4711 3.39815 71.4711 7.57503V95.2896C71.4711 99.4665 69.0415 102.808 66.0045 102.808H5.46661Z" fill="#353535"/>
        <path d="M5.46661 102.622C2.4296 102.622 0 99.2808 0 95.1039V7.57503C0 3.39815 2.4296 0.0566406 5.46661 0.0566406H66.0045C69.0415 0.0566406 71.4711 3.39815 71.4711 7.57503V95.1039C71.4711 99.2808 69.0415 102.622 66.0045 102.622H5.46661Z" fill="#3E3E3E"/>
        <path d="M5.46661 102.437C2.4296 102.437 0 99.0951 0 94.9182V7.6678C0 3.49092 2.4296 0.149414 5.46661 0.149414H66.0045C69.0415 0.149414 71.4711 3.49092 71.4711 7.6678V94.9182C71.4711 99.0951 69.0415 102.437 66.0045 102.437H5.46661Z" fill="#474747"/>
        <path d="M5.46661 102.158C2.4296 102.158 0 98.8167 0 94.6398V7.57503C0 3.39815 2.4296 0.0566406 5.46661 0.0566406H66.0045C69.0415 0.0566406 71.4711 3.39815 71.4711 7.57503V94.6398C71.4711 98.8167 69.0415 102.158 66.0045 102.158H5.46661Z" fill="#505050"/>
        <path d="M5.46661 101.973C2.4296 101.973 0 98.6311 0 94.4542V7.57503C0 3.39815 2.4296 0.0566406 5.46661 0.0566406H66.0045C69.0415 0.0566406 71.4711 3.39815 71.4711 7.57503V94.3614C71.4711 98.5382 69.0415 101.88 66.0045 101.88H5.46661V101.973Z" fill="#585858"/>
        <path d="M5.46661 101.694C2.4296 101.694 0 98.3526 0 94.1757V7.57503C0 3.39815 2.4296 0.0566406 5.46661 0.0566406H66.0045C69.0415 0.0566406 71.4711 3.39815 71.4711 7.57503V94.1757C71.4711 98.3526 69.0415 101.694 66.0045 101.694H5.46661Z" fill="#616161"/>
        <path d="M5.46661 101.508C2.4296 101.508 0 98.167 0 93.9901V7.57503C0 3.39815 2.4296 0.0566406 5.46661 0.0566406H66.0045C69.0415 0.0566406 71.4711 3.39815 71.4711 7.57503V93.9901C71.4711 98.167 69.0415 101.508 66.0045 101.508H5.46661Z" fill="#6A6A6A"/>
        <path d="M5.46661 101.323C2.4296 101.323 0 97.9813 0 93.8045V7.57503C0 3.39815 2.4296 0.0566406 5.46661 0.0566406H66.0045C69.0415 0.0566406 71.4711 3.39815 71.4711 7.57503V93.7116C71.4711 97.8885 69.0415 101.23 66.0045 101.23H5.46661V101.323Z" fill="#737373"/>
        <path d="M5.46661 101.044C2.4296 101.044 0 97.7029 0 93.526V7.57503C0 3.39815 2.4296 0.0566406 5.46661 0.0566406H66.0045C69.0415 0.0566406 71.4711 3.39815 71.4711 7.57503V93.526C71.4711 97.7029 69.0415 101.044 66.0045 101.044H5.46661Z" fill="#7C7C7C"/>
        <path d="M5.46661 100.859C2.4296 100.859 0 97.5172 0 93.3404V7.57503C0 3.39815 2.4296 0.0566406 5.46661 0.0566406H66.0045C69.0415 0.0566406 71.4711 3.39815 71.4711 7.57503V93.2475C71.4711 97.4244 69.0415 100.766 66.0045 100.766H5.46661V100.859Z" fill="#858585"/>
        <path d="M5.46661 100.673C2.4296 100.673 0 97.3316 0 93.1547V7.57503C0 3.39815 2.4296 0.0566406 5.46661 0.0566406H66.0045C69.0415 0.0566406 71.4711 3.39815 71.4711 7.57503V93.0619C71.4711 97.2388 69.0415 100.58 66.0045 100.58H5.46661V100.673Z" fill="#8E8E8E"/>
        <path d="M5.46661 100.395C2.4296 100.395 0 97.0531 0 92.8763V7.57503C0 3.39815 2.4296 0.0566406 5.46661 0.0566406H66.0045C69.0415 0.0566406 71.4711 3.39815 71.4711 7.57503V92.8763C71.4711 97.0531 69.0415 100.395 66.0045 100.395H5.46661Z" fill="#969696"/>
        <path d="M5.46661 100.209C2.4296 100.209 0 96.8675 0 92.6906V7.57503C0 3.39815 2.4296 0.0566406 5.46661 0.0566406H66.0045C69.0415 0.0566406 71.4711 3.39815 71.4711 7.57503V92.5978C71.4711 96.7747 69.0415 100.116 66.0045 100.116H5.46661V100.209Z" fill="#9F9F9F"/>
        <path d="M5.46661 99.9305C2.4296 99.9305 0 96.589 0 92.4122V7.57503C0 3.39815 2.4296 0.0566406 5.46661 0.0566406H66.0045C69.0415 0.0566406 71.4711 3.39815 71.4711 7.57503V92.4122C71.4711 96.589 69.0415 99.9305 66.0045 99.9305H5.46661Z" fill="#A8A8A8"/>
        <path d="M5.46661 99.7449C2.4296 99.7449 0 96.4034 0 92.2265V7.57503C0 3.39815 2.4296 0.0566406 5.46661 0.0566406H66.0045C69.0415 0.0566406 71.4711 3.39815 71.4711 7.57503V92.2265C71.4711 96.4034 69.0415 99.7449 66.0045 99.7449H5.46661Z" fill="#B1B1B1"/>
        <path d="M5.46661 99.5593C2.4296 99.5593 0 96.2178 0 92.0409V7.57503C0 3.39815 2.4296 0.0566406 5.46661 0.0566406H66.0045C69.0415 0.0566406 71.4711 3.39815 71.4711 7.57503V91.9481C71.4711 96.1249 69.0415 99.4664 66.0045 99.4664H5.46661V99.5593Z" fill="#BABABA"/>
        <path d="M5.46661 99.2808C2.4296 99.2808 0 95.9393 0 91.7624V7.57503C0 3.39815 2.4296 0.0566406 5.46661 0.0566406H66.0045C69.0415 0.0566406 71.4711 3.39815 71.4711 7.57503V91.7624C71.4711 95.9393 69.0415 99.2808 66.0045 99.2808H5.46661Z" fill="#C3C3C3"/>
        <path d="M5.46661 99.0952C2.4296 99.0952 0 95.7537 0 91.5768V7.57503C0 3.39815 2.4296 0.0566406 5.46661 0.0566406H66.0045C69.0415 0.0566406 71.4711 3.39815 71.4711 7.57503V91.484C71.4711 95.6609 69.0415 99.0023 66.0045 99.0023H5.46661V99.0952Z" fill="#CBCBCB"/>
        <path d="M5.46661 98.8167C2.4296 98.8167 0 95.4752 0 91.2983V7.57503C0 3.39815 2.4296 0.0566406 5.46661 0.0566406H66.0045C69.0415 0.0566406 71.4711 3.39815 71.4711 7.57503V91.2983C71.4711 95.4752 69.0415 98.8167 66.0045 98.8167H5.46661Z" fill="#D4D4D4"/>
        <path d="M5.46661 98.6311C2.4296 98.6311 0 95.2896 0 91.1127V7.57503C0 3.39815 2.4296 0.0566406 5.46661 0.0566406H66.0045C69.0415 0.0566406 71.4711 3.39815 71.4711 7.57503V91.1127C71.4711 95.2896 69.0415 98.6311 66.0045 98.6311H5.46661Z" fill="#DDDDDD"/>
        <path d="M5.46661 98.4454C2.4296 98.4454 0 95.1039 0 90.927V7.57503C0 3.39815 2.4296 0.0566406 5.46661 0.0566406H66.0045C69.0415 0.0566406 71.4711 3.39815 71.4711 7.57503V90.8342C71.4711 95.0111 69.0415 98.3526 66.0045 98.3526H5.46661V98.4454Z" fill="#E6E6E6"/>
    </mask>
    <g mask="url(#mask0)">
        <path d="M5.46661 104.2C2.4296 104.2 0 100.859 0 96.6819V7.57503C0 3.39815 2.4296 0.0566406 5.46661 0.0566406H66.0045C69.0415 0.0566406 71.4711 3.39815 71.4711 7.57503V96.589C71.4711 100.766 69.0415 104.107 66.0045 104.107H5.46661V104.2Z" fill="#4D4D4D"/>
        <path d="M5.46661 98.4454C2.4296 98.4454 0 95.1039 0 90.927V7.57503C0 3.39815 2.4296 0.0566406 5.46661 0.0566406H66.0045C69.0415 0.0566406 71.4711 3.39815 71.4711 7.57503V90.8342C71.4711 95.0111 69.0415 98.3526 66.0045 98.3526H5.46661V98.4454Z" fill="url(#paint0_linear)"/>
        <path d="M5.4666 97.7954C2.69954 97.7954 0.404907 94.7323 0.404907 90.9267V7.57471C0.404907 3.7691 2.63205 0.706055 5.4666 0.706055H66.0045C68.7715 0.706055 70.9987 3.7691 70.9987 7.57471V90.8339C70.9987 94.6395 68.7715 97.7026 66.0045 97.7026H5.4666V97.7954Z" fill="url(#paint1_linear)"/>
        <path d="M5.46663 94.6399C3.98186 94.6399 2.69958 92.9692 2.69958 90.8343V7.57514C2.69958 5.5331 3.91437 3.76953 5.46663 3.76953H66.0045C67.4892 3.76953 68.7715 5.44028 68.7715 7.57514V90.8343C68.7715 92.8764 67.5567 94.6399 66.0045 94.6399H5.46663Z" fill="url(#paint2_linear)"/>
        <path d="M68.2991 90.834C68.2991 92.5976 67.2868 93.9899 66.0045 93.9899H5.46663C4.18433 93.9899 3.172 92.5976 3.172 90.834V7.57481C3.172 5.81124 4.18433 4.41895 5.46663 4.41895H66.0045C67.2868 4.41895 68.2991 5.81124 68.2991 7.57481V90.834Z" fill="url(#paint3_linear)"/>
    </g>
    <mask id="mask1" mask-type="alpha" maskUnits="userSpaceOnUse" x="3" y="4" width="66" height="90">
        <path d="M68.2991 90.834C68.2991 92.5976 67.2868 93.9899 66.0045 93.9899H5.46663C4.18433 93.9899 3.172 92.5976 3.172 90.834V7.57481C3.172 5.81124 4.18433 4.41895 5.46663 4.41895H66.0045C67.2868 4.41895 68.2991 5.81124 68.2991 7.57481V90.834Z" fill="#E6E6E6"/>
        <path d="M68.1642 90.7411C68.1642 92.5047 67.1518 93.897 65.8695 93.897H5.53413C4.25184 93.897 3.2395 92.5047 3.2395 90.7411V7.76036C3.2395 5.99679 4.25184 4.60449 5.53413 4.60449H65.8695C67.1518 4.60449 68.1642 5.99679 68.1642 7.76036V90.7411Z" fill="#DBDBDB"/>
        <path d="M68.0967 90.5554C68.0967 92.2262 67.0844 93.7113 65.8021 93.7113H5.66914C4.45434 93.7113 3.37451 92.319 3.37451 90.5554V7.85313C3.37451 6.18238 4.38685 4.69727 5.66914 4.69727H65.8021C67.0169 4.69727 68.0967 6.08956 68.0967 7.85313V90.5554Z" fill="#D0D0D0"/>
        <path d="M67.9616 90.4625C67.9616 92.1332 66.9493 93.6184 65.667 93.6184H5.73655C4.52174 93.6184 3.44189 92.2261 3.44189 90.4625V8.03868C3.44189 6.36793 4.45425 4.88281 5.73655 4.88281H65.667C66.8818 4.88281 67.9616 6.27511 67.9616 8.03868V90.4625Z" fill="#C5C5C5"/>
        <path d="M67.8267 90.2777C67.8267 91.9485 66.8143 93.3408 65.5995 93.3408H5.87155C4.65674 93.3408 3.64441 91.9485 3.64441 90.2777V8.13238C3.64441 6.46163 4.65674 5.06934 5.87155 5.06934H65.5995C66.8143 5.06934 67.8267 6.46163 67.8267 8.13238V90.2777Z" fill="#BABABA"/>
        <path d="M67.7592 90.1848C67.7592 91.8556 66.7469 93.2479 65.5321 93.2479H6.00658C4.79177 93.2479 3.77942 91.8556 3.77942 90.1848V8.31793C3.77942 6.64718 4.79177 5.25488 6.00658 5.25488H65.5321C66.7469 5.25488 67.7592 6.64718 67.7592 8.31793V90.1848Z" fill="#AFAFAF"/>
        <path d="M67.6241 89.9981C67.6241 91.6689 66.6118 93.0612 65.397 93.0612H6.14144C4.92664 93.0612 3.91431 91.6689 3.91431 89.9981V8.5025C3.91431 6.83175 4.92664 5.43945 6.14144 5.43945H65.397C66.6118 5.43945 67.6241 6.83175 67.6241 8.5025V89.9981Z" fill="#A4A4A4"/>
        <path d="M67.4892 89.8134C67.4892 91.4842 66.4768 92.8765 65.262 92.8765H6.20895C4.99414 92.8765 3.98181 91.4842 3.98181 89.8134V8.59625C3.98181 6.9255 4.99414 5.5332 6.20895 5.5332H65.262C66.4768 5.5332 67.4892 6.9255 67.4892 8.59625V89.8134Z" fill="#999999"/>
        <path d="M67.4217 89.7205C67.4217 91.3913 66.4094 92.7836 65.1946 92.7836H6.27645C5.06165 92.7836 4.04932 91.3913 4.04932 89.7205V8.7818C4.04932 7.11104 5.06165 5.71875 6.27645 5.71875H65.1271C66.3419 5.71875 67.3542 7.11104 67.3542 8.7818V89.7205H67.4217Z" fill="#8E8E8E"/>
        <path d="M67.2868 89.5348C67.2868 91.2056 66.2744 92.5979 65.0596 92.5979H6.41148C5.19668 92.5979 4.18433 91.2056 4.18433 89.5348V8.87457C4.18433 7.20382 5.19668 5.81152 6.41148 5.81152H65.0596C66.2744 5.81152 67.2868 7.20382 67.2868 8.87457V89.5348Z" fill="#838383"/>
        <path d="M67.1518 89.4419C67.1518 91.1127 66.1395 92.505 64.9247 92.505H6.47897C5.26416 92.505 4.25183 91.1127 4.25183 89.4419V9.06012C4.25183 7.38936 5.26416 5.99707 6.47897 5.99707H64.9247C66.1395 5.99707 67.1518 7.38936 67.1518 9.06012V89.4419Z" fill="#787878"/>
        <path d="M67.0168 89.2562C67.0168 90.927 66.0045 92.3193 64.7897 92.3193H6.54647C5.33167 92.3193 4.31934 90.927 4.31934 89.2562V9.15289C4.31934 7.48214 5.33167 6.08984 6.54647 6.08984H64.7897C66.0045 6.08984 67.0168 7.48214 67.0168 9.15289V89.2562Z" fill="#6E6E6E"/>
        <path d="M66.9493 89.1633C66.9493 90.834 65.937 92.1335 64.7896 92.1335H6.7489C5.53409 92.1335 4.58923 90.7412 4.58923 89.1633V9.33839C4.58923 7.66764 5.60158 6.36816 6.7489 6.36816H64.7896C66.0045 6.36816 66.9493 7.76046 66.9493 9.33839V89.1633Z" fill="#636363"/>
        <path d="M66.8144 88.9775C66.8144 90.6483 65.802 91.9478 64.6547 91.9478H6.88389C5.66908 91.9478 4.72424 90.5555 4.72424 88.9775V9.52394C4.72424 7.85318 5.73657 6.55371 6.88389 6.55371H64.6547C65.8695 6.55371 66.8144 7.946 66.8144 9.52394V88.9775Z" fill="#585858"/>
        <path d="M66.6794 88.7928C66.6794 90.4636 65.7345 91.763 64.5197 91.763H6.95141C5.73661 91.763 4.79175 90.4636 4.79175 88.7928V9.61769C4.79175 7.94693 5.73661 6.64746 6.95141 6.64746H64.5197C65.7345 6.64746 66.6794 7.94693 66.6794 9.61769V88.7928Z" fill="#4D4D4D"/>
        <path d="M66.6118 88.6989C66.6118 90.3697 65.667 91.6692 64.4522 91.6692H7.0863C5.87149 91.6692 4.92664 90.3697 4.92664 88.6989V9.80226C4.92664 8.13151 5.87149 6.83203 7.0863 6.83203H64.4522C65.667 6.83203 66.6118 8.13151 66.6118 9.80226V88.6989Z" fill="#424242"/>
        <path d="M66.4768 88.5142C66.4768 90.185 65.532 91.4845 64.3172 91.4845H7.15378C5.93898 91.4845 4.99414 90.185 4.99414 88.5142V9.89601C4.99414 8.22526 5.93898 6.92578 7.15378 6.92578H64.3172C65.532 6.92578 66.4768 8.22526 66.4768 9.89601V88.5142Z" fill="#373737"/>
        <path d="M66.3419 88.4213C66.3419 90.0921 65.397 91.3915 64.1822 91.3915H7.22129C6.00648 91.3915 5.06165 90.0921 5.06165 88.4213V10.0816C5.06165 8.4108 6.00648 7.11133 7.22129 7.11133H64.1822C65.397 7.11133 66.3419 8.4108 66.3419 10.0816V88.4213Z" fill="#2C2C2C"/>
        <path d="M66.2744 88.2356C66.2744 89.8136 65.3296 91.2059 64.1148 91.2059H7.35632C6.209 91.2059 5.19666 89.9064 5.19666 88.2356V10.1743C5.19666 8.5964 6.14151 7.2041 7.35632 7.2041H64.1148C65.2621 7.2041 66.2744 8.50358 66.2744 10.1743V88.2356Z" fill="#212121"/>
        <path d="M66.1395 88.1427C66.1395 89.7206 65.1946 91.1129 63.9798 91.1129H7.42382C6.27651 91.1129 5.26416 89.8135 5.26416 88.1427V10.3599C5.26416 8.78194 6.20902 7.38965 7.42382 7.38965H63.9798C65.1271 7.38965 66.1395 8.68912 66.1395 10.3599V88.1427Z" fill="#161616"/>
        <path d="M66.0044 87.9569C66.0044 89.5349 65.0596 90.8344 63.9123 90.8344H7.62623C6.47891 90.8344 5.53406 89.5349 5.53406 87.9569V10.5454C5.53406 8.96744 6.47891 7.66797 7.62623 7.66797H63.9123C65.0596 7.66797 66.0044 8.96744 66.0044 10.5454V87.9569Z" fill="#0B0B0B"/>
        <path d="M65.937 87.7703C65.937 89.3482 64.9921 90.6477 63.8448 90.6477H7.76124C6.61392 90.6477 5.66907 89.3482 5.66907 87.7703V10.6372C5.66907 9.05924 6.61392 7.75977 7.76124 7.75977H63.8448C64.9921 7.75977 65.937 9.05924 65.937 10.6372V87.7703Z" fill="black"/>
    </mask>
    <g mask="url(#mask1)">
        <path opacity="0.9" d="M68.2991 90.834C68.2991 92.5976 67.2868 93.9899 66.0045 93.9899H5.46663C4.18433 93.9899 3.172 92.5976 3.172 90.834V7.57481C3.172 5.81124 4.18433 4.41895 5.46663 4.41895H66.0045C67.2868 4.41895 68.2991 5.81124 68.2991 7.57481V90.834ZM65.937 10.6379C65.937 9.05993 64.9921 7.76045 63.8448 7.76045H7.76128C6.61396 7.76045 5.66911 9.05993 5.66911 10.6379V87.771C5.66911 89.3489 6.61396 90.6484 7.76128 90.6484H63.8448C64.9921 90.6484 65.937 89.3489 65.937 87.771V10.6379Z" fill="#8E5201"/>
    </g>
    <path opacity="0.15" d="M63.6424 8.03906H7.89625C6.74893 8.03906 5.80408 9.33854 5.80408 10.9165V40.0618C5.80408 48.7869 19.0995 51.6643 35.7693 51.6643C52.5066 51.6643 65.7345 48.7869 65.7345 40.0618V11.0093C65.7345 9.33854 64.7897 8.03906 63.6424 8.03906Z" fill="white"/>
    <defs>
        <linearGradient id="paint0_linear" x1="35.7381" y1="98.4197" x2="35.7381" y2="0.0440162" gradientUnits="userSpaceOnUse">
            <stop stop-color="#969696"/>
            <stop offset="0.061019" stop-color="#848484"/>
            <stop offset="0.1835" stop-color="#545454"/>
            <stop offset="0.2" stop-color="#4D4D4D"/>
            <stop offset="0.2239" stop-color="#535353"/>
            <stop offset="0.2553" stop-color="#636363"/>
            <stop offset="0.2907" stop-color="#7E7E7E"/>
            <stop offset="0.3292" stop-color="#A4A4A4"/>
            <stop offset="0.3696" stop-color="#D4D4D4"/>
            <stop offset="0.4" stop-color="#FDFDFD"/>
            <stop offset="0.6" stop-color="#C1C1C1"/>
            <stop offset="0.8" stop-color="#FDFDFD"/>
            <stop offset="1" stop-color="#969696"/>
        </linearGradient>
        <linearGradient id="paint1_linear" x1="35.7378" y1="0.671433" x2="35.7378" y2="97.7921" gradientUnits="userSpaceOnUse">
            <stop stop-color="#F0F0F0"/>
            <stop offset="0.0328408" stop-color="#DEDEDE"/>
            <stop offset="0.0990913" stop-color="#AEAEAE"/>
            <stop offset="0.192" stop-color="#616161"/>
            <stop offset="0.2" stop-color="#5A5A5A"/>
            <stop offset="0.2251" stop-color="#606060"/>
            <stop offset="0.258" stop-color="#707070"/>
            <stop offset="0.2951" stop-color="#8B8B8B"/>
            <stop offset="0.3355" stop-color="#B1B1B1"/>
            <stop offset="0.3779" stop-color="#E1E1E1"/>
            <stop offset="0.4" stop-color="#FDFDFD"/>
            <stop offset="0.6" stop-color="#C1C1C1"/>
            <stop offset="0.8" stop-color="#FDFDFD"/>
            <stop offset="1" stop-color="#464646"/>
        </linearGradient>
        <linearGradient id="paint2_linear" x1="2.71551" y1="49.2322" x2="68.7601" y2="49.2322" gradientUnits="userSpaceOnUse">
            <stop stop-color="#F0F0F0"/>
            <stop offset="0.0328408" stop-color="#DEDEDE"/>
            <stop offset="0.0990913" stop-color="#AEAEAE"/>
            <stop offset="0.192" stop-color="#616161"/>
            <stop offset="0.2" stop-color="#5A5A5A"/>
            <stop offset="0.2251" stop-color="#606060"/>
            <stop offset="0.258" stop-color="#707070"/>
            <stop offset="0.2951" stop-color="#8B8B8B"/>
            <stop offset="0.3355" stop-color="#B1B1B1"/>
            <stop offset="0.3779" stop-color="#E1E1E1"/>
            <stop offset="0.4" stop-color="#FDFDFD"/>
            <stop offset="0.6" stop-color="#C1C1C1"/>
            <stop offset="0.8" stop-color="#FDFDFD"/>
            <stop offset="1" stop-color="#464646"/>
        </linearGradient>
        <linearGradient id="paint3_linear" x1="35.7378" y1="4.44373" x2="35.7378" y2="94.0196" gradientUnits="userSpaceOnUse">
            <stop stop-color="#FEDE84"/>
            <stop offset="0.5" stop-color="#FFC80E"/>
            <stop offset="1" stop-color="#FB8400"/>
        </linearGradient>
    </defs>
</svg>
