<svg width="34" height="34" viewBox="0 0 34 34" fill="none" xmlns="http://www.w3.org/2000/svg">
    <g clip-path="url(#clip0)">
        <path d="M16.7576 16.3779C19.0076 16.3779 20.956 15.5709 22.5479 13.9787C24.1398 12.3868 24.9468 10.439 24.9468 8.18869C24.9468 5.93919 24.1398 3.9911 22.5477 2.39866C20.9555 0.806988 19.0074 0 16.7576 0C14.5073 0 12.5595 0.806988 10.9675 2.39892C9.37561 3.99084 8.56836 5.93893 8.56836 8.18869C8.56836 10.439 9.37561 12.3871 10.9678 13.979C12.56 15.5706 14.5081 16.3779 16.7576 16.3779Z" fill="#FFD600"/>
        <path d="M31.0867 26.1438C31.0408 25.4813 30.9479 24.7586 30.8112 23.9955C30.6732 23.2266 30.4955 22.4998 30.2828 21.8355C30.0631 21.1488 29.7643 20.4708 29.3949 19.821C29.0115 19.1465 28.5612 18.5593 28.0559 18.076C27.5275 17.5704 26.8805 17.164 26.1324 16.8675C25.3869 16.5725 24.5607 16.4231 23.6769 16.4231C23.3299 16.4231 22.9942 16.5655 22.346 16.9876C21.947 17.2477 21.4803 17.5486 20.9595 17.8814C20.5141 18.1652 19.9107 18.4311 19.1655 18.6718C18.4384 18.9071 17.7001 19.0264 16.9715 19.0264C16.2428 19.0264 15.5048 18.9071 14.7769 18.6718C14.0325 18.4314 13.4291 18.1655 12.9842 17.8817C12.4683 17.552 12.0014 17.2511 11.5965 16.9873C10.949 16.5653 10.6131 16.4229 10.266 16.4229C9.38196 16.4229 8.55603 16.5725 7.81078 16.8677C7.06319 17.1637 6.41599 17.5702 5.88707 18.0763C5.38202 18.5598 4.93144 19.1468 4.54857 19.821C4.17944 20.4708 3.88062 21.1486 3.66064 21.8357C3.4482 22.5 3.27051 23.2266 3.13251 23.9955C2.9958 24.7576 2.90294 25.4805 2.85703 26.1446C2.81189 26.7952 2.78906 27.4704 2.78906 28.1523C2.78906 29.9271 3.35326 31.3639 4.46582 32.4236C5.56464 33.4692 7.01857 33.9997 8.78664 33.9997H25.1579C26.9259 33.9997 28.3793 33.4695 29.4784 32.4236C30.5912 31.3647 31.1554 29.9277 31.1554 28.1521C31.1552 27.467 31.1321 26.7913 31.0867 26.1438Z" fill="#FFD600"/>
    </g>
    <defs>
        <clipPath id="clip0">
            <rect width="34" height="34" fill="white"/>
        </clipPath>
    </defs>
</svg>
