<svg width="166" height="166" viewBox="0 0 166 166" fill="none" xmlns="http://www.w3.org/2000/svg">
    <path d="M118.745 77.9327C111.683 77.9327 105.958 72.2078 105.958 65.1451C105.958 58.0833 111.683 52.3574 118.745 52.3574C125.808 52.3574 131.533 58.0833 131.533 65.1451C131.525 72.2048 125.805 77.9247 118.745 77.9327ZM118.745 57.4729C114.508 57.4729 111.073 60.9082 111.073 65.1451C111.073 69.3839 114.508 72.8172 118.745 72.8172C122.984 72.8172 126.417 69.3839 126.417 65.1451C126.417 60.9082 122.984 57.4729 118.745 57.4729Z" fill="#FFD600"/>
    <path d="M47.1358 77.9327C40.074 77.9327 34.3481 72.2078 34.3481 65.1451C34.3481 58.0833 40.074 52.3574 47.1358 52.3574C54.1985 52.3574 59.9234 58.0833 59.9234 65.1451C59.9154 72.2048 54.1955 77.9247 47.1358 77.9327ZM47.1358 57.4729C42.8989 57.4729 39.4636 60.9082 39.4636 65.1451C39.4636 69.3839 42.8989 72.8172 47.1358 72.8172C51.3746 72.8172 54.808 69.3839 54.808 65.1451C54.808 60.9082 51.3746 57.4729 47.1358 57.4729Z" fill="#FFD600"/>
    <path d="M134.091 94.4087L158.471 72.2458C161.323 69.591 161.523 65.139 158.919 62.24C156.316 59.341 151.869 59.0618 148.925 61.6136L130.561 77.9326H104.747L85.4977 101.461V37.013H111.073V47.2429H153.212L147.075 31.8975L153.212 16.5531H123.861V6.32324H80.3833V101.461L61.1363 77.9326H35.3219L16.9585 61.6106C14.0125 59.0538 9.56047 59.331 6.95471 62.232C4.34695 65.1339 4.54809 69.589 7.40702 72.2458L31.7915 94.4087V154.656H6.21621V159.772H159.665V154.656H134.091V94.4087ZM123.861 21.6676H145.657L141.567 31.8975L145.657 42.1274H116.187V37.013H123.861V21.6676ZM85.4977 11.4377H118.745V31.8975H85.4977V11.4377ZM57.3657 154.656H49.6936V118.852H44.5781V154.656H36.9059V92.1472L10.8503 68.4702C10.1168 67.7877 9.98676 66.674 10.5411 65.8384C10.8653 65.3521 11.3837 65.0299 11.9631 64.9548C12.5425 64.8788 13.1269 65.0579 13.5642 65.4452L33.3775 83.047H58.7116L77.7285 106.291C78.466 107.171 78.3499 108.482 77.4703 109.221C76.5887 109.957 75.2768 109.841 74.5403 108.961L57.3657 88.93V154.656ZM103.401 154.656H62.4812V102.74L70.6657 112.28C73.0383 115.044 77.1001 115.599 80.1271 113.574C80.2222 113.51 80.3042 113.429 80.3973 113.359V134.197H85.5117V113.364C85.6078 113.437 85.6929 113.523 85.7949 113.59C88.82 115.601 92.8697 115.044 95.2373 112.288L103.401 102.74V154.656ZM128.975 154.656H121.303V118.852H116.187V154.656H108.515V88.93L91.3427 108.969C90.6552 109.765 89.4804 109.922 88.6088 109.334C88.1205 109.013 87.7923 108.497 87.7082 107.919C87.6202 107.339 87.7813 106.75 88.1535 106.298L107.17 83.047H132.505L152.315 65.4372C152.749 65.0439 153.337 64.8628 153.916 64.9438C154.504 65.0179 155.029 65.3471 155.351 65.8444C155.901 66.676 155.766 67.7847 155.031 68.4602L128.975 92.1472V154.656Z" fill="#FFD600"/>
</svg>
