<svg width="158" height="158" viewBox="0 0 158 158" fill="none" xmlns="http://www.w3.org/2000/svg">
    <path d="M155.686 143.558H146.769C148.831 140.74 149.681 137.168 149.024 133.621C148.669 131.708 147.896 129.949 146.805 128.435C148.76 127.984 150.634 127.098 152.275 125.785C153.205 125.041 153.748 123.931 153.768 122.741C153.787 121.55 153.279 120.423 152.374 119.649L130.952 101.334C129.376 99.9856 128.193 98.2341 127.534 96.2668L122.529 81.3217C122.527 81.3169 122.525 81.312 122.524 81.3072L118.017 67.8533C115.973 61.7525 111.089 56.9597 104.951 55.0322L89.4295 50.1573C93.6437 47.1859 96.4042 42.2834 96.4042 36.7456V25.9725C96.4042 16.9256 89.0438 9.56641 79.9981 9.56641C70.9525 9.56641 63.592 16.9256 63.592 25.9725V36.7468C63.592 42.029 66.1042 46.7339 69.9941 49.7354C69.5915 49.8463 69.1901 49.9633 68.7899 50.0886L53.0492 55.0322C46.9111 56.9597 42.0266 61.7525 39.9834 67.8533L30.4652 96.2668C29.8058 98.2341 28.6245 99.9868 27.0478 101.334L5.62581 119.65C4.72052 120.424 4.21303 121.55 4.23232 122.741C4.2516 123.932 4.79526 125.041 5.72466 125.785C7.44121 127.159 9.4097 128.065 11.4614 128.494C9.52422 132.059 9.15656 136.406 10.6501 140.346C11.1033 141.538 11.7 142.613 12.4185 143.559H2.31445C1.03548 143.559 0 144.594 0 145.873C0 147.151 1.03548 148.188 2.31445 148.188H140.839H140.842H140.844H155.686C156.965 148.188 158 147.151 158 145.873C158 144.594 156.963 143.558 155.686 143.558ZM103.014 89.5657L111.188 109.905C111.234 110.018 111.288 110.128 111.351 110.233C112.797 112.642 114.857 114.637 117.31 116.005L120.02 117.515L103.014 112.322V89.5657ZM127.943 104.853L148.746 122.637C145.956 124.501 142.365 124.666 139.394 123.014L119.564 111.962C117.868 111.017 116.435 109.648 115.41 108.001L108.125 89.8707L118.93 85.1538L123.145 97.7362C124.07 100.499 125.73 102.959 127.943 104.853ZM68.2209 36.7468V25.9725C68.2209 19.4788 73.5044 14.1953 79.9981 14.1953C86.4918 14.1953 91.7753 19.4788 91.7753 25.9725V36.7468C91.7753 43.2405 86.4918 48.524 79.9981 48.524C73.5044 48.524 68.2209 43.2405 68.2209 36.7468ZM54.4355 59.4477L70.1774 54.5054C75.949 52.6924 82.051 52.6924 87.8226 54.5054L103.565 59.4477C108.292 60.9328 112.054 64.6239 113.628 69.3239L117.455 80.7479L106.397 85.5733L102.846 76.7374C102.433 75.7091 101.349 75.1173 100.259 75.3282C99.1707 75.5392 98.3848 76.4927 98.3848 77.6005V111.721H59.6152V77.6005C59.6152 76.4927 58.8293 75.5392 57.7408 75.3282C56.6547 75.1173 55.5674 75.7091 55.1539 76.7374L52.08 84.3847L41.1575 78.9229L44.3724 69.3239C45.9455 64.6239 49.7077 60.9328 54.4355 59.4477ZM30.0553 104.853C32.2697 102.959 33.9296 100.499 34.8542 97.7362L39.6712 83.3553L50.3478 88.6942L48.665 92.8807C48.1888 94.0668 48.7638 95.4145 49.95 95.8919C51.1349 96.368 52.4838 95.793 52.96 94.6069L54.9863 89.5669V112.315L38.3138 117.33L40.6886 116.005C43.1416 114.638 45.203 112.643 46.6495 110.234C46.7122 110.129 46.7664 110.02 46.8122 109.905L48.542 105.599C49.0194 104.413 48.4444 103.065 47.2582 102.589C46.0721 102.112 44.7244 102.687 44.247 103.873L42.5883 108.001C41.5637 109.65 40.1317 111.017 38.4356 111.962L18.6084 123.013C15.6346 124.666 12.0448 124.501 9.2542 122.637L30.0553 104.853ZM22.1199 143.558H22.1115C18.7483 143.558 16.1493 141.789 14.9789 138.704C13.6553 135.213 14.5618 131.098 17.174 128.52L57.6407 116.349H100.354L138.772 128.081C141.77 128.996 143.901 131.383 144.473 134.465C145.044 137.547 143.911 140.539 141.44 142.468L140.045 143.559H91.169C90.87 141.936 90.1492 139.779 88.4435 137.858L93.0543 137.604C94.3308 137.534 95.3085 136.442 95.2373 135.165C95.1674 133.89 94.0753 132.913 92.7999 132.982L80.2561 133.675C79.7257 133.58 79.1724 133.501 78.5914 133.441L42.8945 129.713C41.6143 129.579 40.4848 130.504 40.3522 131.774C40.2197 133.046 41.143 134.184 42.4136 134.317L78.1128 138.045C78.6528 138.101 79.1603 138.176 79.6353 138.268C79.6449 138.27 79.6558 138.272 79.6654 138.274C84.2859 139.181 85.9108 141.695 86.4713 143.558H22.1199Z" fill="#FFD600"/>
    <path d="M104.927 136.944C104.969 136.944 105.012 136.944 105.056 136.942L120.665 136.08C121.94 136.009 122.918 134.918 122.848 133.641C122.778 132.365 121.685 131.386 120.409 131.458L104.801 132.32C103.525 132.39 102.547 133.482 102.617 134.758C102.686 135.991 103.706 136.944 104.927 136.944Z" fill="#FFD600"/>
</svg>
