<svg width="145" height="145" viewBox="0 0 145 145" fill="none" xmlns="http://www.w3.org/2000/svg">
    <g clip-path="url(#clip0)">
        <path d="M3.55655 90.3616C4.35111 90.9136 5.19016 91.3986 6.06505 91.8116C7.10905 92.3457 8.86113 93.2398 8.98438 93.8658C9.13627 94.6919 9.03694 95.5447 8.69921 96.3138C8.33913 97.0872 7.96213 97.7518 7.63588 98.3245C6.75138 99.8881 5.26997 102.508 7.50297 104.332C8.02497 104.816 8.92638 105.514 9.74805 106.145C9.14317 107.202 8.86957 108.417 8.96263 109.632C9.09086 110.589 9.60968 111.45 10.3957 112.01C10.9322 112.387 11.505 112.716 12.068 113.037C13.4987 113.849 14.057 114.229 14.243 114.987C14.3773 115.96 14.2948 116.95 14.0014 117.887C13.8588 118.533 13.7211 119.18 13.6389 119.821C13.3989 122.023 13.671 124.251 14.434 126.331C15.521 130.171 18.9941 132.846 22.9841 132.917C23.6501 132.915 24.3142 132.844 24.9658 132.706C31.8697 131.07 38.6728 129.034 45.3407 126.609C50.7855 129.804 54.2244 139.519 55.121 143.166C55.3887 144.244 56.3568 145.001 57.4676 145L118.126 144.831C118.895 144.829 119.617 144.462 120.071 143.842C120.525 143.222 120.657 142.423 120.427 141.689C119.829 140.052 119.005 138.506 117.978 137.098C117.399 136.262 116.877 135.389 116.415 134.483C115.32 132.268 114.408 129.968 113.686 127.605C112.306 122.936 111.35 118.153 110.828 113.313C110.197 107.715 110.732 102.047 112.398 96.6667H118.416C122.42 96.6667 125.666 93.4207 125.666 89.4167V58C125.666 56.6653 124.584 55.5833 123.249 55.5833H113.496C113.552 55.183 113.581 54.7793 113.583 54.375C113.583 49.7036 109.796 45.9167 105.124 45.9167C100.453 45.9167 96.6659 49.7036 96.6659 54.375C96.667 54.7793 96.6961 55.183 96.7529 55.5833H89.4159V48.2488C90.7512 48.4389 92.1126 48.3106 93.3889 47.8742C96.1477 46.9346 98.2217 44.631 98.8675 41.789C99.4999 39.0673 98.7473 36.2089 96.8567 34.1514C94.966 32.094 92.1812 31.103 89.4159 31.5037V21.75C89.4159 20.4153 88.3339 19.3333 86.9992 19.3333H55.5826C51.5785 19.3333 48.3326 22.5793 48.3326 26.5833V89.4167C48.3326 93.4207 51.5785 96.6667 55.5826 96.6667H107.323C105.802 102.276 105.365 108.124 106.035 113.898C106.593 119.029 107.61 124.1 109.075 129.05C109.871 131.648 110.874 134.177 112.075 136.614C112.626 137.709 113.252 138.764 113.947 139.773L114.109 140.014L59.2946 140.167C57.6903 134.434 54.7785 129.151 50.7879 124.734L52.9629 123.973C54.5821 123.407 55.8025 122.982 56.4284 122.781C66.7814 119.507 71.9579 114.792 71.8177 108.765C71.7864 107.43 70.6789 106.373 69.3443 106.405C68.0096 106.436 66.953 107.543 66.9844 108.878C67.0424 111.365 65.0051 114.992 54.9591 118.17C54.3041 118.38 53.0426 118.82 51.3679 119.405C49.5723 120.033 47.2886 120.831 44.7704 121.686H44.7535C37.9525 124.179 31.0131 126.277 23.9701 127.97C21.7213 128.397 19.5351 126.977 19.0111 124.748C18.4948 123.374 18.3006 121.899 18.4432 120.437C18.5061 119.929 18.622 119.427 18.7332 118.922C19.2256 117.251 19.2979 115.484 18.9435 113.779C18.2406 111.559 16.607 109.754 14.4678 108.835L13.9676 108.549C14.2285 108.023 14.5401 107.522 14.898 107.056C15.3034 106.542 15.4831 105.886 15.3961 105.237C15.3092 104.589 14.9628 104.003 14.4364 103.615C13.8564 103.189 12.4886 102.165 11.4881 101.357C11.604 101.147 11.7297 100.915 11.8505 100.705C12.23 100.04 12.6625 99.267 13.0855 98.3728C13.8502 96.6789 14.0755 94.7907 13.7307 92.9643C13.1507 90.016 10.3256 88.5708 8.26663 87.5172C7.57136 87.1868 6.90452 86.7996 6.27288 86.3596C5.75902 86.0123 5.27702 85.6201 4.83255 85.1875C4.83255 84.8202 5.22647 83.9308 7.06797 81.6906C11.3964 76.1183 15.1075 70.093 18.1363 63.7203C18.7026 62.7218 19.0217 61.6023 19.0667 60.4553C18.8171 58.0262 17.5298 55.8235 15.536 54.4137C14.5693 53.5171 13.6389 52.6713 13.5301 51.8834C13.5462 51.313 13.6743 50.7514 13.9071 50.2304C14.3011 49.1937 14.7554 48.1787 15.2121 47.1613C16.2031 45.118 16.9946 42.9838 17.5756 40.7885L17.8173 39.759C18.3274 37.343 18.9852 34.9605 19.7869 32.625C21.6919 27.367 24.6415 22.5489 28.4579 18.4609C33.081 13.5696 40.3576 10.1089 50.1209 8.16833C57.5865 6.52907 65.162 5.43786 72.7868 4.90342C83.7983 4.35336 94.6996 7.31797 103.916 13.369V15.7083C103.916 16.6237 104.433 17.4605 105.252 17.8699C106.071 18.2792 107.05 18.1909 107.783 17.6417C109.362 16.5275 111.531 16.8055 112.778 18.2821C113.48 19.1601 113.738 20.3133 113.476 21.4068C113.193 22.5968 112.321 23.5599 111.166 23.9613C110.018 24.3657 108.743 24.1708 107.768 23.4417C107.036 22.901 106.062 22.8176 105.249 23.2259C104.435 23.6341 103.92 24.4648 103.916 25.375V36.25C103.916 38.9194 106.08 41.0833 108.749 41.0833H119.624C120.54 41.0833 121.376 40.5662 121.786 39.7474C122.195 38.9287 122.107 37.949 121.558 37.2167C120.436 35.7212 120.635 33.618 122.018 32.3601C123.401 31.1022 125.514 31.1022 126.897 32.3601C128.28 33.618 128.479 35.7212 127.358 37.2167C126.808 37.949 126.72 38.9287 127.129 39.7474C127.539 40.5662 128.376 41.0833 129.291 41.0833H142.583C143.917 41.0833 144.999 40.0014 144.999 38.6667V7.25C144.999 3.24594 141.753 0 137.749 0H106.333C104.998 0 103.916 1.08198 103.916 2.41667V7.58108C94.3939 2.12333 83.5038 -0.482188 72.5427 0.0749167C64.6791 0.620331 56.866 1.74145 49.1663 3.42925C38.2696 5.60425 30.3501 9.425 24.944 15.138C20.6796 19.7011 17.3824 25.0797 15.2508 30.9503C14.3805 33.4763 13.6654 36.0533 13.1096 38.6667L12.868 39.6865C12.3522 41.5819 11.6604 43.425 10.8017 45.1917C10.3184 46.2937 9.81572 47.3957 9.38313 48.5363C8.82692 49.8061 8.6072 51.1977 8.74513 52.577C9.23139 54.7428 10.4813 56.6611 12.2662 57.9807C13.448 59.0633 14.2237 59.827 14.2334 60.4916C14.1469 60.8589 14.0086 61.2121 13.8225 61.5404C10.9285 67.6334 7.38359 73.3952 3.24963 78.7253C1.49755 80.8568 -0.339118 83.3436 0.0475488 85.8327C0.56017 87.753 1.82514 89.3856 3.55655 90.3616ZM53.1659 26.5833C53.1659 25.2486 54.2479 24.1667 55.5826 24.1667H84.5826V35.0417C84.5826 35.957 85.0997 36.7938 85.9185 37.2032C86.7372 37.6126 87.7169 37.5242 88.4492 36.975C90.0284 35.8608 92.1974 36.1389 93.4445 37.6154C94.1469 38.4935 94.4046 39.6466 94.1429 40.7402C93.8592 41.9301 92.9882 42.8932 91.8326 43.2946C90.6805 43.6989 89.4025 43.5003 88.4275 42.7653C87.6939 42.2279 86.7208 42.1478 85.9092 42.5579C85.0976 42.968 84.585 43.799 84.5826 44.7083V55.5833H77.2504C77.4375 54.2493 77.3084 52.89 76.8734 51.6152C75.9359 48.8544 73.6332 46.7777 70.7906 46.1293C68.2762 45.5444 65.6324 46.1398 63.6114 47.746C61.5905 49.3523 60.4137 51.7935 60.4159 54.375C60.417 54.7793 60.4461 55.183 60.5029 55.5833H53.1659V26.5833ZM53.1659 89.4167V60.4167H64.0409C64.9563 60.4167 65.7931 59.8995 66.2024 59.0808C66.6118 58.262 66.5234 57.2823 65.9742 56.55C64.8058 54.9838 65.0891 52.7733 66.6146 51.5523C67.4939 50.8504 68.6479 50.5935 69.7418 50.8563C70.9322 51.1383 71.8952 52.0101 72.2938 53.1667C72.7011 54.318 72.5012 55.5971 71.7621 56.5693C71.223 57.3032 71.1423 58.2779 71.5532 59.0905C71.9641 59.9032 72.7969 60.4158 73.7076 60.4167H84.5826V67.7537C81.3036 67.2797 78.0499 68.7637 76.2581 71.5503C74.4662 74.3369 74.4662 77.9131 76.2581 80.6997C78.0499 83.4863 81.3036 84.9703 84.5826 84.4963V91.8333H55.5826C54.2479 91.8333 53.1659 90.7514 53.1659 89.4167ZM88.0746 78.7833C87.2516 78.3795 86.2714 78.4729 85.5396 79.025C84.044 80.1466 81.9408 79.9471 80.683 78.5642C79.4251 77.1813 79.4251 75.0687 80.683 73.6858C81.9408 72.3029 84.044 72.1034 85.5396 73.225C86.2718 73.7742 87.2516 73.8626 88.0703 73.4532C88.889 73.0438 89.4062 72.207 89.4062 71.2917V60.4167H100.281C101.197 60.4167 102.033 59.8995 102.443 59.0808C102.852 58.262 102.764 57.2823 102.215 56.55C101.093 55.0545 101.292 52.9513 102.675 51.6934C104.058 50.4355 106.171 50.4355 107.554 51.6934C108.937 52.9513 109.136 55.0545 108.015 56.55C107.465 57.2823 107.377 58.262 107.786 59.0808C108.196 59.8995 109.033 60.4167 109.948 60.4167H120.833V89.4167C120.833 90.7514 119.751 91.8333 118.416 91.8333H89.4159V80.9583C89.42 80.0369 88.8998 79.1934 88.0746 78.7833ZM108.749 4.83333H137.749C139.084 4.83333 140.166 5.91531 140.166 7.25V36.25H132.829C132.886 35.8497 132.915 35.446 132.916 35.0417C132.916 30.3703 129.129 26.5833 124.458 26.5833C119.786 26.5833 115.999 30.3703 115.999 35.0417C116 35.446 116.029 35.8497 116.086 36.25H108.749V28.9154C110.085 29.1057 111.446 28.9773 112.722 28.5408C115.481 27.6012 117.555 25.2977 118.201 22.4557C118.833 19.734 118.081 16.8755 116.19 14.8181C114.299 12.7606 111.515 11.7697 108.749 12.1703V4.83333Z" fill="#FFD600"/>
        <path d="M26.9845 42.9948L27.2262 41.946C27.6551 39.9261 28.1989 37.9323 28.855 35.9744C30.3088 31.9352 32.571 28.2348 35.5033 25.0994C37.3839 23.2081 39.6172 21.704 42.0766 20.6721C42.8917 20.3367 43.4596 19.5842 43.5585 18.7083C43.6573 17.8325 43.2716 16.9723 42.5518 16.4636C41.832 15.9549 40.8924 15.8785 40.0998 16.2641C37.0586 17.5521 34.3016 19.4278 31.987 21.7837C28.6031 25.3956 25.9921 29.6603 24.3141 34.3166C23.5849 36.4633 22.9821 38.6509 22.5089 40.8681L22.2672 41.9315C22.1229 42.5581 22.2343 43.2164 22.5768 43.7607C22.9192 44.305 23.4644 44.6903 24.0918 44.8315C24.267 44.8717 24.4461 44.892 24.6259 44.8919C25.7598 44.8912 26.7407 44.1022 26.9845 42.9948Z" fill="#FFD600"/>
        <path d="M21.75 53.1668C23.0847 53.1668 24.1667 52.0848 24.1667 50.7502C24.1667 49.4155 23.0847 48.3335 21.75 48.3335C20.4154 48.3335 19.3334 49.4155 19.3334 50.7502C19.3334 52.0848 20.4154 53.1668 21.75 53.1668Z" fill="#FFD600"/>
    </g>
    <defs>
        <clipPath id="clip0">
            <rect width="145" height="145" fill="white"/>
        </clipPath>
    </defs>
</svg>
