<svg width="154" height="154" viewBox="0 0 154 154" fill="none" xmlns="http://www.w3.org/2000/svg">
    <path d="M143.172 84.2188C138.528 84.2188 134.75 87.9966 134.75 92.6406V109.559C134.75 113.127 132.086 116.2 128.551 116.706L127.04 116.922C128.85 114.509 129.938 111.522 129.938 108.281C129.938 100.319 123.462 93.8438 115.5 93.8438C107.538 93.8438 101.062 100.319 101.062 108.281C101.062 111.522 102.15 114.509 103.96 116.922L102.448 116.706C98.9137 116.2 96.25 113.127 96.25 109.559V92.6406C96.25 87.9966 92.4722 84.2188 87.8281 84.2188C83.1841 84.2188 79.4062 87.9966 79.4062 92.6406V111.636C79.4062 121.997 86.791 130.941 96.9671 132.902L98.6562 133.227V151.594H132.344V133.227L134.033 132.902C144.209 130.941 151.594 121.997 151.594 111.636V92.6406C151.594 87.9966 147.816 84.2188 143.172 84.2188ZM115.5 98.6562C120.808 98.6562 125.125 102.973 125.125 108.281C125.125 113.589 120.808 117.906 115.5 117.906C110.192 117.906 105.875 113.589 105.875 108.281C105.875 102.973 110.192 98.6562 115.5 98.6562ZM146.781 111.636C146.781 119.694 141.035 126.651 133.121 128.176L127.531 129.252V146.781H103.469V129.252L97.879 128.174C89.9649 126.651 84.2188 119.694 84.2188 111.636V92.6406C84.2188 90.6507 85.8382 89.0312 87.8281 89.0312C89.8181 89.0312 91.4375 90.6507 91.4375 92.6406V109.559C91.4375 115.507 95.8794 120.628 101.768 121.47L110.346 122.695L115.252 122.707C115.336 122.707 115.416 122.719 115.5 122.719H117.906V122.712L120.312 122.719L129.232 121.467C135.121 120.625 139.562 115.505 139.562 109.557V92.6406C139.562 90.6507 141.182 89.0312 143.172 89.0312C145.162 89.0312 146.781 90.6507 146.781 92.6406V111.636Z" fill="#FFD600"/>
    <path d="M132.344 50.5312V2.40625H127.108L93.7499 14.5362L127.531 25.7974V50.5312H97.8814L71.9758 69.1845C71.5402 66.8023 70.4141 64.6054 68.6647 62.8561L62.5625 56.7538V42.8746C71.5113 40.7474 79.0044 34.6259 82.8568 26.18L88.2805 14.2811C88.7786 13.1838 89.0312 12.0192 89.0312 10.78C89.0312 6.16481 85.2727 2.40625 80.5372 2.40625C77.4331 2.40625 74.6443 4.13153 73.2583 6.90594L68.1354 17.1566C66.3692 20.6889 63.5009 23.3888 60.0624 24.9528C61.6385 22.6404 62.5625 19.8492 62.5625 16.8438C62.5625 8.88147 56.0873 2.40625 48.125 2.40625C40.1627 2.40625 33.6875 8.88147 33.6875 16.8438C33.6875 20.5879 35.1312 23.9927 37.4773 26.5602C29.5945 27.0246 22.4696 31.7577 19.1056 38.9668L7.99597 62.7743C7.48584 63.8619 7.21875 65.0698 7.21875 66.297C7.21875 70.8713 10.9412 74.5938 15.6358 74.5938C18.7712 74.5938 21.6442 72.7554 22.9556 69.9088L33.6875 46.65V94.6859C28.0882 96.6735 24.0625 102.008 24.0625 108.281C24.0625 111.522 25.1501 114.509 26.9596 116.922L25.4485 116.706C21.9137 116.2 19.25 113.127 19.25 109.559V92.6406C19.25 87.9966 15.4722 84.2188 10.8281 84.2188C6.18406 84.2188 2.40625 87.9966 2.40625 92.6406V111.636C2.40625 121.997 9.79103 130.941 19.9671 132.902L21.6562 133.227V151.594H55.3438V133.227L57.0329 132.902C67.209 130.941 74.5938 121.997 74.5938 111.636V92.6406C74.5938 87.9966 70.8159 84.2188 66.1719 84.2188C61.5278 84.2188 57.75 87.9966 57.75 92.6406V109.559C57.75 113.127 55.0863 116.2 51.5515 116.706L50.0404 116.922C51.8499 114.509 52.9375 111.522 52.9375 108.281C52.9375 102.374 49.3666 97.2895 44.275 95.0565L99.4311 55.3438H151.594V50.5312H132.344ZM108.375 14.3388L127.531 7.37275V20.725L108.375 14.3388ZM48.125 7.21875C53.4332 7.21875 57.75 11.5356 57.75 16.8438C57.75 22.1519 53.4332 26.4688 48.125 26.4688C42.8168 26.4688 38.5 22.1519 38.5 16.8438C38.5 11.5356 42.8168 7.21875 48.125 7.21875ZM32.1475 38.5L18.5859 67.8948C18.0565 69.0401 16.8967 69.7812 15.5155 69.7812C13.5929 69.7812 12.0312 68.2196 12.0312 66.2705C12.0312 65.7676 12.1443 65.2623 12.3561 64.8075L23.4657 41.0025C26.2233 35.0976 32.2125 31.2812 38.7286 31.2812H53.0723C61.3281 31.2812 68.749 26.6925 72.4402 19.3078L77.5631 9.05713C78.1285 7.92378 79.2667 7.21875 80.6575 7.21875C82.621 7.21875 84.2188 8.8165 84.2188 10.8161C84.2188 11.3262 84.1105 11.8195 83.8987 12.2863L78.475 24.1852C75.0052 31.7962 68.0078 37.1597 59.7616 38.5337L57.75 38.8682L57.7476 58.7462L65.2599 66.2585C66.605 67.6012 67.375 69.4612 67.375 71.3622V72.4955L60.1562 77.693V71.1913L51.5274 62.5625H45.7188V88.088L38.5 93.2855V38.5H32.1475ZM55.3438 81.158L50.5312 84.623V68.3712L55.3438 73.1837V81.158ZM52.2325 121.467C58.1206 120.625 62.5625 115.505 62.5625 109.557V92.6406C62.5625 90.6507 64.1819 89.0312 66.1719 89.0312C68.1618 89.0312 69.7812 90.6507 69.7812 92.6406V111.636C69.7812 119.694 64.0351 126.651 56.121 128.176L50.5312 129.252V146.781H26.4688V129.252L20.879 128.174C12.9649 126.651 7.21875 119.694 7.21875 111.636V92.6406C7.21875 90.6507 8.83816 89.0312 10.8281 89.0312C12.8181 89.0312 14.4375 90.6507 14.4375 92.6406V109.559C14.4375 115.507 18.8794 120.628 24.7675 121.47L33.3458 122.695L38.2522 122.707C38.3364 122.707 38.4158 122.719 38.5 122.719H40.9062V122.712L43.3125 122.719L52.2325 121.467ZM48.125 108.281C48.125 113.589 43.8082 117.906 38.5 117.906C33.1918 117.906 28.875 113.589 28.875 108.281C28.875 102.973 33.1918 98.6562 38.5 98.6562C43.8082 98.6562 48.125 102.973 48.125 108.281Z" fill="#FFD600"/>
    <path d="M103.469 60.1562H108.281V64.9688H103.469V60.1562Z" fill="#FFD600"/>
    <path d="M113.094 60.1562H117.906V64.9688H113.094V60.1562Z" fill="#FFD600"/>
    <path d="M122.719 60.1562H127.531V64.9688H122.719V60.1562Z" fill="#FFD600"/>
</svg>
